<svg width="40" height="40" viewBox="0 0 40 40" fill="none" xmlns="http://www.w3.org/2000/svg">
<path d="M19.3733 12.0367C17.9133 12.0367 15.6533 10.3767 13.2733 10.4367C10.1333 10.4767 7.25331 12.2567 5.63331 15.0767C2.37331 20.7367 4.79331 29.0967 7.97331 33.6967C9.53331 35.9367 11.3733 38.4567 13.8133 38.3767C16.1533 38.2767 17.0333 36.8567 19.8733 36.8567C22.6933 36.8567 23.4933 38.3767 25.9733 38.3167C28.4933 38.2767 30.0933 36.0367 31.6333 33.7767C33.4133 31.1767 34.1533 28.6567 34.1933 28.5167C34.1333 28.4967 29.2933 26.6367 29.2333 21.0367C29.1933 16.3567 33.0533 14.1167 33.2333 14.0167C31.0333 10.7967 27.6533 10.4367 26.4733 10.3567C23.3933 10.1167 20.8133 12.0367 19.3733 12.0367ZM24.5733 7.31669C25.8733 5.75669 26.7333 3.57669 26.4933 1.41669C24.6333 1.49669 22.3933 2.65669 21.0533 4.21669C19.8533 5.59669 18.8133 7.81669 19.0933 9.93669C21.1533 10.0967 23.2733 8.87669 24.5733 7.31669Z" fill="#2E3035"/>
</svg>
