<svg xmlns="http://www.w3.org/2000/svg" xmlns:xlink="http://www.w3.org/1999/xlink" width="242" zoomAndPan="magnify" viewBox="0 0 224.87999 60" height="60" preserveAspectRatio="xMidYMid meet" version="1.0"><defs><filter x="0%" y="0%" width="100%" height="100%" id="id1"><feColorMatrix values="0 0 0 0 1 0 0 0 0 1 0 0 0 0 1 0 0 0 1 0" color-interpolation-filters="sRGB"/></filter><g/><clipPath id="id2"><path d="M 40 6.011719 L 86.726562 6.011719 L 86.726562 53.988281 L 40 53.988281 Z M 40 6.011719 " clip-rule="nonzero"/></clipPath><clipPath id="id3"><path d="M 39.5 6.011719 L 86.726562 6.011719 L 86.726562 53.988281 L 39.5 53.988281 Z M 39.5 6.011719 " clip-rule="nonzero"/></clipPath><mask id="id4"><g filter="url(#id1)"><rect x="-22.487999" width="269.855988" fill="#000000" y="-6" height="72" fill-opacity="0.8"/></g></mask><clipPath id="id5"><path d="M 0.421875 2 L 4 2 L 4 7 L 0.421875 7 Z M 0.421875 2 " clip-rule="nonzero"/></clipPath><clipPath id="id6"><path d="M 29 3 L 32 3 L 32 7.753906 L 29 7.753906 Z M 29 3 " clip-rule="nonzero"/></clipPath><clipPath id="id7"><path d="M 34 3 L 37 3 L 37 7.753906 L 34 7.753906 Z M 34 3 " clip-rule="nonzero"/></clipPath><clipPath id="id8"><rect x="0" width="57" y="0" height="8"/></clipPath></defs><g clip-path="url(#id2)"><path fill="#9333ea" d="M 63.179688 53.109375 C 62.320312 53.109375 61.46875 53.0625 60.613281 52.96875 C 59.765625 52.875 58.921875 52.730469 58.085938 52.546875 C 57.25 52.355469 56.429688 52.125 55.617188 51.84375 C 54.808594 51.566406 54.019531 51.242188 53.242188 50.875 C 52.46875 50.507812 51.71875 50.097656 50.988281 49.648438 C 50.261719 49.199219 49.558594 48.707031 48.886719 48.179688 C 48.210938 47.652344 47.570312 47.089844 46.957031 46.488281 C 46.34375 45.890625 45.769531 45.261719 45.230469 44.597656 C 44.6875 43.933594 44.183594 43.242188 43.71875 42.523438 C 43.253906 41.804688 42.832031 41.0625 42.449219 40.296875 C 42.066406 39.53125 41.730469 38.746094 41.433594 37.941406 C 41.136719 37.140625 40.890625 36.320312 40.683594 35.492188 C 40.480469 34.660156 40.324219 33.820312 40.210938 32.972656 C 40.101562 32.125 40.039062 31.273438 40.019531 30.414062 C 40.003906 29.5625 40.035156 28.707031 40.113281 27.855469 C 40.191406 27.003906 40.316406 26.160156 40.488281 25.320312 C 40.660156 24.480469 40.878906 23.65625 41.144531 22.839844 C 41.40625 22.027344 41.714844 21.230469 42.066406 20.449219 C 42.421875 19.671875 42.816406 18.914062 43.25 18.175781 C 43.6875 17.4375 44.164062 16.730469 44.679688 16.046875 C 45.191406 15.363281 45.746094 14.710938 46.335938 14.089844 C 46.921875 13.464844 47.542969 12.878906 48.195312 12.324219 C 48.847656 11.773438 49.527344 11.253906 50.238281 10.777344 C 50.953125 10.296875 51.683594 9.863281 52.445312 9.464844 C 53.203125 9.070312 53.980469 8.714844 54.78125 8.40625 C 55.578125 8.097656 56.394531 7.828125 57.21875 7.609375 C 58.046875 7.390625 58.882812 7.214844 59.730469 7.089844 C 60.578125 6.960938 61.429688 6.882812 62.289062 6.847656 C 63.144531 6.816406 64 6.828125 64.851562 6.894531 C 65.707031 6.953125 66.554688 7.0625 67.394531 7.21875 C 68.238281 7.375 69.070312 7.578125 69.890625 7.824219 C 70.710938 8.070312 71.511719 8.363281 72.300781 8.699219 C 73.085938 9.035156 73.855469 9.417969 74.597656 9.839844 C 75.34375 10.261719 76.0625 10.722656 76.757812 11.226562 C 77.449219 11.726562 78.113281 12.265625 78.75 12.839844 C 79.382812 13.414062 79.984375 14.023438 80.550781 14.664062 C 81.117188 15.304688 81.644531 15.976562 82.136719 16.675781 C 82.632812 17.378906 83.082031 18.105469 83.492188 18.855469 C 83.902344 19.605469 84.273438 20.375 84.597656 21.167969 C 84.925781 21.957031 85.207031 22.765625 85.441406 23.585938 C 85.679688 24.410156 85.871094 25.242188 86.011719 26.085938 C 86.15625 26.933594 86.253906 27.78125 86.304688 28.632812 C 86.351562 29.488281 86.355469 30.34375 86.308594 31.195312 C 86.265625 32.050781 86.171875 32.902344 86.03125 33.746094 C 85.894531 34.589844 85.707031 35.421875 85.472656 36.246094 C 85.238281 37.070312 84.964844 37.878906 84.644531 38.671875 C 84.320312 39.464844 83.953125 40.238281 83.546875 40.988281 C 83.140625 41.742188 82.691406 42.46875 82.203125 43.171875 C 81.132812 44.703125 79.902344 46.089844 78.5 47.324219 C 77.09375 48.558594 75.566406 49.605469 73.910156 50.472656 C 72.253906 51.335938 70.519531 51.992188 68.703125 52.441406 C 66.890625 52.886719 65.046875 53.109375 63.179688 53.109375 Z M 63.179688 7.859375 C 62.171875 7.859375 61.171875 7.925781 60.171875 8.0625 C 59.179688 8.199219 58.195312 8.402344 57.226562 8.675781 C 56.257812 8.945312 55.3125 9.277344 54.390625 9.675781 C 53.464844 10.078125 52.574219 10.535156 51.710938 11.054688 C 50.855469 11.578125 50.03125 12.152344 49.25 12.785156 C 48.46875 13.417969 47.734375 14.101562 47.046875 14.832031 C 46.355469 15.566406 45.71875 16.339844 45.136719 17.160156 C 44.554688 17.980469 44.03125 18.832031 43.566406 19.722656 C 43.097656 20.613281 42.695312 21.53125 42.355469 22.476562 C 42.011719 23.421875 41.738281 24.386719 41.527344 25.371094 C 41.316406 26.351562 41.175781 27.34375 41.105469 28.347656 C 41.027344 29.347656 41.023438 30.351562 41.085938 31.351562 C 41.148438 32.355469 41.277344 33.347656 41.480469 34.335938 C 41.675781 35.320312 41.941406 36.289062 42.273438 37.238281 C 42.605469 38.183594 42.996094 39.109375 43.453125 40.003906 C 43.910156 40.898438 44.421875 41.757812 45 42.582031 C 45.269531 42.972656 45.546875 43.351562 45.84375 43.722656 C 46.136719 44.09375 46.445312 44.453125 46.761719 44.804688 C 47.078125 45.15625 47.410156 45.496094 47.75 45.824219 C 48.085938 46.152344 48.4375 46.472656 48.796875 46.777344 C 49.15625 47.089844 49.527344 47.382812 49.902344 47.667969 C 50.285156 47.949219 50.671875 48.222656 51.066406 48.480469 C 51.464844 48.738281 51.867188 48.984375 52.277344 49.21875 C 52.691406 49.453125 53.113281 49.671875 53.539062 49.875 C 53.960938 50.082031 54.394531 50.273438 54.835938 50.453125 C 55.273438 50.628906 55.71875 50.792969 56.164062 50.945312 C 56.613281 51.09375 57.066406 51.226562 57.527344 51.351562 C 57.984375 51.46875 58.445312 51.574219 58.910156 51.667969 C 59.375 51.757812 59.839844 51.835938 60.308594 51.894531 C 60.777344 51.957031 61.25 52.003906 61.722656 52.035156 C 62.195312 52.066406 62.667969 52.082031 63.144531 52.082031 C 63.613281 52.085938 64.085938 52.066406 64.558594 52.039062 C 65.035156 52.007812 65.503906 51.964844 65.972656 51.90625 C 66.441406 51.84375 66.910156 51.769531 67.375 51.679688 C 67.839844 51.59375 68.300781 51.488281 68.757812 51.367188 C 69.21875 51.246094 69.671875 51.113281 70.121094 50.964844 C 70.570312 50.820312 71.015625 50.65625 71.453125 50.476562 C 71.894531 50.300781 72.324219 50.109375 72.753906 49.90625 C 73.179688 49.703125 73.597656 49.484375 74.011719 49.25 C 74.425781 49.019531 74.828125 48.777344 75.226562 48.519531 C 75.625 48.261719 76.011719 47.992188 76.394531 47.707031 C 76.773438 47.425781 77.144531 47.132812 77.503906 46.828125 C 77.863281 46.519531 78.214844 46.203125 78.558594 45.871094 C 78.894531 45.542969 79.226562 45.207031 79.546875 44.855469 C 79.863281 44.507812 80.171875 44.144531 80.464844 43.777344 C 80.761719 43.410156 81.046875 43.027344 81.316406 42.640625 C 81.585938 42.253906 81.84375 41.859375 82.09375 41.453125 C 82.335938 41.050781 82.570312 40.636719 82.789062 40.21875 C 83.007812 39.800781 83.214844 39.375 83.40625 38.941406 C 83.597656 38.511719 83.777344 38.070312 83.941406 37.628906 C 84.105469 37.183594 84.253906 36.734375 84.390625 36.28125 C 84.527344 35.828125 84.644531 35.375 84.75 34.910156 C 84.855469 34.449219 84.949219 33.984375 85.023438 33.519531 C 85.097656 33.050781 85.160156 32.585938 85.207031 32.113281 C 85.25 31.640625 85.28125 31.167969 85.296875 30.695312 C 85.316406 30.222656 85.316406 29.75 85.296875 29.277344 C 85.285156 28.804688 85.253906 28.335938 85.210938 27.863281 C 85.164062 27.394531 85.105469 26.921875 85.027344 26.460938 C 84.953125 25.992188 84.863281 25.527344 84.757812 25.066406 C 84.652344 24.605469 84.535156 24.144531 84.402344 23.691406 C 84.265625 23.238281 84.117188 22.792969 83.953125 22.347656 C 83.789062 21.90625 83.613281 21.464844 83.421875 21.03125 C 83.230469 20.601562 83.027344 20.175781 82.808594 19.753906 C 82.585938 19.335938 82.355469 18.925781 82.109375 18.519531 C 81.863281 18.113281 81.605469 17.71875 81.335938 17.332031 C 81.066406 16.941406 80.785156 16.5625 80.488281 16.195312 C 80.191406 15.824219 79.886719 15.460938 79.566406 15.113281 C 79.25 14.761719 78.921875 14.421875 78.582031 14.09375 C 78.242188 13.761719 77.890625 13.445312 77.53125 13.140625 C 77.171875 12.832031 76.800781 12.535156 76.421875 12.257812 C 76.042969 11.972656 75.652344 11.699219 75.257812 11.445312 C 74.859375 11.1875 74.457031 10.941406 74.042969 10.707031 C 73.632812 10.476562 73.210938 10.257812 72.785156 10.050781 C 72.359375 9.84375 71.925781 9.652344 71.488281 9.476562 C 71.046875 9.300781 70.605469 9.136719 70.15625 8.988281 C 69.707031 8.839844 69.253906 8.703125 68.796875 8.582031 C 68.335938 8.464844 67.875 8.359375 67.414062 8.269531 C 66.945312 8.175781 66.480469 8.101562 66.007812 8.039062 C 65.539062 7.980469 65.066406 7.933594 64.59375 7.90625 C 64.125 7.875 63.652344 7.859375 63.179688 7.859375 Z M 63.179688 7.859375 " fill-opacity="1" fill-rule="nonzero"/></g><path fill="#9333ea" d="M 45.164062 42.828125 L 44.132812 42.828125 L 44.132812 23.285156 C 44.132812 23.082031 44.171875 22.886719 44.25 22.695312 C 44.328125 22.507812 44.441406 22.339844 44.585938 22.195312 C 44.730469 22.050781 44.894531 21.9375 45.085938 21.859375 C 45.277344 21.78125 45.472656 21.742188 45.675781 21.742188 L 54.425781 21.742188 L 54.425781 22.773438 L 45.675781 22.773438 C 45.535156 22.773438 45.414062 22.820312 45.3125 22.921875 C 45.210938 23.023438 45.164062 23.144531 45.164062 23.285156 Z M 45.164062 42.828125 " fill-opacity="1" fill-rule="nonzero"/><path fill="#9333ea" d="M 82.222656 42.828125 L 81.191406 42.828125 L 81.191406 23.285156 C 81.191406 23.144531 81.144531 23.023438 81.042969 22.921875 C 80.941406 22.820312 80.820312 22.773438 80.679688 22.773438 L 71.929688 22.773438 L 71.929688 21.742188 L 80.679688 21.742188 C 80.882812 21.742188 81.082031 21.78125 81.269531 21.859375 C 81.460938 21.9375 81.625 22.050781 81.769531 22.195312 C 81.914062 22.339844 82.027344 22.507812 82.105469 22.695312 C 82.183594 22.886719 82.222656 23.082031 82.222656 23.285156 Z M 82.222656 42.828125 " fill-opacity="1" fill-rule="nonzero"/><path fill="#9333ea" d="M 47.734375 26.882812 C 47.53125 26.882812 47.335938 26.84375 47.144531 26.769531 C 46.957031 26.691406 46.789062 26.578125 46.644531 26.433594 C 46.5 26.289062 46.386719 26.121094 46.308594 25.933594 C 46.230469 25.746094 46.191406 25.546875 46.191406 25.34375 C 46.191406 25.136719 46.230469 24.941406 46.308594 24.75 C 46.386719 24.5625 46.5 24.394531 46.644531 24.25 C 46.789062 24.105469 46.957031 23.996094 47.144531 23.917969 C 47.335938 23.839844 47.53125 23.800781 47.734375 23.800781 C 47.941406 23.800781 48.136719 23.839844 48.328125 23.917969 C 48.515625 23.996094 48.683594 24.105469 48.828125 24.25 C 48.972656 24.394531 49.085938 24.5625 49.164062 24.75 C 49.238281 24.941406 49.277344 25.136719 49.277344 25.34375 C 49.277344 25.546875 49.238281 25.746094 49.164062 25.933594 C 49.085938 26.121094 48.972656 26.289062 48.828125 26.433594 C 48.683594 26.578125 48.515625 26.691406 48.328125 26.769531 C 48.136719 26.84375 47.941406 26.882812 47.734375 26.882812 Z M 47.734375 24.828125 C 47.59375 24.828125 47.472656 24.878906 47.371094 24.980469 C 47.269531 25.078125 47.21875 25.203125 47.21875 25.34375 C 47.21875 25.484375 47.269531 25.605469 47.371094 25.707031 C 47.472656 25.808594 47.59375 25.859375 47.734375 25.859375 C 47.878906 25.859375 48 25.808594 48.101562 25.707031 C 48.203125 25.605469 48.25 25.484375 48.25 25.34375 C 48.25 25.203125 48.203125 25.078125 48.101562 24.980469 C 48 24.878906 47.878906 24.828125 47.734375 24.828125 Z M 47.734375 24.828125 " fill-opacity="1" fill-rule="nonzero"/><path fill="#9333ea" d="M 51.855469 26.882812 C 51.648438 26.882812 51.453125 26.84375 51.261719 26.769531 C 51.074219 26.691406 50.90625 26.578125 50.761719 26.433594 C 50.617188 26.289062 50.507812 26.121094 50.425781 25.933594 C 50.347656 25.746094 50.308594 25.546875 50.308594 25.34375 C 50.308594 25.136719 50.347656 24.941406 50.425781 24.75 C 50.507812 24.5625 50.617188 24.394531 50.761719 24.25 C 50.90625 24.105469 51.074219 23.996094 51.261719 23.917969 C 51.453125 23.839844 51.648438 23.800781 51.855469 23.800781 C 52.058594 23.800781 52.257812 23.839844 52.445312 23.917969 C 52.632812 23.996094 52.800781 24.105469 52.945312 24.25 C 53.089844 24.394531 53.203125 24.5625 53.28125 24.75 C 53.359375 24.941406 53.398438 25.136719 53.398438 25.34375 C 53.398438 25.546875 53.359375 25.746094 53.28125 25.933594 C 53.203125 26.121094 53.089844 26.289062 52.945312 26.433594 C 52.800781 26.578125 52.632812 26.691406 52.445312 26.769531 C 52.257812 26.84375 52.058594 26.882812 51.855469 26.882812 Z M 51.855469 24.828125 C 51.710938 24.828125 51.589844 24.878906 51.488281 24.980469 C 51.390625 25.078125 51.339844 25.203125 51.339844 25.34375 C 51.339844 25.484375 51.390625 25.605469 51.488281 25.707031 C 51.589844 25.808594 51.710938 25.859375 51.855469 25.859375 C 51.996094 25.859375 52.117188 25.808594 52.21875 25.707031 C 52.316406 25.605469 52.367188 25.484375 52.367188 25.34375 C 52.367188 25.203125 52.316406 25.078125 52.21875 24.980469 C 52.117188 24.878906 51.996094 24.828125 51.855469 24.828125 Z M 51.855469 24.828125 " fill-opacity="1" fill-rule="nonzero"/><path fill="#9333ea" d="M 44.648438 27.914062 L 58.03125 27.914062 L 58.03125 28.941406 L 44.648438 28.941406 Z M 44.648438 27.914062 " fill-opacity="1" fill-rule="nonzero"/><path fill="#9333ea" d="M 77.074219 23.800781 L 79.648438 23.800781 L 79.648438 24.828125 L 77.074219 24.828125 Z M 77.074219 23.800781 " fill-opacity="1" fill-rule="nonzero"/><path fill="#9333ea" d="M 77.074219 25.859375 L 79.648438 25.859375 L 79.648438 26.882812 L 77.074219 26.882812 Z M 77.074219 25.859375 " fill-opacity="1" fill-rule="nonzero"/><path fill="#9333ea" d="M 74.5 22.257812 L 75.53125 22.257812 L 75.53125 28.429688 L 74.5 28.429688 Z M 74.5 22.257812 " fill-opacity="1" fill-rule="nonzero"/><path fill="#9333ea" d="M 64.207031 31 L 62.148438 31 C 62.027344 31 61.921875 30.964844 61.828125 30.886719 C 61.734375 30.8125 61.675781 30.71875 61.648438 30.605469 L 61.050781 28.078125 C 60.757812 27.980469 60.46875 27.863281 60.191406 27.722656 L 57.988281 29.085938 C 57.882812 29.152344 57.777344 29.171875 57.65625 29.160156 C 57.539062 29.148438 57.4375 29.097656 57.355469 29.015625 L 55.894531 27.5625 C 55.8125 27.480469 55.761719 27.375 55.75 27.261719 C 55.734375 27.140625 55.757812 27.027344 55.824219 26.929688 L 57.191406 24.726562 C 57.050781 24.449219 56.933594 24.164062 56.835938 23.867188 L 54.308594 23.273438 C 54.191406 23.246094 54.097656 23.183594 54.023438 23.09375 C 53.949219 22.996094 53.914062 22.890625 53.914062 22.773438 L 53.914062 20.714844 C 53.914062 20.59375 53.949219 20.488281 54.023438 20.394531 C 54.097656 20.304688 54.191406 20.242188 54.308594 20.214844 L 56.835938 19.617188 C 56.933594 19.324219 57.050781 19.039062 57.191406 18.761719 L 55.824219 16.558594 C 55.757812 16.457031 55.734375 16.347656 55.75 16.230469 C 55.761719 16.109375 55.8125 16.007812 55.894531 15.921875 L 57.355469 14.46875 C 57.4375 14.382812 57.539062 14.335938 57.65625 14.320312 C 57.777344 14.308594 57.886719 14.332031 57.988281 14.394531 L 60.191406 15.761719 C 60.46875 15.625 60.757812 15.507812 61.050781 15.410156 L 61.648438 12.882812 C 61.675781 12.769531 61.734375 12.671875 61.828125 12.597656 C 61.921875 12.523438 62.027344 12.488281 62.148438 12.488281 L 64.207031 12.488281 C 64.324219 12.488281 64.433594 12.523438 64.527344 12.597656 C 64.621094 12.671875 64.683594 12.769531 64.710938 12.882812 L 65.304688 15.410156 C 65.597656 15.507812 65.882812 15.625 66.164062 15.761719 L 68.367188 14.394531 C 68.46875 14.332031 68.578125 14.308594 68.699219 14.320312 C 68.816406 14.335938 68.917969 14.382812 69.003906 14.46875 L 70.460938 15.921875 C 70.546875 16.007812 70.59375 16.109375 70.605469 16.230469 C 70.621094 16.347656 70.59375 16.457031 70.535156 16.558594 L 69.164062 18.761719 C 69.304688 19.039062 69.421875 19.324219 69.519531 19.617188 L 72.046875 20.214844 C 72.164062 20.242188 72.257812 20.304688 72.332031 20.394531 C 72.40625 20.488281 72.441406 20.59375 72.441406 20.714844 L 72.441406 22.773438 C 72.441406 22.890625 72.40625 22.996094 72.332031 23.09375 C 72.257812 23.183594 72.164062 23.246094 72.046875 23.273438 L 69.519531 23.867188 C 69.421875 24.164062 69.304688 24.449219 69.164062 24.726562 L 70.535156 26.929688 C 70.59375 27.027344 70.621094 27.140625 70.605469 27.261719 C 70.59375 27.375 70.542969 27.480469 70.460938 27.5625 L 69.003906 29.015625 C 68.917969 29.097656 68.816406 29.148438 68.699219 29.160156 C 68.578125 29.171875 68.46875 29.152344 68.367188 29.085938 L 66.164062 27.722656 C 65.882812 27.863281 65.597656 27.980469 65.304688 28.078125 L 64.710938 30.605469 C 64.683594 30.71875 64.621094 30.8125 64.527344 30.886719 C 64.433594 30.964844 64.324219 31 64.207031 31 Z M 62.558594 29.972656 L 63.796875 29.972656 L 64.371094 27.554688 C 64.417969 27.355469 64.539062 27.230469 64.730469 27.175781 C 65.152344 27.058594 65.550781 26.894531 65.929688 26.683594 C 66.105469 26.585938 66.28125 26.589844 66.453125 26.695312 L 68.566406 28 L 69.441406 27.125 L 68.132812 25.015625 C 68.027344 24.84375 68.023438 24.667969 68.125 24.492188 C 68.335938 24.113281 68.5 23.714844 68.617188 23.296875 C 68.671875 23.101562 68.796875 22.980469 68.996094 22.9375 L 71.414062 22.363281 L 71.414062 21.125 L 68.996094 20.554688 C 68.796875 20.507812 68.671875 20.386719 68.617188 20.191406 C 68.5 19.773438 68.335938 19.375 68.125 18.992188 C 68.023438 18.816406 68.027344 18.644531 68.132812 18.472656 L 69.441406 16.363281 L 68.5625 15.484375 L 66.453125 16.792969 C 66.28125 16.898438 66.105469 16.902344 65.929688 16.800781 C 65.546875 16.589844 65.148438 16.425781 64.730469 16.308594 C 64.535156 16.253906 64.414062 16.128906 64.371094 15.933594 L 63.796875 13.515625 L 62.558594 13.515625 L 61.984375 15.933594 C 61.941406 16.128906 61.816406 16.253906 61.625 16.308594 C 61.207031 16.425781 60.808594 16.589844 60.425781 16.800781 C 60.25 16.902344 60.074219 16.898438 59.902344 16.792969 L 57.792969 15.484375 L 56.914062 16.363281 L 58.21875 18.472656 C 58.328125 18.644531 58.332031 18.816406 58.230469 18.996094 C 58.019531 19.375 57.855469 19.773438 57.738281 20.191406 C 57.683594 20.386719 57.558594 20.507812 57.363281 20.554688 L 54.941406 21.125 L 54.941406 22.363281 L 57.363281 22.9375 C 57.558594 22.980469 57.683594 23.101562 57.738281 23.296875 C 57.855469 23.714844 58.019531 24.113281 58.230469 24.492188 C 58.332031 24.667969 58.328125 24.84375 58.21875 25.015625 L 56.914062 27.125 L 57.792969 28 L 59.902344 26.695312 C 60.074219 26.589844 60.25 26.585938 60.425781 26.683594 C 60.808594 26.894531 61.207031 27.058594 61.625 27.175781 C 61.816406 27.230469 61.941406 27.355469 61.984375 27.554688 Z M 62.558594 29.972656 " fill-opacity="1" fill-rule="nonzero"/><path fill="#9333ea" d="M 63.179688 25.34375 C 62.941406 25.34375 62.707031 25.320312 62.476562 25.273438 C 62.242188 25.226562 62.019531 25.160156 61.796875 25.070312 C 61.582031 24.980469 61.375 24.867188 61.175781 24.734375 C 60.980469 24.605469 60.796875 24.457031 60.628906 24.289062 C 60.460938 24.121094 60.3125 23.941406 60.183594 23.742188 C 60.050781 23.546875 59.941406 23.339844 59.847656 23.121094 C 59.757812 22.902344 59.691406 22.675781 59.644531 22.445312 C 59.597656 22.214844 59.574219 21.980469 59.574219 21.742188 C 59.574219 21.507812 59.597656 21.273438 59.644531 21.042969 C 59.691406 20.808594 59.757812 20.582031 59.847656 20.367188 C 59.941406 20.148438 60.050781 19.941406 60.183594 19.746094 C 60.3125 19.546875 60.460938 19.367188 60.628906 19.199219 C 60.796875 19.03125 60.980469 18.882812 61.175781 18.75 C 61.375 18.617188 61.582031 18.507812 61.796875 18.417969 C 62.019531 18.328125 62.242188 18.257812 62.476562 18.210938 C 62.707031 18.167969 62.941406 18.144531 63.179688 18.144531 C 63.414062 18.144531 63.648438 18.167969 63.882812 18.210938 C 64.113281 18.257812 64.335938 18.328125 64.558594 18.417969 C 64.777344 18.507812 64.980469 18.617188 65.179688 18.75 C 65.375 18.882812 65.558594 19.03125 65.726562 19.199219 C 65.894531 19.367188 66.042969 19.546875 66.171875 19.746094 C 66.304688 19.941406 66.414062 20.148438 66.507812 20.367188 C 66.597656 20.582031 66.664062 20.808594 66.710938 21.042969 C 66.757812 21.273438 66.78125 21.507812 66.78125 21.742188 C 66.78125 21.980469 66.757812 22.214844 66.710938 22.445312 C 66.664062 22.675781 66.59375 22.902344 66.507812 23.121094 C 66.414062 23.339844 66.304688 23.546875 66.171875 23.742188 C 66.039062 23.941406 65.894531 24.121094 65.722656 24.289062 C 65.558594 24.453125 65.375 24.605469 65.179688 24.734375 C 64.980469 24.867188 64.773438 24.976562 64.558594 25.070312 C 64.335938 25.15625 64.113281 25.226562 63.882812 25.273438 C 63.648438 25.320312 63.414062 25.34375 63.179688 25.34375 Z M 63.179688 19.171875 C 62.835938 19.171875 62.507812 19.238281 62.191406 19.367188 C 61.878906 19.5 61.597656 19.6875 61.355469 19.925781 C 61.117188 20.167969 60.933594 20.445312 60.800781 20.757812 C 60.671875 21.074219 60.605469 21.402344 60.605469 21.742188 C 60.605469 22.085938 60.671875 22.414062 60.800781 22.726562 C 60.933594 23.042969 61.117188 23.320312 61.355469 23.5625 C 61.597656 23.804688 61.878906 23.988281 62.191406 24.117188 C 62.507812 24.25 62.835938 24.316406 63.179688 24.316406 C 63.519531 24.316406 63.847656 24.25 64.164062 24.117188 C 64.480469 23.988281 64.757812 23.804688 65 23.5625 C 65.238281 23.320312 65.425781 23.042969 65.558594 22.726562 C 65.6875 22.414062 65.75 22.085938 65.75 21.742188 C 65.75 21.402344 65.683594 21.074219 65.554688 20.757812 C 65.421875 20.445312 65.238281 20.167969 64.996094 19.925781 C 64.757812 19.6875 64.476562 19.5 64.164062 19.367188 C 63.847656 19.238281 63.519531 19.175781 63.179688 19.171875 Z M 63.179688 19.171875 " fill-opacity="1" fill-rule="nonzero"/><path fill="#9333ea" d="M 81.710938 28.941406 L 68.859375 28.941406 L 68.839844 27.914062 L 81.710938 27.914062 Z M 81.710938 28.941406 " fill-opacity="1" fill-rule="nonzero"/><path fill="#9333ea" d="M 53.914062 31 L 54.941406 31 L 54.941406 48.484375 L 53.914062 48.484375 Z M 53.914062 31 " fill-opacity="1" fill-rule="nonzero"/><path fill="#9333ea" d="M 62.296875 43.191406 L 58.695312 39.589844 C 58.59375 39.492188 58.546875 39.371094 58.546875 39.226562 C 58.546875 39.085938 58.59375 38.964844 58.695312 38.863281 L 62.296875 35.265625 L 63.027344 35.992188 L 59.789062 39.226562 L 63.027344 42.464844 Z M 62.296875 43.191406 " fill-opacity="1" fill-rule="nonzero"/><path fill="#9333ea" d="M 64.238281 43.683594 L 67.324219 34.941406 L 68.296875 35.285156 L 65.207031 44.027344 Z M 64.238281 43.683594 " fill-opacity="1" fill-rule="nonzero"/><path fill="#9333ea" d="M 71.261719 43.191406 L 70.535156 42.464844 L 73.773438 39.226562 L 70.535156 35.992188 L 71.261719 35.265625 L 74.863281 38.863281 C 74.96875 38.964844 75.019531 39.085938 75.019531 39.226562 C 75.019531 39.371094 74.96875 39.492188 74.863281 39.589844 Z M 71.261719 43.191406 " fill-opacity="1" fill-rule="nonzero"/><path fill="#9333ea" d="M 46.707031 31 L 48.25 31 L 48.25 32.027344 L 46.707031 32.027344 Z M 46.707031 31 " fill-opacity="1" fill-rule="nonzero"/><path fill="#9333ea" d="M 49.277344 31 L 52.367188 31 L 52.367188 32.027344 L 49.277344 32.027344 Z M 49.277344 31 " fill-opacity="1" fill-rule="nonzero"/><path fill="#9333ea" d="M 46.707031 33.570312 L 48.25 33.570312 L 48.25 34.601562 L 46.707031 34.601562 Z M 46.707031 33.570312 " fill-opacity="1" fill-rule="nonzero"/><path fill="#9333ea" d="M 49.277344 33.570312 L 52.367188 33.570312 L 52.367188 34.601562 L 49.277344 34.601562 Z M 49.277344 33.570312 " fill-opacity="1" fill-rule="nonzero"/><path fill="#9333ea" d="M 46.707031 36.140625 L 48.25 36.140625 L 48.25 37.167969 L 46.707031 37.167969 Z M 46.707031 36.140625 " fill-opacity="1" fill-rule="nonzero"/><path fill="#9333ea" d="M 49.277344 36.140625 L 52.367188 36.140625 L 52.367188 37.167969 L 49.277344 37.167969 Z M 49.277344 36.140625 " fill-opacity="1" fill-rule="nonzero"/><path fill="#9333ea" d="M 46.707031 38.714844 L 48.25 38.714844 L 48.25 39.742188 L 46.707031 39.742188 Z M 46.707031 38.714844 " fill-opacity="1" fill-rule="nonzero"/><path fill="#9333ea" d="M 49.277344 38.714844 L 52.367188 38.714844 L 52.367188 39.742188 L 49.277344 39.742188 Z M 49.277344 38.714844 " fill-opacity="1" fill-rule="nonzero"/><path fill="#9333ea" d="M 46.707031 41.285156 L 48.25 41.285156 L 48.25 42.3125 L 46.707031 42.3125 Z M 46.707031 41.285156 " fill-opacity="1" fill-rule="nonzero"/><path fill="#9333ea" d="M 49.277344 41.285156 L 52.367188 41.285156 L 52.367188 42.3125 L 49.277344 42.3125 Z M 49.277344 41.285156 " fill-opacity="1" fill-rule="nonzero"/><path fill="#9333ea" d="M 49.277344 43.855469 L 52.367188 43.855469 L 52.367188 44.882812 L 49.277344 44.882812 Z M 49.277344 43.855469 " fill-opacity="1" fill-rule="nonzero"/><g clip-path="url(#id3)"><path fill="#9333ea" d="M 63.113281 53.667969 C 62.242188 53.667969 61.371094 53.621094 60.503906 53.523438 C 59.632812 53.425781 58.777344 53.28125 57.921875 53.089844 C 57.070312 52.898438 56.230469 52.660156 55.40625 52.375 C 54.582031 52.085938 53.777344 51.757812 52.988281 51.382812 C 52.199219 51.003906 51.433594 50.589844 50.691406 50.128906 C 49.945312 49.667969 49.230469 49.167969 48.546875 48.628906 C 47.855469 48.085938 47.203125 47.511719 46.578125 46.898438 C 45.957031 46.285156 45.367188 45.640625 44.816406 44.960938 C 44.265625 44.28125 43.75 43.574219 43.277344 42.84375 C 42.804688 42.105469 42.375 41.347656 41.980469 40.566406 C 41.59375 39.78125 41.25 38.976562 40.945312 38.15625 C 40.644531 37.332031 40.390625 36.5 40.183594 35.648438 C 39.972656 34.800781 39.816406 33.941406 39.703125 33.074219 C 39.585938 32.203125 39.523438 31.332031 39.507812 30.457031 C 39.488281 29.585938 39.519531 28.710938 39.601562 27.839844 C 39.679688 26.96875 39.808594 26.101562 39.980469 25.246094 C 40.160156 24.386719 40.382812 23.542969 40.652344 22.710938 C 40.917969 21.875 41.230469 21.0625 41.59375 20.265625 C 41.953125 19.46875 42.355469 18.691406 42.796875 17.941406 C 43.242188 17.1875 43.730469 16.460938 44.253906 15.761719 C 44.777344 15.0625 45.34375 14.394531 45.941406 13.757812 C 46.539062 13.121094 47.171875 12.519531 47.839844 11.953125 C 48.507812 11.390625 49.203125 10.859375 49.925781 10.371094 C 50.648438 9.882812 51.398438 9.4375 52.171875 9.03125 C 52.945312 8.625 53.738281 8.261719 54.554688 7.945312 C 55.367188 7.628906 56.195312 7.355469 57.039062 7.132812 C 57.882812 6.90625 58.738281 6.730469 59.601562 6.597656 C 60.464844 6.46875 61.332031 6.386719 62.207031 6.351562 C 63.078125 6.320312 63.949219 6.332031 64.820312 6.398438 C 65.691406 6.460938 66.558594 6.574219 67.414062 6.730469 C 68.273438 6.890625 69.121094 7.097656 69.957031 7.351562 C 70.792969 7.605469 71.613281 7.902344 72.414062 8.246094 C 73.21875 8.589844 74 8.980469 74.757812 9.410156 C 75.519531 9.84375 76.25 10.316406 76.960938 10.828125 C 77.664062 11.339844 78.34375 11.890625 78.988281 12.480469 C 79.636719 13.066406 80.25 13.691406 80.824219 14.347656 C 81.402344 15.003906 81.941406 15.691406 82.445312 16.40625 C 82.945312 17.121094 83.40625 17.863281 83.824219 18.632812 C 84.246094 19.398438 84.621094 20.1875 84.953125 21 C 85.289062 21.808594 85.574219 22.632812 85.8125 23.472656 C 86.054688 24.316406 86.25 25.167969 86.394531 26.03125 C 86.539062 26.894531 86.640625 27.761719 86.691406 28.632812 C 86.738281 29.507812 86.742188 30.382812 86.695312 31.253906 C 86.652344 32.132812 86.558594 33 86.414062 33.863281 C 86.269531 34.726562 86.082031 35.578125 85.84375 36.421875 C 85.605469 37.265625 85.324219 38.089844 85 38.902344 C 84.667969 39.710938 84.296875 40.503906 83.882812 41.269531 C 83.464844 42.042969 83.007812 42.785156 82.507812 43.503906 C 81.96875 44.285156 81.382812 45.03125 80.75 45.742188 C 80.117188 46.449219 79.445312 47.121094 78.734375 47.75 C 78.019531 48.378906 77.273438 48.960938 76.488281 49.5 C 75.710938 50.039062 74.898438 50.53125 74.058594 50.972656 C 73.214844 51.410156 72.351562 51.800781 71.460938 52.136719 C 70.574219 52.472656 69.671875 52.753906 68.75 52.984375 C 67.824219 53.210938 66.894531 53.378906 65.949219 53.496094 C 65.007812 53.609375 64.066406 53.667969 63.113281 53.667969 Z M 63.113281 7.386719 C 62.089844 7.386719 61.066406 7.457031 60.054688 7.597656 C 59.039062 7.734375 58.035156 7.945312 57.046875 8.21875 C 56.058594 8.496094 55.09375 8.839844 54.152344 9.246094 C 53.210938 9.652344 52.304688 10.125 51.425781 10.65625 C 50.550781 11.1875 49.710938 11.777344 48.914062 12.425781 C 48.117188 13.070312 47.371094 13.769531 46.667969 14.519531 C 45.964844 15.265625 45.316406 16.058594 44.722656 16.898438 C 44.128906 17.738281 43.59375 18.609375 43.117188 19.523438 C 42.644531 20.429688 42.230469 21.371094 41.882812 22.339844 C 41.539062 23.304688 41.257812 24.289062 41.042969 25.292969 C 40.828125 26.300781 40.683594 27.316406 40.609375 28.339844 C 40.535156 29.363281 40.527344 30.390625 40.59375 31.417969 C 40.65625 32.441406 40.789062 33.457031 40.992188 34.46875 C 41.195312 35.472656 41.464844 36.464844 41.800781 37.433594 C 42.136719 38.40625 42.539062 39.347656 43.003906 40.261719 C 43.46875 41.179688 43.996094 42.058594 44.578125 42.902344 C 44.855469 43.300781 45.144531 43.6875 45.441406 44.066406 C 45.742188 44.445312 46.058594 44.8125 46.378906 45.171875 C 46.703125 45.53125 47.039062 45.882812 47.382812 46.21875 C 47.730469 46.554688 48.085938 46.878906 48.453125 47.195312 C 48.820312 47.507812 49.195312 47.8125 49.582031 48.101562 C 49.96875 48.390625 50.363281 48.667969 50.769531 48.933594 C 51.171875 49.199219 51.585938 49.449219 52.003906 49.6875 C 52.421875 49.925781 52.851562 50.148438 53.289062 50.359375 C 53.71875 50.570312 54.164062 50.765625 54.609375 50.949219 C 55.058594 51.132812 55.507812 51.300781 55.964844 51.453125 C 56.421875 51.605469 56.886719 51.746094 57.355469 51.867188 C 57.820312 51.992188 58.289062 52.101562 58.761719 52.191406 C 59.238281 52.289062 59.710938 52.367188 60.191406 52.425781 C 60.671875 52.492188 61.152344 52.539062 61.632812 52.566406 C 62.113281 52.601562 62.59375 52.617188 63.078125 52.617188 C 63.558594 52.617188 64.042969 52.605469 64.523438 52.574219 C 65.007812 52.542969 65.488281 52.5 65.964844 52.4375 C 66.441406 52.375 66.921875 52.296875 67.394531 52.207031 C 67.867188 52.113281 68.335938 52.007812 68.808594 51.886719 C 69.273438 51.765625 69.734375 51.628906 70.191406 51.476562 C 70.652344 51.324219 71.105469 51.160156 71.550781 50.976562 C 72 50.796875 72.441406 50.601562 72.875 50.390625 C 73.3125 50.183594 73.738281 49.960938 74.160156 49.722656 C 74.582031 49.484375 74.992188 49.234375 75.398438 48.972656 C 75.804688 48.707031 76.199219 48.433594 76.585938 48.144531 C 76.972656 47.855469 77.351562 47.554688 77.71875 47.242188 C 78.085938 46.929688 78.445312 46.605469 78.792969 46.269531 C 79.140625 45.929688 79.476562 45.582031 79.800781 45.226562 C 80.125 44.867188 80.4375 44.503906 80.738281 44.125 C 81.039062 43.746094 81.328125 43.359375 81.605469 42.960938 C 81.882812 42.566406 82.144531 42.160156 82.398438 41.746094 C 82.648438 41.335938 82.882812 40.914062 83.109375 40.484375 C 83.332031 40.054688 83.542969 39.621094 83.738281 39.175781 C 83.933594 38.734375 84.113281 38.289062 84.28125 37.835938 C 84.449219 37.382812 84.601562 36.921875 84.738281 36.457031 C 84.875 35.992188 85 35.527344 85.105469 35.054688 C 85.214844 34.582031 85.308594 34.109375 85.386719 33.632812 C 85.460938 33.15625 85.527344 32.671875 85.574219 32.191406 C 85.617188 31.710938 85.652344 31.230469 85.664062 30.746094 C 85.683594 30.261719 85.683594 29.777344 85.667969 29.296875 C 85.652344 28.8125 85.621094 28.332031 85.574219 27.847656 C 85.527344 27.367188 85.46875 26.886719 85.394531 26.410156 C 85.316406 25.929688 85.222656 25.457031 85.113281 24.984375 C 85.007812 24.511719 84.886719 24.046875 84.75 23.582031 C 84.613281 23.121094 84.460938 22.65625 84.296875 22.203125 C 84.128906 21.75 83.949219 21.304688 83.753906 20.863281 C 83.558594 20.417969 83.347656 19.984375 83.125 19.550781 C 82.902344 19.125 82.664062 18.703125 82.414062 18.289062 C 82.164062 17.875 81.902344 17.46875 81.625 17.070312 C 81.351562 16.675781 81.0625 16.289062 80.761719 15.910156 C 80.460938 15.53125 80.148438 15.164062 79.824219 14.804688 C 79.5 14.449219 79.164062 14.101562 78.816406 13.761719 C 78.46875 13.425781 78.113281 13.101562 77.75 12.789062 C 77.378906 12.472656 77.003906 12.171875 76.613281 11.882812 C 76.230469 11.59375 75.835938 11.316406 75.429688 11.050781 C 75.027344 10.789062 74.613281 10.539062 74.191406 10.300781 C 73.769531 10.0625 73.34375 9.839844 72.910156 9.628906 C 72.472656 9.421875 72.035156 9.222656 71.585938 9.042969 C 71.140625 8.859375 70.6875 8.695312 70.230469 8.542969 C 69.769531 8.386719 69.308594 8.25 68.839844 8.128906 C 68.375 8.003906 67.902344 7.894531 67.429688 7.804688 C 66.957031 7.710938 66.480469 7.636719 66 7.574219 C 65.523438 7.511719 65.042969 7.464844 64.5625 7.433594 C 64.078125 7.402344 63.597656 7.386719 63.113281 7.386719 Z M 63.113281 7.386719 " fill-opacity="1" fill-rule="nonzero"/></g><path fill="#9333ea" d="M 44.75 43.152344 L 43.699219 43.152344 L 43.699219 23.164062 C 43.699219 22.957031 43.738281 22.753906 43.816406 22.5625 C 43.898438 22.367188 44.011719 22.195312 44.160156 22.050781 C 44.308594 21.902344 44.476562 21.789062 44.671875 21.707031 C 44.863281 21.625 45.066406 21.585938 45.273438 21.585938 L 54.191406 21.585938 L 54.191406 22.640625 L 45.273438 22.640625 C 45.128906 22.640625 45.003906 22.691406 44.902344 22.792969 C 44.796875 22.898438 44.75 23.019531 44.75 23.164062 Z M 44.75 43.152344 " fill-opacity="1" fill-rule="nonzero"/><path fill="#9333ea" d="M 82.53125 43.152344 L 81.480469 43.152344 L 81.480469 23.164062 C 81.480469 23.019531 81.429688 22.898438 81.328125 22.792969 C 81.226562 22.691406 81.101562 22.640625 80.957031 22.640625 L 72.035156 22.640625 L 72.035156 21.585938 L 80.957031 21.585938 C 81.164062 21.585938 81.363281 21.625 81.558594 21.707031 C 81.75 21.789062 81.921875 21.902344 82.070312 22.050781 C 82.21875 22.195312 82.332031 22.367188 82.414062 22.5625 C 82.488281 22.753906 82.53125 22.957031 82.53125 23.164062 Z M 82.53125 43.152344 " fill-opacity="1" fill-rule="nonzero"/><path fill="#9333ea" d="M 47.371094 26.847656 C 47.164062 26.847656 46.960938 26.808594 46.769531 26.726562 C 46.578125 26.648438 46.40625 26.535156 46.257812 26.382812 C 46.113281 26.238281 46 26.066406 45.917969 25.871094 C 45.835938 25.679688 45.796875 25.476562 45.796875 25.269531 C 45.796875 25.0625 45.835938 24.859375 45.917969 24.664062 C 46 24.472656 46.113281 24.300781 46.257812 24.152344 C 46.40625 24.007812 46.578125 23.894531 46.769531 23.8125 C 46.960938 23.730469 47.164062 23.691406 47.371094 23.691406 C 47.582031 23.691406 47.78125 23.730469 47.972656 23.8125 C 48.167969 23.894531 48.335938 24.007812 48.484375 24.152344 C 48.632812 24.300781 48.746094 24.472656 48.828125 24.664062 C 48.90625 24.859375 48.945312 25.0625 48.945312 25.269531 C 48.945312 25.476562 48.90625 25.679688 48.828125 25.871094 C 48.746094 26.066406 48.632812 26.238281 48.484375 26.382812 C 48.335938 26.535156 48.167969 26.648438 47.972656 26.726562 C 47.78125 26.808594 47.582031 26.847656 47.371094 26.847656 Z M 47.371094 24.742188 C 47.226562 24.742188 47.105469 24.792969 47 24.898438 C 46.898438 25 46.847656 25.125 46.847656 25.269531 C 46.847656 25.414062 46.898438 25.539062 47 25.640625 C 47.105469 25.746094 47.226562 25.792969 47.371094 25.792969 C 47.519531 25.792969 47.640625 25.746094 47.742188 25.640625 C 47.84375 25.539062 47.894531 25.414062 47.894531 25.269531 C 47.894531 25.125 47.84375 25 47.742188 24.898438 C 47.640625 24.792969 47.519531 24.742188 47.371094 24.742188 Z M 47.371094 24.742188 " fill-opacity="1" fill-rule="nonzero"/><path fill="#9333ea" d="M 51.570312 26.847656 C 51.363281 26.847656 51.160156 26.808594 50.96875 26.726562 C 50.773438 26.648438 50.605469 26.535156 50.457031 26.382812 C 50.308594 26.238281 50.195312 26.066406 50.113281 25.871094 C 50.035156 25.679688 49.996094 25.476562 49.996094 25.269531 C 49.996094 25.0625 50.035156 24.859375 50.113281 24.664062 C 50.195312 24.472656 50.308594 24.300781 50.457031 24.152344 C 50.605469 24.007812 50.773438 23.894531 50.96875 23.8125 C 51.160156 23.730469 51.363281 23.691406 51.570312 23.691406 C 51.777344 23.691406 51.980469 23.730469 52.171875 23.8125 C 52.363281 23.894531 52.535156 24.007812 52.683594 24.152344 C 52.832031 24.300781 52.945312 24.472656 53.023438 24.664062 C 53.105469 24.859375 53.144531 25.0625 53.144531 25.269531 C 53.144531 25.476562 53.105469 25.679688 53.023438 25.871094 C 52.945312 26.066406 52.832031 26.238281 52.683594 26.382812 C 52.535156 26.535156 52.363281 26.648438 52.171875 26.726562 C 51.980469 26.808594 51.777344 26.847656 51.570312 26.847656 Z M 51.570312 24.742188 C 51.425781 24.742188 51.300781 24.792969 51.199219 24.898438 C 51.09375 25 51.046875 25.125 51.046875 25.269531 C 51.046875 25.414062 51.09375 25.539062 51.199219 25.640625 C 51.300781 25.746094 51.425781 25.792969 51.570312 25.792969 C 51.714844 25.792969 51.835938 25.746094 51.941406 25.640625 C 52.042969 25.539062 52.09375 25.414062 52.09375 25.269531 C 52.09375 25.125 52.042969 25 51.941406 24.898438 C 51.835938 24.792969 51.714844 24.742188 51.570312 24.742188 Z M 51.570312 24.742188 " fill-opacity="1" fill-rule="nonzero"/><path fill="#9333ea" d="M 44.222656 27.898438 L 57.867188 27.898438 L 57.867188 28.949219 L 44.222656 28.949219 Z M 44.222656 27.898438 " fill-opacity="1" fill-rule="nonzero"/><path fill="#9333ea" d="M 77.285156 23.691406 L 79.90625 23.691406 L 79.90625 24.742188 L 77.285156 24.742188 Z M 77.285156 23.691406 " fill-opacity="1" fill-rule="nonzero"/><path fill="#9333ea" d="M 77.285156 25.792969 L 79.90625 25.792969 L 79.90625 26.847656 L 77.285156 26.847656 Z M 77.285156 25.792969 " fill-opacity="1" fill-rule="nonzero"/><path fill="#9333ea" d="M 74.660156 22.113281 L 75.710938 22.113281 L 75.710938 28.425781 L 74.660156 28.425781 Z M 74.660156 22.113281 " fill-opacity="1" fill-rule="nonzero"/><path fill="#9333ea" d="M 64.164062 31.054688 L 62.066406 31.054688 C 61.941406 31.054688 61.835938 31.015625 61.738281 30.941406 C 61.644531 30.867188 61.582031 30.769531 61.554688 30.648438 L 60.945312 28.066406 C 60.644531 27.964844 60.355469 27.847656 60.070312 27.703125 L 57.824219 29.097656 C 57.71875 29.160156 57.605469 29.1875 57.488281 29.171875 C 57.363281 29.160156 57.261719 29.109375 57.175781 29.023438 L 55.691406 27.539062 C 55.605469 27.453125 55.554688 27.347656 55.539062 27.230469 C 55.527344 27.105469 55.550781 26.996094 55.613281 26.890625 L 57.007812 24.636719 C 56.871094 24.355469 56.75 24.0625 56.652344 23.757812 L 54.074219 23.148438 C 53.953125 23.121094 53.855469 23.0625 53.78125 22.96875 C 53.707031 22.871094 53.667969 22.761719 53.667969 22.640625 L 53.667969 20.535156 C 53.667969 20.414062 53.707031 20.304688 53.78125 20.207031 C 53.855469 20.113281 53.953125 20.054688 54.074219 20.023438 L 56.652344 19.417969 C 56.75 19.113281 56.871094 18.820312 57.007812 18.539062 L 55.613281 16.285156 C 55.550781 16.183594 55.527344 16.066406 55.539062 15.945312 C 55.554688 15.828125 55.605469 15.722656 55.691406 15.632812 L 57.175781 14.148438 C 57.261719 14.0625 57.363281 14.011719 57.488281 13.996094 C 57.605469 13.984375 57.71875 14.007812 57.824219 14.070312 L 60.070312 15.46875 C 60.355469 15.328125 60.644531 15.210938 60.945312 15.109375 L 61.554688 12.527344 C 61.582031 12.40625 61.644531 12.308594 61.738281 12.234375 C 61.835938 12.160156 61.941406 12.121094 62.066406 12.121094 L 64.164062 12.121094 C 64.289062 12.121094 64.394531 12.160156 64.488281 12.234375 C 64.585938 12.308594 64.644531 12.40625 64.675781 12.527344 L 65.28125 15.109375 C 65.585938 15.210938 65.875 15.328125 66.160156 15.46875 L 68.40625 14.070312 C 68.507812 14.007812 68.621094 13.984375 68.742188 13.996094 C 68.863281 14.011719 68.96875 14.0625 69.054688 14.148438 L 70.539062 15.632812 C 70.625 15.722656 70.675781 15.828125 70.691406 15.945312 C 70.703125 16.066406 70.679688 16.183594 70.613281 16.285156 L 69.21875 18.539062 C 69.359375 18.820312 69.480469 19.113281 69.578125 19.417969 L 72.15625 20.023438 C 72.273438 20.054688 72.371094 20.113281 72.445312 20.207031 C 72.523438 20.304688 72.558594 20.414062 72.558594 20.535156 L 72.558594 22.640625 C 72.558594 22.761719 72.523438 22.871094 72.445312 22.96875 C 72.371094 23.0625 72.273438 23.121094 72.15625 23.148438 L 69.578125 23.757812 C 69.480469 24.0625 69.359375 24.355469 69.21875 24.636719 L 70.613281 26.890625 C 70.679688 26.996094 70.703125 27.105469 70.6875 27.230469 C 70.671875 27.347656 70.625 27.453125 70.539062 27.539062 L 69.054688 29.023438 C 68.96875 29.109375 68.863281 29.160156 68.742188 29.171875 C 68.625 29.1875 68.507812 29.160156 68.40625 29.097656 L 66.160156 27.703125 C 65.875 27.847656 65.582031 27.964844 65.28125 28.066406 L 64.675781 30.648438 C 64.644531 30.769531 64.585938 30.867188 64.488281 30.941406 C 64.394531 31.015625 64.285156 31.054688 64.164062 31.054688 Z M 62.480469 30 L 63.75 30 L 64.332031 27.53125 C 64.378906 27.328125 64.5 27.203125 64.699219 27.144531 C 65.125 27.027344 65.535156 26.859375 65.921875 26.640625 C 66.101562 26.539062 66.277344 26.542969 66.453125 26.652344 L 68.605469 27.984375 L 69.5 27.089844 L 68.167969 24.933594 C 68.058594 24.757812 68.058594 24.578125 68.15625 24.398438 C 68.375 24.011719 68.542969 23.605469 68.660156 23.175781 C 68.71875 22.976562 68.84375 22.851562 69.046875 22.804688 L 71.511719 22.222656 L 71.511719 20.953125 L 69.046875 20.371094 C 68.84375 20.324219 68.714844 20.199219 68.660156 20 C 68.539062 19.570312 68.375 19.164062 68.15625 18.777344 C 68.054688 18.597656 68.058594 18.417969 68.167969 18.238281 L 69.5 16.085938 L 68.605469 15.1875 L 66.453125 16.523438 C 66.277344 16.632812 66.101562 16.636719 65.921875 16.53125 C 65.53125 16.316406 65.125 16.148438 64.695312 16.03125 C 64.5 15.972656 64.375 15.847656 64.328125 15.644531 L 63.75 13.171875 L 62.480469 13.171875 L 61.898438 15.644531 C 61.851562 15.847656 61.730469 15.972656 61.53125 16.03125 C 61.105469 16.148438 60.695312 16.320312 60.308594 16.535156 C 60.128906 16.636719 59.949219 16.632812 59.777344 16.523438 L 57.625 15.1875 L 56.726562 16.085938 L 58.058594 18.238281 C 58.171875 18.417969 58.171875 18.597656 58.074219 18.777344 C 57.855469 19.164062 57.6875 19.570312 57.566406 20.003906 C 57.511719 20.199219 57.382812 20.324219 57.183594 20.371094 L 54.71875 20.953125 L 54.71875 22.222656 L 57.183594 22.804688 C 57.382812 22.851562 57.511719 22.976562 57.570312 23.175781 C 57.6875 23.605469 57.855469 24.011719 58.074219 24.398438 C 58.171875 24.578125 58.171875 24.757812 58.0625 24.933594 L 56.730469 27.089844 L 57.625 27.984375 L 59.777344 26.652344 C 59.949219 26.542969 60.128906 26.539062 60.308594 26.640625 C 60.695312 26.855469 61.105469 27.027344 61.53125 27.144531 C 61.730469 27.203125 61.851562 27.328125 61.898438 27.53125 Z M 62.480469 30 " fill-opacity="1" fill-rule="nonzero"/><path fill="#9333ea" d="M 63.113281 25.269531 C 62.875 25.269531 62.632812 25.246094 62.398438 25.199219 C 62.164062 25.152344 61.933594 25.082031 61.710938 24.988281 C 61.488281 24.898438 61.273438 24.78125 61.074219 24.648438 C 60.875 24.515625 60.6875 24.363281 60.519531 24.191406 C 60.34375 24.019531 60.195312 23.835938 60.058594 23.632812 C 59.925781 23.429688 59.8125 23.21875 59.71875 22.996094 C 59.628906 22.773438 59.558594 22.542969 59.511719 22.304688 C 59.464844 22.070312 59.441406 21.828125 59.441406 21.585938 C 59.441406 21.347656 59.464844 21.105469 59.511719 20.871094 C 59.558594 20.632812 59.628906 20.402344 59.71875 20.179688 C 59.8125 19.957031 59.925781 19.746094 60.058594 19.542969 C 60.195312 19.339844 60.34375 19.15625 60.519531 18.984375 C 60.6875 18.8125 60.875 18.660156 61.074219 18.527344 C 61.273438 18.394531 61.488281 18.277344 61.710938 18.1875 C 61.933594 18.09375 62.164062 18.023438 62.398438 17.976562 C 62.632812 17.929688 62.875 17.90625 63.113281 17.90625 C 63.355469 17.90625 63.59375 17.929688 63.832031 17.976562 C 64.066406 18.023438 64.296875 18.09375 64.519531 18.1875 C 64.742188 18.277344 64.953125 18.394531 65.15625 18.527344 C 65.355469 18.660156 65.542969 18.8125 65.710938 18.984375 C 65.882812 19.15625 66.035156 19.339844 66.167969 19.542969 C 66.304688 19.746094 66.414062 19.957031 66.507812 20.179688 C 66.601562 20.402344 66.671875 20.632812 66.71875 20.871094 C 66.765625 21.105469 66.789062 21.347656 66.789062 21.585938 C 66.789062 21.828125 66.765625 22.070312 66.71875 22.304688 C 66.671875 22.542969 66.597656 22.773438 66.507812 22.996094 C 66.414062 23.21875 66.300781 23.429688 66.167969 23.632812 C 66.035156 23.835938 65.882812 24.019531 65.710938 24.191406 C 65.539062 24.359375 65.355469 24.511719 65.152344 24.644531 C 64.953125 24.78125 64.742188 24.898438 64.519531 24.988281 C 64.296875 25.078125 64.066406 25.148438 63.832031 25.195312 C 63.59375 25.242188 63.355469 25.269531 63.113281 25.269531 Z M 63.113281 18.957031 C 62.769531 18.957031 62.433594 19.023438 62.109375 19.15625 C 61.789062 19.289062 61.507812 19.484375 61.257812 19.726562 C 61.011719 19.976562 60.824219 20.257812 60.691406 20.582031 C 60.558594 20.902344 60.488281 21.238281 60.488281 21.585938 C 60.488281 21.933594 60.558594 22.273438 60.691406 22.59375 C 60.824219 22.917969 61.011719 23.199219 61.257812 23.449219 C 61.507812 23.691406 61.789062 23.882812 62.109375 24.019531 C 62.433594 24.152344 62.769531 24.21875 63.113281 24.21875 C 63.460938 24.21875 63.796875 24.152344 64.117188 24.019531 C 64.441406 23.882812 64.722656 23.691406 64.96875 23.449219 C 65.214844 23.199219 65.40625 22.917969 65.539062 22.59375 C 65.671875 22.273438 65.738281 21.933594 65.738281 21.585938 C 65.738281 21.238281 65.671875 20.902344 65.539062 20.582031 C 65.402344 20.257812 65.214844 19.976562 64.96875 19.730469 C 64.722656 19.484375 64.441406 19.292969 64.117188 19.160156 C 63.796875 19.027344 63.460938 18.957031 63.113281 18.957031 Z M 63.113281 18.957031 " fill-opacity="1" fill-rule="nonzero"/><path fill="#9333ea" d="M 82.007812 28.949219 L 68.90625 28.949219 L 68.886719 27.898438 L 82.007812 27.898438 Z M 82.007812 28.949219 " fill-opacity="1" fill-rule="nonzero"/><path fill="#9333ea" d="M 53.667969 31.054688 L 54.71875 31.054688 L 54.71875 48.9375 L 53.667969 48.9375 Z M 53.667969 31.054688 " fill-opacity="1" fill-rule="nonzero"/><path fill="#9333ea" d="M 62.21875 43.523438 L 58.546875 39.84375 C 58.441406 39.738281 58.394531 39.613281 58.394531 39.46875 C 58.394531 39.324219 58.441406 39.199219 58.546875 39.097656 L 62.21875 35.414062 L 62.960938 36.160156 L 59.660156 39.46875 L 62.960938 42.777344 Z M 62.21875 43.523438 " fill-opacity="1" fill-rule="nonzero"/><path fill="#9333ea" d="M 64.191406 44.027344 L 67.34375 35.085938 L 68.335938 35.4375 L 65.183594 44.375 Z M 64.191406 44.027344 " fill-opacity="1" fill-rule="nonzero"/><path fill="#9333ea" d="M 71.355469 43.523438 L 70.613281 42.777344 L 73.917969 39.46875 L 70.613281 36.160156 L 71.355469 35.414062 L 75.03125 39.097656 C 75.132812 39.199219 75.183594 39.324219 75.183594 39.46875 C 75.183594 39.613281 75.132812 39.738281 75.03125 39.84375 Z M 71.355469 43.523438 " fill-opacity="1" fill-rule="nonzero"/><path fill="#9333ea" d="M 46.324219 31.054688 L 47.894531 31.054688 L 47.894531 32.105469 L 46.324219 32.105469 Z M 46.324219 31.054688 " fill-opacity="1" fill-rule="nonzero"/><path fill="#9333ea" d="M 48.945312 31.054688 L 52.09375 31.054688 L 52.09375 32.105469 L 48.945312 32.105469 Z M 48.945312 31.054688 " fill-opacity="1" fill-rule="nonzero"/><path fill="#9333ea" d="M 46.324219 33.683594 L 47.894531 33.683594 L 47.894531 34.738281 L 46.324219 34.738281 Z M 46.324219 33.683594 " fill-opacity="1" fill-rule="nonzero"/><path fill="#9333ea" d="M 48.945312 33.683594 L 52.09375 33.683594 L 52.09375 34.738281 L 48.945312 34.738281 Z M 48.945312 33.683594 " fill-opacity="1" fill-rule="nonzero"/><path fill="#9333ea" d="M 46.324219 36.3125 L 47.894531 36.3125 L 47.894531 37.367188 L 46.324219 37.367188 Z M 46.324219 36.3125 " fill-opacity="1" fill-rule="nonzero"/><path fill="#9333ea" d="M 48.945312 36.3125 L 52.09375 36.3125 L 52.09375 37.367188 L 48.945312 37.367188 Z M 48.945312 36.3125 " fill-opacity="1" fill-rule="nonzero"/><path fill="#9333ea" d="M 46.324219 38.945312 L 47.894531 38.945312 L 47.894531 39.996094 L 46.324219 39.996094 Z M 46.324219 38.945312 " fill-opacity="1" fill-rule="nonzero"/><path fill="#9333ea" d="M 48.945312 38.945312 L 52.09375 38.945312 L 52.09375 39.996094 L 48.945312 39.996094 Z M 48.945312 38.945312 " fill-opacity="1" fill-rule="nonzero"/><path fill="#9333ea" d="M 46.324219 41.574219 L 47.894531 41.574219 L 47.894531 42.625 L 46.324219 42.625 Z M 46.324219 41.574219 " fill-opacity="1" fill-rule="nonzero"/><path fill="#9333ea" d="M 48.945312 41.574219 L 52.09375 41.574219 L 52.09375 42.625 L 48.945312 42.625 Z M 48.945312 41.574219 " fill-opacity="1" fill-rule="nonzero"/><path fill="#9333ea" d="M 48.945312 44.203125 L 52.09375 44.203125 L 52.09375 45.253906 L 48.945312 45.253906 Z M 48.945312 44.203125 " fill-opacity="1" fill-rule="nonzero"/><g fill="#9333ea" fill-opacity="1"><g transform="translate(90.441436, 32.638124)"><g><path d="M 0.953125 -5.140625 C 0.953125 -5.703125 1.019531 -6.238281 1.15625 -6.75 C 1.289062 -7.257812 1.484375 -7.738281 1.734375 -8.1875 C 1.984375 -8.632812 2.285156 -9.039062 2.640625 -9.40625 C 2.992188 -9.769531 3.382812 -10.082031 3.8125 -10.34375 C 4.25 -10.601562 4.722656 -10.804688 5.234375 -10.953125 C 5.742188 -11.097656 6.28125 -11.171875 6.84375 -11.171875 C 7.289062 -11.171875 7.679688 -11.140625 8.015625 -11.078125 C 8.359375 -11.015625 8.65625 -10.9375 8.90625 -10.84375 C 9.15625 -10.757812 9.363281 -10.664062 9.53125 -10.5625 C 9.707031 -10.457031 9.847656 -10.359375 9.953125 -10.265625 C 9.953125 -10.265625 9.953125 -10.242188 9.953125 -10.203125 C 9.953125 -10.128906 9.957031 -9.988281 9.96875 -9.78125 C 9.976562 -9.582031 9.992188 -9.359375 10.015625 -9.109375 C 10.035156 -8.859375 10.050781 -8.601562 10.0625 -8.34375 C 10.070312 -8.09375 10.078125 -7.875 10.078125 -7.6875 C 10.078125 -7.65625 10.066406 -7.617188 10.046875 -7.578125 C 10.023438 -7.546875 9.972656 -7.53125 9.890625 -7.53125 C 9.847656 -7.53125 9.796875 -7.535156 9.734375 -7.546875 C 9.617188 -7.578125 9.476562 -7.644531 9.3125 -7.75 C 9.15625 -7.863281 8.96875 -7.976562 8.75 -8.09375 C 8.539062 -8.21875 8.300781 -8.328125 8.03125 -8.421875 C 7.769531 -8.515625 7.484375 -8.5625 7.171875 -8.5625 C 6.753906 -8.5625 6.375 -8.476562 6.03125 -8.3125 C 5.6875 -8.15625 5.394531 -7.929688 5.15625 -7.640625 C 4.925781 -7.347656 4.742188 -7.003906 4.609375 -6.609375 C 4.472656 -6.210938 4.40625 -5.773438 4.40625 -5.296875 C 4.40625 -4.878906 4.453125 -4.484375 4.546875 -4.109375 C 4.640625 -3.734375 4.773438 -3.398438 4.953125 -3.109375 C 5.140625 -2.828125 5.367188 -2.601562 5.640625 -2.4375 C 5.921875 -2.269531 6.25 -2.1875 6.625 -2.1875 C 6.90625 -2.1875 7.15625 -2.195312 7.375 -2.21875 C 7.601562 -2.238281 7.8125 -2.269531 8 -2.3125 C 8.195312 -2.351562 8.390625 -2.410156 8.578125 -2.484375 C 8.765625 -2.566406 8.960938 -2.664062 9.171875 -2.78125 C 9.179688 -2.789062 9.207031 -2.796875 9.25 -2.796875 C 9.28125 -2.796875 9.300781 -2.78125 9.3125 -2.75 C 9.332031 -2.71875 9.34375 -2.660156 9.34375 -2.578125 L 9.34375 -1.671875 C 9.34375 -1.503906 9.335938 -1.335938 9.328125 -1.171875 C 9.328125 -1.015625 9.328125 -0.875 9.328125 -0.75 C 9.328125 -0.625 9.320312 -0.519531 9.3125 -0.4375 C 9.3125 -0.351562 9.3125 -0.3125 9.3125 -0.3125 C 9.070312 -0.164062 8.816406 -0.046875 8.546875 0.046875 C 8.285156 0.140625 8.015625 0.210938 7.734375 0.265625 C 7.453125 0.316406 7.171875 0.347656 6.890625 0.359375 C 6.609375 0.378906 6.332031 0.390625 6.0625 0.390625 C 5.351562 0.390625 4.6875 0.253906 4.0625 -0.015625 C 3.4375 -0.285156 2.894531 -0.660156 2.4375 -1.140625 C 1.976562 -1.628906 1.613281 -2.210938 1.34375 -2.890625 C 1.082031 -3.578125 0.953125 -4.328125 0.953125 -5.140625 Z M 0.953125 -5.140625 "/></g></g></g><g fill="#9333ea" fill-opacity="1"><g transform="translate(100.283938, 32.638124)"><g><path d="M 5.09375 0.390625 C 4.382812 0.390625 3.757812 0.273438 3.21875 0.046875 C 2.675781 -0.179688 2.222656 -0.488281 1.859375 -0.875 C 1.492188 -1.269531 1.21875 -1.71875 1.03125 -2.21875 C 0.851562 -2.726562 0.765625 -3.253906 0.765625 -3.796875 C 0.765625 -4.335938 0.851562 -4.851562 1.03125 -5.34375 C 1.207031 -5.832031 1.453125 -6.269531 1.765625 -6.65625 C 2.085938 -7.039062 2.472656 -7.363281 2.921875 -7.625 C 3.367188 -7.894531 3.859375 -8.070312 4.390625 -8.15625 C 4.472656 -8.164062 4.515625 -8.1875 4.515625 -8.21875 C 4.515625 -8.269531 4.507812 -8.316406 4.5 -8.359375 C 4.488281 -8.410156 4.484375 -8.457031 4.484375 -8.5 C 4.484375 -8.550781 4.492188 -8.585938 4.515625 -8.609375 C 4.535156 -8.628906 4.554688 -8.640625 4.578125 -8.640625 C 5.546875 -8.640625 6.367188 -8.53125 7.046875 -8.3125 C 7.734375 -8.09375 8.285156 -7.789062 8.703125 -7.40625 C 9.128906 -7.03125 9.4375 -6.582031 9.625 -6.0625 C 9.820312 -5.539062 9.921875 -4.984375 9.921875 -4.390625 C 9.921875 -3.640625 9.796875 -2.96875 9.546875 -2.375 C 9.296875 -1.78125 8.945312 -1.273438 8.5 -0.859375 C 8.0625 -0.453125 7.550781 -0.144531 6.96875 0.0625 C 6.382812 0.28125 5.757812 0.390625 5.09375 0.390625 Z M 3.6875 -3.875 C 3.6875 -3.601562 3.710938 -3.332031 3.765625 -3.0625 C 3.828125 -2.789062 3.925781 -2.546875 4.0625 -2.328125 C 4.195312 -2.117188 4.375 -1.945312 4.59375 -1.8125 C 4.8125 -1.675781 5.082031 -1.609375 5.40625 -1.609375 C 5.644531 -1.617188 5.847656 -1.671875 6.015625 -1.765625 C 6.191406 -1.859375 6.34375 -1.976562 6.46875 -2.125 C 6.59375 -2.269531 6.695312 -2.4375 6.78125 -2.625 C 6.875 -2.8125 6.941406 -3.003906 6.984375 -3.203125 C 7.035156 -3.410156 7.070312 -3.609375 7.09375 -3.796875 C 7.113281 -3.992188 7.125 -4.171875 7.125 -4.328125 C 7.125 -4.585938 7.082031 -4.84375 7 -5.09375 C 6.925781 -5.351562 6.8125 -5.578125 6.65625 -5.765625 C 6.5 -5.960938 6.304688 -6.117188 6.078125 -6.234375 C 5.859375 -6.359375 5.601562 -6.421875 5.3125 -6.421875 C 5.007812 -6.421875 4.753906 -6.328125 4.546875 -6.140625 C 4.335938 -5.960938 4.171875 -5.742188 4.046875 -5.484375 C 3.921875 -5.222656 3.828125 -4.945312 3.765625 -4.65625 C 3.710938 -4.363281 3.6875 -4.101562 3.6875 -3.875 Z M 3.6875 -3.875 "/></g></g></g><g fill="#9333ea" fill-opacity="1"><g transform="translate(110.27096, 32.638124)"><g><path d="M 6.671875 -4.328125 C 6.679688 -4.492188 6.695312 -4.664062 6.71875 -4.84375 C 6.738281 -5.019531 6.757812 -5.203125 6.78125 -5.390625 C 6.664062 -5.691406 6.5 -5.9375 6.28125 -6.125 C 6.070312 -6.320312 5.804688 -6.421875 5.484375 -6.421875 C 5.171875 -6.421875 4.90625 -6.328125 4.6875 -6.140625 C 4.46875 -5.960938 4.289062 -5.742188 4.15625 -5.484375 C 4.03125 -5.222656 3.9375 -4.945312 3.875 -4.65625 C 3.820312 -4.363281 3.796875 -4.101562 3.796875 -3.875 C 3.796875 -3.601562 3.8125 -3.332031 3.84375 -3.0625 C 3.875 -2.789062 3.925781 -2.546875 4 -2.328125 C 4.070312 -2.117188 4.171875 -1.945312 4.296875 -1.8125 C 4.421875 -1.675781 4.570312 -1.609375 4.75 -1.609375 C 5.195312 -1.617188 5.5625 -1.71875 5.84375 -1.90625 C 6.125 -2.09375 6.347656 -2.320312 6.515625 -2.59375 Z M 9.328125 -0.765625 C 9.328125 -0.753906 9.320312 -0.742188 9.3125 -0.734375 C 9.3125 -0.722656 9.3125 -0.710938 9.3125 -0.703125 C 9.3125 -0.671875 9.3125 -0.644531 9.3125 -0.625 C 9.320312 -0.613281 9.328125 -0.601562 9.328125 -0.59375 C 9.328125 -0.550781 9.3125 -0.515625 9.28125 -0.484375 C 9.25 -0.453125 9.160156 -0.421875 9.015625 -0.390625 L 6.984375 0.28125 C 6.929688 0.289062 6.859375 0.3125 6.765625 0.34375 C 6.671875 0.375 6.582031 0.390625 6.5 0.390625 C 6.425781 0.390625 6.363281 0.367188 6.3125 0.328125 C 6.257812 0.296875 6.234375 0.234375 6.234375 0.140625 C 6.234375 0.046875 6.234375 -0.0234375 6.234375 -0.078125 C 6.234375 -0.128906 6.234375 -0.175781 6.234375 -0.21875 C 6.242188 -0.269531 6.25 -0.320312 6.25 -0.375 C 6.257812 -0.4375 6.269531 -0.515625 6.28125 -0.609375 C 5.90625 -0.304688 5.515625 -0.0664062 5.109375 0.109375 C 4.703125 0.296875 4.273438 0.390625 3.828125 0.390625 C 3.347656 0.390625 2.914062 0.273438 2.53125 0.046875 C 2.15625 -0.179688 1.835938 -0.488281 1.578125 -0.875 C 1.316406 -1.257812 1.117188 -1.703125 0.984375 -2.203125 C 0.859375 -2.703125 0.796875 -3.222656 0.796875 -3.765625 C 0.796875 -4.472656 0.910156 -5.117188 1.140625 -5.703125 C 1.367188 -6.285156 1.679688 -6.78125 2.078125 -7.1875 C 2.472656 -7.601562 2.929688 -7.921875 3.453125 -8.140625 C 3.984375 -8.367188 4.546875 -8.484375 5.140625 -8.484375 C 5.460938 -8.484375 5.769531 -8.398438 6.0625 -8.234375 C 6.351562 -8.066406 6.628906 -7.851562 6.890625 -7.59375 C 6.898438 -7.84375 6.914062 -8.113281 6.9375 -8.40625 C 6.957031 -8.695312 6.976562 -8.992188 7 -9.296875 C 7.019531 -9.597656 7.039062 -9.894531 7.0625 -10.1875 C 7.082031 -10.476562 7.097656 -10.742188 7.109375 -10.984375 C 7.109375 -11.035156 7.125 -11.070312 7.15625 -11.09375 C 7.195312 -11.125 7.285156 -11.160156 7.421875 -11.203125 L 9.546875 -11.703125 C 9.609375 -11.710938 9.679688 -11.734375 9.765625 -11.765625 C 9.859375 -11.804688 9.953125 -11.828125 10.046875 -11.828125 C 10.109375 -11.828125 10.164062 -11.8125 10.21875 -11.78125 C 10.28125 -11.75 10.3125 -11.691406 10.3125 -11.609375 C 10.3125 -11.597656 10.3125 -11.578125 10.3125 -11.546875 C 10.3125 -11.515625 10.3125 -11.492188 10.3125 -11.484375 Z M 9.328125 -0.765625 "/></g></g></g><g fill="#9333ea" fill-opacity="1"><g transform="translate(120.379681, 32.638124)"><g><path d="M 5.453125 -8.484375 C 5.929688 -8.484375 6.363281 -8.394531 6.75 -8.21875 C 7.144531 -8.039062 7.484375 -7.804688 7.765625 -7.515625 C 8.046875 -7.234375 8.265625 -6.914062 8.421875 -6.5625 C 8.578125 -6.207031 8.65625 -5.847656 8.65625 -5.484375 C 8.65625 -5.171875 8.554688 -4.851562 8.359375 -4.53125 C 8.171875 -4.21875 7.898438 -3.9375 7.546875 -3.6875 C 7.203125 -3.4375 6.785156 -3.234375 6.296875 -3.078125 C 5.804688 -2.921875 5.269531 -2.84375 4.6875 -2.84375 C 4.382812 -2.84375 4.066406 -2.867188 3.734375 -2.921875 C 3.753906 -2.703125 3.816406 -2.515625 3.921875 -2.359375 C 4.023438 -2.203125 4.160156 -2.070312 4.328125 -1.96875 C 4.492188 -1.875 4.675781 -1.800781 4.875 -1.75 C 5.082031 -1.707031 5.296875 -1.6875 5.515625 -1.6875 C 5.753906 -1.6875 5.988281 -1.707031 6.21875 -1.75 C 6.445312 -1.789062 6.664062 -1.84375 6.875 -1.90625 C 7.082031 -1.976562 7.28125 -2.054688 7.46875 -2.140625 C 7.664062 -2.234375 7.847656 -2.320312 8.015625 -2.40625 C 8.054688 -2.414062 8.09375 -2.425781 8.125 -2.4375 C 8.164062 -2.445312 8.203125 -2.453125 8.234375 -2.453125 C 8.234375 -2.453125 8.226562 -2.410156 8.21875 -2.328125 C 8.21875 -2.242188 8.21875 -2.128906 8.21875 -1.984375 C 8.21875 -1.835938 8.21875 -1.660156 8.21875 -1.453125 C 8.21875 -1.242188 8.210938 -1.015625 8.203125 -0.765625 C 8.222656 -0.734375 8.234375 -0.703125 8.234375 -0.671875 C 8.242188 -0.648438 8.25 -0.632812 8.25 -0.625 C 8.25 -0.5625 8.191406 -0.492188 8.078125 -0.421875 C 7.960938 -0.347656 7.816406 -0.273438 7.640625 -0.203125 C 7.460938 -0.128906 7.253906 -0.0546875 7.015625 0.015625 C 6.785156 0.0859375 6.550781 0.148438 6.3125 0.203125 C 6.082031 0.265625 5.851562 0.3125 5.625 0.34375 C 5.40625 0.375 5.210938 0.390625 5.046875 0.390625 C 4.492188 0.390625 3.957031 0.296875 3.4375 0.109375 C 2.925781 -0.078125 2.472656 -0.347656 2.078125 -0.703125 C 1.679688 -1.054688 1.363281 -1.488281 1.125 -2 C 0.882812 -2.507812 0.765625 -3.082031 0.765625 -3.71875 C 0.765625 -4.375 0.878906 -4.992188 1.109375 -5.578125 C 1.335938 -6.160156 1.65625 -6.664062 2.0625 -7.09375 C 2.476562 -7.53125 2.972656 -7.867188 3.546875 -8.109375 C 4.117188 -8.359375 4.753906 -8.484375 5.453125 -8.484375 Z M 5.359375 -6.46875 C 5.148438 -6.46875 4.957031 -6.421875 4.78125 -6.328125 C 4.601562 -6.242188 4.441406 -6.117188 4.296875 -5.953125 C 4.148438 -5.785156 4.023438 -5.585938 3.921875 -5.359375 C 3.816406 -5.128906 3.734375 -4.875 3.671875 -4.59375 C 4.191406 -4.6875 4.625 -4.78125 4.96875 -4.875 C 5.3125 -4.976562 5.585938 -5.082031 5.796875 -5.1875 C 6.003906 -5.289062 6.148438 -5.394531 6.234375 -5.5 C 6.316406 -5.601562 6.359375 -5.703125 6.359375 -5.796875 C 6.359375 -5.890625 6.320312 -5.976562 6.25 -6.0625 C 6.1875 -6.144531 6.101562 -6.210938 6 -6.265625 C 5.90625 -6.328125 5.796875 -6.375 5.671875 -6.40625 C 5.554688 -6.445312 5.453125 -6.46875 5.359375 -6.46875 Z M 5.359375 -6.46875 "/></g></g></g><g fill="#9333ea" fill-opacity="1"><g transform="translate(129.066032, 32.638124)"><g/></g></g><g fill="#9333ea" fill-opacity="1"><g transform="translate(132.412787, 32.638124)"><g><path d="M 1.921875 -0.09375 C 1.816406 -0.125 1.75 -0.164062 1.71875 -0.21875 C 1.6875 -0.269531 1.671875 -0.328125 1.671875 -0.390625 C 1.671875 -0.410156 1.671875 -0.421875 1.671875 -0.421875 C 1.671875 -0.429688 1.671875 -0.441406 1.671875 -0.453125 C 1.710938 -1.003906 1.753906 -1.578125 1.796875 -2.171875 C 1.847656 -2.773438 1.898438 -3.382812 1.953125 -4 C 2.015625 -4.625 2.070312 -5.242188 2.125 -5.859375 C 2.1875 -6.484375 2.242188 -7.085938 2.296875 -7.671875 C 2.273438 -7.671875 2.21875 -7.65625 2.125 -7.625 C 2.03125 -7.59375 1.921875 -7.554688 1.796875 -7.515625 C 1.679688 -7.484375 1.5625 -7.453125 1.4375 -7.421875 C 1.3125 -7.390625 1.210938 -7.375 1.140625 -7.375 C 1.078125 -7.375 1.03125 -7.394531 1 -7.4375 C 0.96875 -7.488281 0.953125 -7.546875 0.953125 -7.609375 C 0.953125 -7.660156 0.960938 -7.707031 0.984375 -7.75 C 1.117188 -8.144531 1.257812 -8.515625 1.40625 -8.859375 C 1.550781 -9.203125 1.695312 -9.554688 1.84375 -9.921875 C 2.226562 -10.128906 2.628906 -10.304688 3.046875 -10.453125 C 3.460938 -10.609375 3.878906 -10.738281 4.296875 -10.84375 C 4.722656 -10.945312 5.144531 -11.023438 5.5625 -11.078125 C 5.988281 -11.140625 6.398438 -11.171875 6.796875 -11.171875 C 7.347656 -11.171875 7.867188 -11.109375 8.359375 -10.984375 C 8.847656 -10.867188 9.273438 -10.691406 9.640625 -10.453125 C 10.003906 -10.222656 10.289062 -9.925781 10.5 -9.5625 C 10.707031 -9.207031 10.8125 -8.789062 10.8125 -8.3125 C 10.8125 -8.101562 10.765625 -7.898438 10.671875 -7.703125 C 10.585938 -7.515625 10.472656 -7.332031 10.328125 -7.15625 C 10.179688 -6.988281 10.019531 -6.828125 9.84375 -6.671875 C 9.664062 -6.523438 9.488281 -6.390625 9.3125 -6.265625 C 9.5625 -6.085938 9.78125 -5.925781 9.96875 -5.78125 C 10.164062 -5.632812 10.332031 -5.484375 10.46875 -5.328125 C 10.601562 -5.171875 10.707031 -4.992188 10.78125 -4.796875 C 10.851562 -4.609375 10.890625 -4.375 10.890625 -4.09375 C 10.890625 -3.664062 10.8125 -3.257812 10.65625 -2.875 C 10.507812 -2.488281 10.304688 -2.128906 10.046875 -1.796875 C 9.785156 -1.460938 9.476562 -1.160156 9.125 -0.890625 C 8.769531 -0.617188 8.378906 -0.390625 7.953125 -0.203125 C 7.535156 -0.015625 7.09375 0.128906 6.625 0.234375 C 6.164062 0.335938 5.703125 0.390625 5.234375 0.390625 C 5.054688 0.390625 4.820312 0.367188 4.53125 0.328125 C 4.25 0.296875 3.945312 0.253906 3.625 0.203125 C 3.3125 0.160156 3 0.109375 2.6875 0.046875 C 2.382812 -0.00390625 2.128906 -0.0507812 1.921875 -0.09375 Z M 5.4375 -8.4375 C 5.332031 -7.84375 5.25 -7.238281 5.1875 -6.625 C 5.125 -6.007812 5.066406 -5.410156 5.015625 -4.828125 C 4.960938 -4.242188 4.921875 -3.691406 4.890625 -3.171875 C 4.859375 -2.648438 4.820312 -2.179688 4.78125 -1.765625 C 4.988281 -1.765625 5.207031 -1.773438 5.4375 -1.796875 C 5.675781 -1.828125 5.910156 -1.867188 6.140625 -1.921875 C 6.378906 -1.984375 6.609375 -2.054688 6.828125 -2.140625 C 7.046875 -2.234375 7.238281 -2.34375 7.40625 -2.46875 C 7.570312 -2.601562 7.707031 -2.757812 7.8125 -2.9375 C 7.914062 -3.113281 7.96875 -3.320312 7.96875 -3.5625 C 7.96875 -3.695312 7.921875 -3.816406 7.828125 -3.921875 C 7.742188 -4.035156 7.632812 -4.128906 7.5 -4.203125 C 7.363281 -4.285156 7.210938 -4.351562 7.046875 -4.40625 C 6.890625 -4.46875 6.734375 -4.515625 6.578125 -4.546875 C 6.421875 -4.578125 6.28125 -4.597656 6.15625 -4.609375 C 6.03125 -4.628906 5.929688 -4.644531 5.859375 -4.65625 C 5.796875 -4.664062 5.753906 -4.691406 5.734375 -4.734375 C 5.710938 -4.773438 5.703125 -4.828125 5.703125 -4.890625 C 5.703125 -4.953125 5.738281 -5.050781 5.8125 -5.1875 C 5.894531 -5.320312 6.007812 -5.503906 6.15625 -5.734375 L 6.46875 -6.234375 C 6.601562 -6.285156 6.75 -6.347656 6.90625 -6.421875 C 7.070312 -6.503906 7.222656 -6.59375 7.359375 -6.6875 C 7.492188 -6.789062 7.609375 -6.90625 7.703125 -7.03125 C 7.796875 -7.15625 7.84375 -7.289062 7.84375 -7.4375 C 7.84375 -7.851562 7.75 -8.171875 7.5625 -8.390625 C 7.382812 -8.609375 7.128906 -8.71875 6.796875 -8.71875 C 6.410156 -8.71875 5.957031 -8.625 5.4375 -8.4375 Z M 5.4375 -8.4375 "/></g></g></g><g fill="#9333ea" fill-opacity="1"><g transform="translate(143.297347, 32.638124)"><g><path d="M 8.953125 -0.9375 C 8.941406 -0.769531 8.921875 -0.65625 8.890625 -0.59375 C 8.867188 -0.53125 8.8125 -0.488281 8.71875 -0.46875 C 8.289062 -0.34375 7.84375 -0.21875 7.375 -0.09375 C 6.90625 0.0195312 6.453125 0.179688 6.015625 0.390625 C 5.992188 0.390625 5.96875 0.390625 5.9375 0.390625 C 5.894531 0.390625 5.867188 0.378906 5.859375 0.359375 C 5.859375 0.335938 5.859375 0.316406 5.859375 0.296875 C 5.859375 0.285156 5.859375 0.265625 5.859375 0.234375 C 5.859375 0.210938 5.863281 0.164062 5.875 0.09375 C 5.882812 0.03125 5.898438 -0.0546875 5.921875 -0.171875 C 5.941406 -0.296875 5.96875 -0.460938 6 -0.671875 C 5.425781 -0.296875 4.921875 -0.0234375 4.484375 0.140625 C 4.046875 0.304688 3.65625 0.390625 3.3125 0.390625 C 2.46875 0.390625 1.847656 0.1875 1.453125 -0.21875 C 1.066406 -0.625 0.875 -1.234375 0.875 -2.046875 C 0.875 -2.191406 0.875 -2.34375 0.875 -2.5 C 0.882812 -2.65625 0.90625 -2.8125 0.9375 -2.96875 C 0.988281 -3.570312 1.035156 -4.085938 1.078125 -4.515625 C 1.117188 -4.941406 1.148438 -5.304688 1.171875 -5.609375 C 1.203125 -5.910156 1.222656 -6.15625 1.234375 -6.34375 C 1.253906 -6.53125 1.269531 -6.6875 1.28125 -6.8125 C 1.300781 -6.9375 1.3125 -7.039062 1.3125 -7.125 C 1.320312 -7.207031 1.332031 -7.289062 1.34375 -7.375 C 1.363281 -7.539062 1.382812 -7.65625 1.40625 -7.71875 C 1.425781 -7.78125 1.484375 -7.820312 1.578125 -7.84375 C 1.816406 -7.894531 2.039062 -7.9375 2.25 -7.96875 C 2.46875 -8.007812 2.679688 -8.050781 2.890625 -8.09375 C 3.097656 -8.132812 3.3125 -8.179688 3.53125 -8.234375 C 3.75 -8.285156 3.984375 -8.347656 4.234375 -8.421875 C 4.242188 -8.421875 4.253906 -8.421875 4.265625 -8.421875 C 4.273438 -8.421875 4.285156 -8.421875 4.296875 -8.421875 C 4.347656 -8.421875 4.375 -8.398438 4.375 -8.359375 C 4.351562 -8.179688 4.335938 -8.015625 4.328125 -7.859375 C 4.316406 -7.710938 4.300781 -7.554688 4.28125 -7.390625 C 4.269531 -7.234375 4.253906 -7.0625 4.234375 -6.875 C 4.210938 -6.695312 4.1875 -6.488281 4.15625 -6.25 C 4.132812 -6.007812 4.109375 -5.726562 4.078125 -5.40625 C 4.046875 -5.09375 4.003906 -4.734375 3.953125 -4.328125 C 3.921875 -4.015625 3.890625 -3.707031 3.859375 -3.40625 C 3.828125 -3.101562 3.8125 -2.828125 3.8125 -2.578125 C 3.8125 -2.429688 3.820312 -2.296875 3.84375 -2.171875 C 3.863281 -2.054688 3.898438 -1.957031 3.953125 -1.875 C 4.003906 -1.789062 4.070312 -1.722656 4.15625 -1.671875 C 4.25 -1.628906 4.363281 -1.609375 4.5 -1.609375 C 4.601562 -1.609375 4.742188 -1.628906 4.921875 -1.671875 C 5.109375 -1.722656 5.289062 -1.804688 5.46875 -1.921875 C 5.65625 -2.046875 5.816406 -2.207031 5.953125 -2.40625 C 6.097656 -2.601562 6.179688 -2.851562 6.203125 -3.15625 C 6.234375 -3.65625 6.265625 -4.070312 6.296875 -4.40625 C 6.328125 -4.738281 6.347656 -5.019531 6.359375 -5.25 C 6.378906 -5.488281 6.394531 -5.6875 6.40625 -5.84375 C 6.425781 -6 6.441406 -6.148438 6.453125 -6.296875 C 6.472656 -6.441406 6.488281 -6.59375 6.5 -6.75 C 6.507812 -6.914062 6.519531 -7.125 6.53125 -7.375 C 6.539062 -7.539062 6.554688 -7.65625 6.578125 -7.71875 C 6.609375 -7.78125 6.664062 -7.820312 6.75 -7.84375 C 7.21875 -7.9375 7.691406 -8.03125 8.171875 -8.125 C 8.648438 -8.21875 9.117188 -8.335938 9.578125 -8.484375 C 9.617188 -8.484375 9.644531 -8.476562 9.65625 -8.46875 C 9.664062 -8.457031 9.671875 -8.4375 9.671875 -8.40625 Z M 8.953125 -0.9375 "/></g></g></g><g fill="#9333ea" fill-opacity="1"><g transform="translate(153.033362, 32.638124)"><g><path d="M 6.671875 -4.328125 C 6.679688 -4.492188 6.695312 -4.664062 6.71875 -4.84375 C 6.738281 -5.019531 6.757812 -5.203125 6.78125 -5.390625 C 6.664062 -5.691406 6.5 -5.9375 6.28125 -6.125 C 6.070312 -6.320312 5.804688 -6.421875 5.484375 -6.421875 C 5.171875 -6.421875 4.90625 -6.328125 4.6875 -6.140625 C 4.46875 -5.960938 4.289062 -5.742188 4.15625 -5.484375 C 4.03125 -5.222656 3.9375 -4.945312 3.875 -4.65625 C 3.820312 -4.363281 3.796875 -4.101562 3.796875 -3.875 C 3.796875 -3.601562 3.8125 -3.332031 3.84375 -3.0625 C 3.875 -2.789062 3.925781 -2.546875 4 -2.328125 C 4.070312 -2.117188 4.171875 -1.945312 4.296875 -1.8125 C 4.421875 -1.675781 4.570312 -1.609375 4.75 -1.609375 C 5.195312 -1.617188 5.5625 -1.71875 5.84375 -1.90625 C 6.125 -2.09375 6.347656 -2.320312 6.515625 -2.59375 Z M 9.328125 -0.765625 C 9.328125 -0.753906 9.320312 -0.742188 9.3125 -0.734375 C 9.3125 -0.722656 9.3125 -0.710938 9.3125 -0.703125 C 9.3125 -0.671875 9.3125 -0.644531 9.3125 -0.625 C 9.320312 -0.613281 9.328125 -0.601562 9.328125 -0.59375 C 9.328125 -0.550781 9.3125 -0.515625 9.28125 -0.484375 C 9.25 -0.453125 9.160156 -0.421875 9.015625 -0.390625 L 6.984375 0.28125 C 6.929688 0.289062 6.859375 0.3125 6.765625 0.34375 C 6.671875 0.375 6.582031 0.390625 6.5 0.390625 C 6.425781 0.390625 6.363281 0.367188 6.3125 0.328125 C 6.257812 0.296875 6.234375 0.234375 6.234375 0.140625 C 6.234375 0.046875 6.234375 -0.0234375 6.234375 -0.078125 C 6.234375 -0.128906 6.234375 -0.175781 6.234375 -0.21875 C 6.242188 -0.269531 6.25 -0.320312 6.25 -0.375 C 6.257812 -0.4375 6.269531 -0.515625 6.28125 -0.609375 C 5.90625 -0.304688 5.515625 -0.0664062 5.109375 0.109375 C 4.703125 0.296875 4.273438 0.390625 3.828125 0.390625 C 3.347656 0.390625 2.914062 0.273438 2.53125 0.046875 C 2.15625 -0.179688 1.835938 -0.488281 1.578125 -0.875 C 1.316406 -1.257812 1.117188 -1.703125 0.984375 -2.203125 C 0.859375 -2.703125 0.796875 -3.222656 0.796875 -3.765625 C 0.796875 -4.472656 0.910156 -5.117188 1.140625 -5.703125 C 1.367188 -6.285156 1.679688 -6.78125 2.078125 -7.1875 C 2.472656 -7.601562 2.929688 -7.921875 3.453125 -8.140625 C 3.984375 -8.367188 4.546875 -8.484375 5.140625 -8.484375 C 5.460938 -8.484375 5.769531 -8.398438 6.0625 -8.234375 C 6.351562 -8.066406 6.628906 -7.851562 6.890625 -7.59375 C 6.898438 -7.84375 6.914062 -8.113281 6.9375 -8.40625 C 6.957031 -8.695312 6.976562 -8.992188 7 -9.296875 C 7.019531 -9.597656 7.039062 -9.894531 7.0625 -10.1875 C 7.082031 -10.476562 7.097656 -10.742188 7.109375 -10.984375 C 7.109375 -11.035156 7.125 -11.070312 7.15625 -11.09375 C 7.195312 -11.125 7.285156 -11.160156 7.421875 -11.203125 L 9.546875 -11.703125 C 9.609375 -11.710938 9.679688 -11.734375 9.765625 -11.765625 C 9.859375 -11.804688 9.953125 -11.828125 10.046875 -11.828125 C 10.109375 -11.828125 10.164062 -11.8125 10.21875 -11.78125 C 10.28125 -11.75 10.3125 -11.691406 10.3125 -11.609375 C 10.3125 -11.597656 10.3125 -11.578125 10.3125 -11.546875 C 10.3125 -11.515625 10.3125 -11.492188 10.3125 -11.484375 Z M 9.328125 -0.765625 "/></g></g></g><g fill="#9333ea" fill-opacity="1"><g transform="translate(163.142084, 32.638124)"><g><path d="M 6.671875 -4.328125 C 6.679688 -4.492188 6.695312 -4.664062 6.71875 -4.84375 C 6.738281 -5.019531 6.757812 -5.203125 6.78125 -5.390625 C 6.664062 -5.691406 6.5 -5.9375 6.28125 -6.125 C 6.070312 -6.320312 5.804688 -6.421875 5.484375 -6.421875 C 5.171875 -6.421875 4.90625 -6.328125 4.6875 -6.140625 C 4.46875 -5.960938 4.289062 -5.742188 4.15625 -5.484375 C 4.03125 -5.222656 3.9375 -4.945312 3.875 -4.65625 C 3.820312 -4.363281 3.796875 -4.101562 3.796875 -3.875 C 3.796875 -3.601562 3.8125 -3.332031 3.84375 -3.0625 C 3.875 -2.789062 3.925781 -2.546875 4 -2.328125 C 4.070312 -2.117188 4.171875 -1.945312 4.296875 -1.8125 C 4.421875 -1.675781 4.570312 -1.609375 4.75 -1.609375 C 5.195312 -1.617188 5.5625 -1.71875 5.84375 -1.90625 C 6.125 -2.09375 6.347656 -2.320312 6.515625 -2.59375 Z M 9.328125 -0.765625 C 9.328125 -0.753906 9.320312 -0.742188 9.3125 -0.734375 C 9.3125 -0.722656 9.3125 -0.710938 9.3125 -0.703125 C 9.3125 -0.671875 9.3125 -0.644531 9.3125 -0.625 C 9.320312 -0.613281 9.328125 -0.601562 9.328125 -0.59375 C 9.328125 -0.550781 9.3125 -0.515625 9.28125 -0.484375 C 9.25 -0.453125 9.160156 -0.421875 9.015625 -0.390625 L 6.984375 0.28125 C 6.929688 0.289062 6.859375 0.3125 6.765625 0.34375 C 6.671875 0.375 6.582031 0.390625 6.5 0.390625 C 6.425781 0.390625 6.363281 0.367188 6.3125 0.328125 C 6.257812 0.296875 6.234375 0.234375 6.234375 0.140625 C 6.234375 0.046875 6.234375 -0.0234375 6.234375 -0.078125 C 6.234375 -0.128906 6.234375 -0.175781 6.234375 -0.21875 C 6.242188 -0.269531 6.25 -0.320312 6.25 -0.375 C 6.257812 -0.4375 6.269531 -0.515625 6.28125 -0.609375 C 5.90625 -0.304688 5.515625 -0.0664062 5.109375 0.109375 C 4.703125 0.296875 4.273438 0.390625 3.828125 0.390625 C 3.347656 0.390625 2.914062 0.273438 2.53125 0.046875 C 2.15625 -0.179688 1.835938 -0.488281 1.578125 -0.875 C 1.316406 -1.257812 1.117188 -1.703125 0.984375 -2.203125 C 0.859375 -2.703125 0.796875 -3.222656 0.796875 -3.765625 C 0.796875 -4.472656 0.910156 -5.117188 1.140625 -5.703125 C 1.367188 -6.285156 1.679688 -6.78125 2.078125 -7.1875 C 2.472656 -7.601562 2.929688 -7.921875 3.453125 -8.140625 C 3.984375 -8.367188 4.546875 -8.484375 5.140625 -8.484375 C 5.460938 -8.484375 5.769531 -8.398438 6.0625 -8.234375 C 6.351562 -8.066406 6.628906 -7.851562 6.890625 -7.59375 C 6.898438 -7.84375 6.914062 -8.113281 6.9375 -8.40625 C 6.957031 -8.695312 6.976562 -8.992188 7 -9.296875 C 7.019531 -9.597656 7.039062 -9.894531 7.0625 -10.1875 C 7.082031 -10.476562 7.097656 -10.742188 7.109375 -10.984375 C 7.109375 -11.035156 7.125 -11.070312 7.15625 -11.09375 C 7.195312 -11.125 7.285156 -11.160156 7.421875 -11.203125 L 9.546875 -11.703125 C 9.609375 -11.710938 9.679688 -11.734375 9.765625 -11.765625 C 9.859375 -11.804688 9.953125 -11.828125 10.046875 -11.828125 C 10.109375 -11.828125 10.164062 -11.8125 10.21875 -11.78125 C 10.28125 -11.75 10.3125 -11.691406 10.3125 -11.609375 C 10.3125 -11.597656 10.3125 -11.578125 10.3125 -11.546875 C 10.3125 -11.515625 10.3125 -11.492188 10.3125 -11.484375 Z M 9.328125 -0.765625 "/></g></g></g><g fill="#9333ea" fill-opacity="1"><g transform="translate(173.250805, 32.638124)"><g><path d="M 4.15625 3.46875 C 4.144531 3.488281 4.128906 3.503906 4.109375 3.515625 C 4.097656 3.523438 4.078125 3.53125 4.046875 3.53125 C 4.023438 3.53125 4.003906 3.53125 3.984375 3.53125 C 3.804688 3.46875 3.632812 3.410156 3.46875 3.359375 C 3.300781 3.316406 3.140625 3.273438 2.984375 3.234375 C 2.828125 3.191406 2.664062 3.15625 2.5 3.125 C 2.332031 3.09375 2.15625 3.054688 1.96875 3.015625 C 1.914062 3.003906 1.875 2.988281 1.84375 2.96875 C 1.8125 2.945312 1.796875 2.910156 1.796875 2.859375 C 1.796875 2.835938 1.804688 2.796875 1.828125 2.734375 C 1.847656 2.679688 1.890625 2.5625 1.953125 2.375 C 2.023438 2.195312 2.132812 1.9375 2.28125 1.59375 C 2.4375 1.257812 2.640625 0.800781 2.890625 0.21875 C 2.816406 -0.03125 2.734375 -0.332031 2.640625 -0.6875 C 2.546875 -1.039062 2.441406 -1.425781 2.328125 -1.84375 C 2.222656 -2.269531 2.109375 -2.71875 1.984375 -3.1875 C 1.867188 -3.65625 1.75 -4.128906 1.625 -4.609375 C 1.507812 -5.085938 1.394531 -5.5625 1.28125 -6.03125 C 1.164062 -6.5 1.050781 -6.945312 0.9375 -7.375 C 0.894531 -7.457031 0.867188 -7.523438 0.859375 -7.578125 C 0.859375 -7.628906 0.859375 -7.675781 0.859375 -7.71875 C 0.859375 -7.78125 0.898438 -7.820312 0.984375 -7.84375 C 1.378906 -7.9375 1.789062 -8.03125 2.21875 -8.125 C 2.644531 -8.21875 3.050781 -8.335938 3.4375 -8.484375 C 3.445312 -8.484375 3.46875 -8.484375 3.5 -8.484375 C 3.5625 -8.484375 3.597656 -8.457031 3.609375 -8.40625 L 4.53125 -3.296875 C 4.550781 -3.359375 4.585938 -3.46875 4.640625 -3.625 C 4.703125 -3.789062 4.769531 -3.984375 4.84375 -4.203125 C 4.925781 -4.429688 5.015625 -4.675781 5.109375 -4.9375 C 5.210938 -5.207031 5.3125 -5.484375 5.40625 -5.765625 C 5.507812 -6.046875 5.609375 -6.320312 5.703125 -6.59375 C 5.804688 -6.875 5.898438 -7.132812 5.984375 -7.375 C 6.078125 -7.613281 6.15625 -7.820312 6.21875 -8 C 6.28125 -8.1875 6.328125 -8.320312 6.359375 -8.40625 C 6.378906 -8.457031 6.421875 -8.484375 6.484375 -8.484375 C 6.492188 -8.484375 6.5 -8.484375 6.5 -8.484375 C 6.507812 -8.484375 6.523438 -8.484375 6.546875 -8.484375 C 6.921875 -8.335938 7.304688 -8.21875 7.703125 -8.125 C 8.109375 -8.03125 8.507812 -7.9375 8.90625 -7.84375 C 9 -7.820312 9.046875 -7.769531 9.046875 -7.6875 C 9.046875 -7.613281 9.015625 -7.507812 8.953125 -7.375 L 5.828125 -0.296875 Z M 4.15625 3.46875 "/></g></g></g><g mask="url(#id4)"><g transform="matrix(1, 0, 0, 1, 108, 34)"><g clip-path="url(#id8)"><g clip-path="url(#id5)"><g fill="#9333ea" fill-opacity="1"><g transform="translate(0.465295, 6.491107)"><g><path d="M 1.265625 0 L 1.265625 -1.1875 L 0.109375 -3.5 L 0.921875 -3.5 L 1.640625 -1.96875 L 1.65625 -1.96875 L 2.375 -3.5 L 3.1875 -3.5 L 2.03125 -1.1875 L 2.03125 0 Z M 1.265625 0 "/></g></g></g></g><g fill="#9333ea" fill-opacity="1"><g transform="translate(4.028416, 6.491107)"><g><path d="M 1.453125 0.046875 C 1.179688 0.046875 0.945312 -0.015625 0.75 -0.140625 C 0.5625 -0.265625 0.421875 -0.425781 0.328125 -0.625 C 0.234375 -0.832031 0.1875 -1.066406 0.1875 -1.328125 C 0.1875 -1.578125 0.234375 -1.804688 0.328125 -2.015625 C 0.421875 -2.222656 0.5625 -2.390625 0.75 -2.515625 C 0.945312 -2.640625 1.179688 -2.703125 1.453125 -2.703125 C 1.734375 -2.703125 1.96875 -2.640625 2.15625 -2.515625 C 2.351562 -2.390625 2.5 -2.222656 2.59375 -2.015625 C 2.6875 -1.804688 2.734375 -1.578125 2.734375 -1.328125 C 2.734375 -1.078125 2.6875 -0.847656 2.59375 -0.640625 C 2.5 -0.429688 2.351562 -0.265625 2.15625 -0.140625 C 1.96875 -0.015625 1.734375 0.046875 1.453125 0.046875 Z M 1.453125 -0.578125 C 1.628906 -0.578125 1.757812 -0.648438 1.84375 -0.796875 C 1.925781 -0.941406 1.96875 -1.117188 1.96875 -1.328125 C 1.96875 -1.546875 1.925781 -1.722656 1.84375 -1.859375 C 1.757812 -2.003906 1.628906 -2.078125 1.453125 -2.078125 C 1.285156 -2.078125 1.160156 -2.003906 1.078125 -1.859375 C 0.992188 -1.722656 0.953125 -1.546875 0.953125 -1.328125 C 0.953125 -1.117188 0.992188 -0.941406 1.078125 -0.796875 C 1.160156 -0.648438 1.285156 -0.578125 1.453125 -0.578125 Z M 1.453125 -0.578125 "/></g></g></g><g fill="#9333ea" fill-opacity="1"><g transform="translate(7.246721, 6.491107)"><g><path d="M 2.6875 0 L 1.90625 0 L 1.90625 -0.390625 L 1.875 -0.390625 C 1.820312 -0.265625 1.734375 -0.160156 1.609375 -0.078125 C 1.484375 0.00390625 1.332031 0.046875 1.15625 0.046875 C 0.8125 0.046875 0.578125 -0.0625 0.453125 -0.28125 C 0.328125 -0.5 0.265625 -0.742188 0.265625 -1.015625 L 0.265625 -2.640625 L 1.03125 -2.640625 L 1.03125 -1.140625 C 1.03125 -0.972656 1.066406 -0.835938 1.140625 -0.734375 C 1.210938 -0.640625 1.320312 -0.59375 1.46875 -0.59375 C 1.613281 -0.59375 1.722656 -0.644531 1.796875 -0.75 C 1.867188 -0.851562 1.90625 -0.984375 1.90625 -1.140625 L 1.90625 -2.640625 L 2.6875 -2.640625 Z M 2.6875 0 "/></g></g></g><g fill="#9333ea" fill-opacity="1"><g transform="translate(10.485009, 6.491107)"><g><path d="M 0.28125 -2.640625 L 1.0625 -2.640625 L 1.0625 -2.21875 L 1.09375 -2.21875 C 1.132812 -2.34375 1.210938 -2.441406 1.328125 -2.515625 C 1.453125 -2.597656 1.609375 -2.640625 1.796875 -2.640625 C 1.859375 -2.640625 1.910156 -2.632812 1.953125 -2.625 L 1.921875 -1.921875 C 1.847656 -1.941406 1.757812 -1.953125 1.65625 -1.953125 C 1.445312 -1.953125 1.296875 -1.898438 1.203125 -1.796875 C 1.109375 -1.691406 1.0625 -1.515625 1.0625 -1.265625 L 1.0625 0 L 0.28125 0 Z M 0.28125 -2.640625 "/></g></g></g><g fill="#9333ea" fill-opacity="1"><g transform="translate(12.778801, 6.491107)"><g/></g></g><g fill="#9333ea" fill-opacity="1"><g transform="translate(14.228037, 6.491107)"><g><path d="M 1.453125 0.046875 C 1.171875 0.046875 0.929688 -0.015625 0.734375 -0.140625 C 0.546875 -0.273438 0.40625 -0.445312 0.3125 -0.65625 C 0.226562 -0.863281 0.1875 -1.085938 0.1875 -1.328125 C 0.1875 -1.566406 0.226562 -1.789062 0.3125 -2 C 0.40625 -2.207031 0.546875 -2.375 0.734375 -2.5 C 0.929688 -2.632812 1.171875 -2.703125 1.453125 -2.703125 C 1.804688 -2.703125 2.085938 -2.597656 2.296875 -2.390625 C 2.503906 -2.191406 2.632812 -1.9375 2.6875 -1.625 L 1.921875 -1.625 C 1.898438 -1.757812 1.851562 -1.867188 1.78125 -1.953125 C 1.707031 -2.035156 1.601562 -2.078125 1.46875 -2.078125 C 1.28125 -2.078125 1.144531 -2.003906 1.0625 -1.859375 C 0.988281 -1.710938 0.953125 -1.535156 0.953125 -1.328125 C 0.953125 -1.117188 0.988281 -0.941406 1.0625 -0.796875 C 1.144531 -0.648438 1.28125 -0.578125 1.46875 -0.578125 C 1.601562 -0.578125 1.707031 -0.617188 1.78125 -0.703125 C 1.851562 -0.785156 1.898438 -0.894531 1.921875 -1.03125 L 2.6875 -1.03125 C 2.632812 -0.71875 2.503906 -0.457031 2.296875 -0.25 C 2.097656 -0.0507812 1.816406 0.046875 1.453125 0.046875 Z M 1.453125 0.046875 "/></g></g></g><g fill="#9333ea" fill-opacity="1"><g transform="translate(17.386369, 6.491107)"><g><path d="M 1.453125 0.046875 C 1.179688 0.046875 0.945312 -0.015625 0.75 -0.140625 C 0.5625 -0.265625 0.421875 -0.425781 0.328125 -0.625 C 0.234375 -0.832031 0.1875 -1.066406 0.1875 -1.328125 C 0.1875 -1.578125 0.234375 -1.804688 0.328125 -2.015625 C 0.421875 -2.222656 0.5625 -2.390625 0.75 -2.515625 C 0.945312 -2.640625 1.179688 -2.703125 1.453125 -2.703125 C 1.734375 -2.703125 1.96875 -2.640625 2.15625 -2.515625 C 2.351562 -2.390625 2.5 -2.222656 2.59375 -2.015625 C 2.6875 -1.804688 2.734375 -1.578125 2.734375 -1.328125 C 2.734375 -1.078125 2.6875 -0.847656 2.59375 -0.640625 C 2.5 -0.429688 2.351562 -0.265625 2.15625 -0.140625 C 1.96875 -0.015625 1.734375 0.046875 1.453125 0.046875 Z M 1.453125 -0.578125 C 1.628906 -0.578125 1.757812 -0.648438 1.84375 -0.796875 C 1.925781 -0.941406 1.96875 -1.117188 1.96875 -1.328125 C 1.96875 -1.546875 1.925781 -1.722656 1.84375 -1.859375 C 1.757812 -2.003906 1.628906 -2.078125 1.453125 -2.078125 C 1.285156 -2.078125 1.160156 -2.003906 1.078125 -1.859375 C 0.992188 -1.722656 0.953125 -1.546875 0.953125 -1.328125 C 0.953125 -1.117188 0.992188 -0.941406 1.078125 -0.796875 C 1.160156 -0.648438 1.285156 -0.578125 1.453125 -0.578125 Z M 1.453125 -0.578125 "/></g></g></g><g fill="#9333ea" fill-opacity="1"><g transform="translate(20.604674, 6.491107)"><g><path d="M 1.203125 0.046875 C 0.878906 0.046875 0.628906 -0.078125 0.453125 -0.328125 C 0.273438 -0.578125 0.1875 -0.910156 0.1875 -1.328125 C 0.1875 -1.742188 0.273438 -2.078125 0.453125 -2.328125 C 0.628906 -2.578125 0.878906 -2.703125 1.203125 -2.703125 C 1.429688 -2.703125 1.601562 -2.648438 1.71875 -2.546875 C 1.84375 -2.453125 1.929688 -2.351562 1.984375 -2.25 L 2.015625 -2.25 L 2.015625 -3.75 L 2.8125 -3.75 L 2.8125 0 L 2.015625 0 L 2.015625 -0.421875 L 1.984375 -0.421875 C 1.921875 -0.304688 1.828125 -0.195312 1.703125 -0.09375 C 1.585938 0 1.421875 0.046875 1.203125 0.046875 Z M 1.5 -0.5625 C 1.675781 -0.5625 1.804688 -0.632812 1.890625 -0.78125 C 1.984375 -0.9375 2.03125 -1.117188 2.03125 -1.328125 C 2.03125 -1.523438 1.984375 -1.695312 1.890625 -1.84375 C 1.804688 -1.988281 1.675781 -2.0625 1.5 -2.0625 C 1.3125 -2.0625 1.175781 -1.988281 1.09375 -1.84375 C 1.007812 -1.695312 0.96875 -1.523438 0.96875 -1.328125 C 0.96875 -1.117188 1.007812 -0.9375 1.09375 -0.78125 C 1.175781 -0.632812 1.3125 -0.5625 1.5 -0.5625 Z M 1.5 -0.5625 "/></g></g></g><g fill="#9333ea" fill-opacity="1"><g transform="translate(23.962903, 6.491107)"><g><path d="M 0.34375 -2.640625 L 1.125 -2.640625 L 1.125 0 L 0.34375 0 Z M 0.734375 -3.078125 C 0.617188 -3.078125 0.519531 -3.117188 0.4375 -3.203125 C 0.351562 -3.285156 0.3125 -3.382812 0.3125 -3.5 C 0.3125 -3.625 0.351562 -3.726562 0.4375 -3.8125 C 0.519531 -3.894531 0.617188 -3.9375 0.734375 -3.9375 C 0.859375 -3.9375 0.957031 -3.894531 1.03125 -3.8125 C 1.113281 -3.726562 1.15625 -3.625 1.15625 -3.5 C 1.15625 -3.382812 1.113281 -3.285156 1.03125 -3.203125 C 0.957031 -3.117188 0.859375 -3.078125 0.734375 -3.078125 Z M 0.734375 -3.078125 "/></g></g></g><g fill="#9333ea" fill-opacity="1"><g transform="translate(25.736965, 6.491107)"><g><path d="M 0.265625 -2.640625 L 1.046875 -2.640625 L 1.046875 -2.265625 L 1.078125 -2.265625 C 1.140625 -2.378906 1.234375 -2.476562 1.359375 -2.5625 C 1.484375 -2.65625 1.640625 -2.703125 1.828125 -2.703125 C 2.171875 -2.703125 2.410156 -2.59375 2.546875 -2.375 C 2.679688 -2.15625 2.75 -1.910156 2.75 -1.640625 L 2.75 0 L 1.96875 0 L 1.96875 -1.5 C 1.96875 -1.675781 1.925781 -1.8125 1.84375 -1.90625 C 1.769531 -2.007812 1.660156 -2.0625 1.515625 -2.0625 C 1.347656 -2.0625 1.226562 -2.007812 1.15625 -1.90625 C 1.082031 -1.800781 1.046875 -1.664062 1.046875 -1.5 L 1.046875 0 L 0.265625 0 Z M 0.265625 -2.640625 "/></g></g></g><g clip-path="url(#id6)"><g fill="#9333ea" fill-opacity="1"><g transform="translate(29.025231, 6.491107)"><g><path d="M 1.546875 1.125 C 1.421875 1.125 1.328125 1.117188 1.265625 1.109375 C 1.203125 1.097656 1.15625 1.082031 1.125 1.0625 C 1.09375 1.050781 1.070312 1.046875 1.0625 1.046875 L 1.0625 0.421875 C 1.101562 0.429688 1.160156 0.441406 1.234375 0.453125 C 1.304688 0.472656 1.375 0.484375 1.4375 0.484375 C 1.832031 0.484375 2.03125 0.265625 2.03125 -0.171875 L 2.03125 -0.484375 L 1.984375 -0.484375 C 1.929688 -0.367188 1.84375 -0.257812 1.71875 -0.15625 C 1.59375 -0.0625 1.421875 -0.015625 1.203125 -0.015625 C 0.890625 -0.015625 0.640625 -0.132812 0.453125 -0.375 C 0.273438 -0.625 0.1875 -0.953125 0.1875 -1.359375 C 0.1875 -1.628906 0.226562 -1.863281 0.3125 -2.0625 C 0.394531 -2.269531 0.515625 -2.425781 0.671875 -2.53125 C 0.828125 -2.644531 1.007812 -2.703125 1.21875 -2.703125 C 1.4375 -2.703125 1.609375 -2.648438 1.734375 -2.546875 C 1.859375 -2.441406 1.941406 -2.335938 1.984375 -2.234375 L 2.03125 -2.234375 L 2.03125 -2.640625 L 2.8125 -2.640625 L 2.8125 -0.171875 C 2.8125 0.128906 2.722656 0.421875 2.546875 0.703125 C 2.378906 0.984375 2.046875 1.125 1.546875 1.125 Z M 1.5 -0.640625 C 1.675781 -0.640625 1.804688 -0.710938 1.890625 -0.859375 C 1.984375 -1.003906 2.03125 -1.171875 2.03125 -1.359375 C 2.03125 -1.546875 1.984375 -1.710938 1.890625 -1.859375 C 1.804688 -2.003906 1.675781 -2.078125 1.5 -2.078125 C 1.320312 -2.078125 1.191406 -2.003906 1.109375 -1.859375 C 1.023438 -1.722656 0.984375 -1.554688 0.984375 -1.359375 C 0.984375 -1.171875 1.023438 -1.003906 1.109375 -0.859375 C 1.191406 -0.710938 1.320312 -0.640625 1.5 -0.640625 Z M 1.5 -0.640625 "/></g></g></g></g><g fill="#9333ea" fill-opacity="1"><g transform="translate(32.388454, 6.491107)"><g/></g></g><g clip-path="url(#id7)"><g fill="#9333ea" fill-opacity="1"><g transform="translate(33.837691, 6.491107)"><g><path d="M 1.859375 0.046875 C 1.640625 0.046875 1.46875 0 1.34375 -0.09375 C 1.226562 -0.195312 1.140625 -0.304688 1.078125 -0.421875 L 1.046875 -0.421875 L 1.046875 1.046875 L 0.25 1.046875 L 0.25 -2.640625 L 1.046875 -2.640625 L 1.046875 -2.25 L 1.078125 -2.25 C 1.128906 -2.351562 1.210938 -2.453125 1.328125 -2.546875 C 1.453125 -2.648438 1.625 -2.703125 1.84375 -2.703125 C 2.175781 -2.703125 2.429688 -2.578125 2.609375 -2.328125 C 2.785156 -2.078125 2.875 -1.742188 2.875 -1.328125 C 2.875 -0.910156 2.785156 -0.578125 2.609375 -0.328125 C 2.429688 -0.078125 2.179688 0.046875 1.859375 0.046875 Z M 1.5625 -0.5625 C 1.738281 -0.5625 1.867188 -0.632812 1.953125 -0.78125 C 2.046875 -0.9375 2.09375 -1.117188 2.09375 -1.328125 C 2.09375 -1.523438 2.046875 -1.695312 1.953125 -1.84375 C 1.867188 -1.988281 1.738281 -2.0625 1.5625 -2.0625 C 1.382812 -2.0625 1.253906 -1.988281 1.171875 -1.84375 C 1.085938 -1.695312 1.046875 -1.523438 1.046875 -1.328125 C 1.046875 -1.117188 1.085938 -0.9375 1.171875 -0.78125 C 1.253906 -0.632812 1.382812 -0.5625 1.5625 -0.5625 Z M 1.5625 -0.5625 "/></g></g></g></g><g fill="#9333ea" fill-opacity="1"><g transform="translate(37.235896, 6.491107)"><g><path d="M 1.1875 0.046875 C 0.851562 0.046875 0.597656 -0.078125 0.421875 -0.328125 C 0.242188 -0.578125 0.15625 -0.910156 0.15625 -1.328125 C 0.15625 -1.742188 0.242188 -2.078125 0.421875 -2.328125 C 0.609375 -2.578125 0.863281 -2.703125 1.1875 -2.703125 C 1.414062 -2.703125 1.585938 -2.648438 1.703125 -2.546875 C 1.828125 -2.453125 1.910156 -2.351562 1.953125 -2.25 L 2 -2.25 L 2 -2.640625 L 2.78125 -2.640625 L 2.78125 0 L 2 0 L 2 -0.421875 L 1.953125 -0.421875 C 1.910156 -0.316406 1.828125 -0.210938 1.703125 -0.109375 C 1.578125 -0.00390625 1.40625 0.046875 1.1875 0.046875 Z M 1.484375 -0.578125 C 1.660156 -0.578125 1.789062 -0.648438 1.875 -0.796875 C 1.957031 -0.953125 2 -1.128906 2 -1.328125 C 2 -1.523438 1.957031 -1.695312 1.875 -1.84375 C 1.789062 -2 1.660156 -2.078125 1.484375 -2.078125 C 1.296875 -2.078125 1.160156 -2.003906 1.078125 -1.859375 C 0.992188 -1.710938 0.953125 -1.535156 0.953125 -1.328125 C 0.953125 -1.128906 0.992188 -0.953125 1.078125 -0.796875 C 1.160156 -0.648438 1.296875 -0.578125 1.484375 -0.578125 Z M 1.484375 -0.578125 "/></g></g></g><g fill="#9333ea" fill-opacity="1"><g transform="translate(40.614116, 6.491107)"><g><path d="M 0.28125 -2.640625 L 1.0625 -2.640625 L 1.0625 -2.21875 L 1.09375 -2.21875 C 1.132812 -2.34375 1.210938 -2.441406 1.328125 -2.515625 C 1.453125 -2.597656 1.609375 -2.640625 1.796875 -2.640625 C 1.859375 -2.640625 1.910156 -2.632812 1.953125 -2.625 L 1.921875 -1.921875 C 1.847656 -1.941406 1.757812 -1.953125 1.65625 -1.953125 C 1.445312 -1.953125 1.296875 -1.898438 1.203125 -1.796875 C 1.109375 -1.691406 1.0625 -1.515625 1.0625 -1.265625 L 1.0625 0 L 0.28125 0 Z M 0.28125 -2.640625 "/></g></g></g><g fill="#9333ea" fill-opacity="1"><g transform="translate(42.907908, 6.491107)"><g><path d="M 1.328125 -2.046875 L 1.328125 -0.984375 C 1.328125 -0.867188 1.332031 -0.78125 1.34375 -0.71875 C 1.363281 -0.664062 1.398438 -0.625 1.453125 -0.59375 C 1.503906 -0.5625 1.59375 -0.546875 1.71875 -0.546875 C 1.78125 -0.546875 1.847656 -0.550781 1.921875 -0.5625 L 1.921875 -0.015625 C 1.878906 -0.015625 1.804688 -0.0078125 1.703125 0 C 1.609375 0.0078125 1.515625 0.015625 1.421875 0.015625 C 1.160156 0.015625 0.96875 -0.0195312 0.84375 -0.09375 C 0.71875 -0.175781 0.640625 -0.269531 0.609375 -0.375 C 0.578125 -0.488281 0.5625 -0.632812 0.5625 -0.8125 L 0.5625 -2.046875 L 0.140625 -2.046875 L 0.140625 -2.640625 L 0.5625 -2.640625 L 0.5625 -3.5 L 1.328125 -3.5 L 1.328125 -2.640625 L 1.921875 -2.640625 L 1.921875 -2.046875 Z M 1.328125 -2.046875 "/></g></g></g><g fill="#9333ea" fill-opacity="1"><g transform="translate(45.356614, 6.491107)"><g><path d="M 0.265625 -2.640625 L 1.046875 -2.640625 L 1.046875 -2.265625 L 1.078125 -2.265625 C 1.140625 -2.378906 1.234375 -2.476562 1.359375 -2.5625 C 1.484375 -2.65625 1.640625 -2.703125 1.828125 -2.703125 C 2.171875 -2.703125 2.410156 -2.59375 2.546875 -2.375 C 2.679688 -2.15625 2.75 -1.910156 2.75 -1.640625 L 2.75 0 L 1.96875 0 L 1.96875 -1.5 C 1.96875 -1.675781 1.925781 -1.8125 1.84375 -1.90625 C 1.769531 -2.007812 1.660156 -2.0625 1.515625 -2.0625 C 1.347656 -2.0625 1.226562 -2.007812 1.15625 -1.90625 C 1.082031 -1.800781 1.046875 -1.664062 1.046875 -1.5 L 1.046875 0 L 0.265625 0 Z M 0.265625 -2.640625 "/></g></g></g><g fill="#9333ea" fill-opacity="1"><g transform="translate(48.644881, 6.491107)"><g><path d="M 1.453125 0.046875 C 1.171875 0.046875 0.929688 -0.015625 0.734375 -0.140625 C 0.546875 -0.273438 0.40625 -0.445312 0.3125 -0.65625 C 0.226562 -0.863281 0.1875 -1.085938 0.1875 -1.328125 C 0.1875 -1.566406 0.226562 -1.789062 0.3125 -2 C 0.40625 -2.207031 0.546875 -2.375 0.734375 -2.5 C 0.929688 -2.632812 1.175781 -2.703125 1.46875 -2.703125 C 1.84375 -2.703125 2.140625 -2.582031 2.359375 -2.34375 C 2.578125 -2.113281 2.6875 -1.773438 2.6875 -1.328125 L 2.6875 -1.109375 L 0.9375 -1.109375 L 0.9375 -1.0625 C 0.9375 -0.925781 0.984375 -0.804688 1.078125 -0.703125 C 1.171875 -0.609375 1.289062 -0.5625 1.4375 -0.5625 C 1.550781 -0.5625 1.644531 -0.585938 1.71875 -0.640625 C 1.800781 -0.691406 1.863281 -0.765625 1.90625 -0.859375 L 2.671875 -0.859375 C 2.597656 -0.585938 2.457031 -0.367188 2.25 -0.203125 C 2.039062 -0.0351562 1.773438 0.046875 1.453125 0.046875 Z M 1.9375 -1.609375 C 1.9375 -1.785156 1.890625 -1.914062 1.796875 -2 C 1.710938 -2.09375 1.597656 -2.140625 1.453125 -2.140625 C 1.296875 -2.140625 1.171875 -2.09375 1.078125 -2 C 0.992188 -1.90625 0.953125 -1.773438 0.953125 -1.609375 Z M 1.9375 -1.609375 "/></g></g></g><g fill="#9333ea" fill-opacity="1"><g transform="translate(51.813208, 6.491107)"><g><path d="M 0.28125 -2.640625 L 1.0625 -2.640625 L 1.0625 -2.21875 L 1.09375 -2.21875 C 1.132812 -2.34375 1.210938 -2.441406 1.328125 -2.515625 C 1.453125 -2.597656 1.609375 -2.640625 1.796875 -2.640625 C 1.859375 -2.640625 1.910156 -2.632812 1.953125 -2.625 L 1.921875 -1.921875 C 1.847656 -1.941406 1.757812 -1.953125 1.65625 -1.953125 C 1.445312 -1.953125 1.296875 -1.898438 1.203125 -1.796875 C 1.109375 -1.691406 1.0625 -1.515625 1.0625 -1.265625 L 1.0625 0 L 0.28125 0 Z M 0.28125 -2.640625 "/></g></g></g><g fill="#9333ea" fill-opacity="1"><g transform="translate(54.106997, 6.491107)"><g><path d="M 0.84375 0.046875 C 0.71875 0.046875 0.613281 0.00390625 0.53125 -0.078125 C 0.457031 -0.160156 0.421875 -0.265625 0.421875 -0.390625 C 0.421875 -0.503906 0.457031 -0.601562 0.53125 -0.6875 C 0.613281 -0.769531 0.71875 -0.8125 0.84375 -0.8125 C 0.96875 -0.8125 1.066406 -0.769531 1.140625 -0.6875 C 1.222656 -0.601562 1.265625 -0.503906 1.265625 -0.390625 C 1.265625 -0.265625 1.222656 -0.160156 1.140625 -0.078125 C 1.054688 0.00390625 0.957031 0.046875 0.84375 0.046875 Z M 0.84375 0.046875 "/></g></g></g></g></g></g></svg>