<svg xmlns="http://www.w3.org/2000/svg" xmlns:xlink="http://www.w3.org/1999/xlink" zoomAndPan="magnify" preserveAspectRatio="xMidYMid meet" version="1.0" viewBox="77.68 78.49 66.41 66.5"><path fill="#9333ea" d="M 110.976562 144.207031 C 109.769531 144.207031 108.570312 144.140625 107.371094 144.007812 C 106.175781 143.875 104.988281 143.675781 103.816406 143.414062 C 102.640625 143.148438 101.484375 142.820312 100.34375 142.425781 C 99.207031 142.035156 98.09375 141.582031 97.003906 141.066406 C 95.917969 140.550781 94.859375 139.976562 93.835938 139.34375 C 92.8125 138.710938 91.824219 138.023438 90.878906 137.28125 C 89.929688 136.539062 89.027344 135.75 88.164062 134.90625 C 87.304688 134.066406 86.496094 133.179688 85.734375 132.246094 C 84.972656 131.316406 84.265625 130.34375 83.613281 129.335938 C 82.957031 128.324219 82.363281 127.28125 81.824219 126.207031 C 81.289062 125.128906 80.8125 124.027344 80.398438 122.898438 C 79.980469 121.769531 79.632812 120.621094 79.34375 119.457031 C 79.054688 118.289062 78.835938 117.109375 78.679688 115.917969 C 78.523438 114.722656 78.433594 113.527344 78.410156 112.324219 C 78.386719 111.125 78.429688 109.925781 78.539062 108.726562 C 78.648438 107.53125 78.824219 106.34375 79.066406 105.164062 C 79.308594 103.988281 79.617188 102.828125 79.988281 101.683594 C 80.359375 100.539062 80.792969 99.417969 81.289062 98.324219 C 81.785156 97.230469 82.339844 96.164062 82.953125 95.128906 C 83.566406 94.09375 84.234375 93.097656 84.960938 92.136719 C 85.683594 91.175781 86.460938 90.261719 87.289062 89.386719 C 88.113281 88.511719 88.988281 87.6875 89.90625 86.910156 C 90.824219 86.132812 91.78125 85.40625 92.78125 84.734375 C 93.78125 84.0625 94.8125 83.449219 95.882812 82.890625 C 96.949219 82.335938 98.042969 81.839844 99.167969 81.402344 C 100.289062 80.96875 101.433594 80.59375 102.597656 80.285156 C 103.761719 79.976562 104.9375 79.730469 106.128906 79.554688 C 107.320312 79.375 108.515625 79.261719 109.722656 79.214844 C 110.925781 79.167969 112.128906 79.1875 113.328125 79.277344 C 114.53125 79.363281 115.722656 79.515625 116.90625 79.734375 C 118.089844 79.953125 119.261719 80.238281 120.414062 80.585938 C 121.566406 80.933594 122.695312 81.34375 123.804688 81.816406 C 124.910156 82.289062 125.988281 82.824219 127.035156 83.417969 C 128.082031 84.007812 129.09375 84.65625 130.070312 85.363281 C 131.046875 86.066406 131.980469 86.824219 132.871094 87.632812 C 133.765625 88.441406 134.609375 89.292969 135.40625 90.195312 C 136.203125 91.097656 136.945312 92.039062 137.636719 93.023438 C 138.332031 94.007812 138.964844 95.027344 139.542969 96.082031 C 140.121094 97.136719 140.640625 98.21875 141.097656 99.332031 C 141.558594 100.441406 141.953125 101.578125 142.285156 102.730469 C 142.617188 103.886719 142.886719 105.058594 143.085938 106.242188 C 143.289062 107.429688 143.425781 108.621094 143.496094 109.820312 C 143.5625 111.019531 143.566406 112.222656 143.503906 113.421875 C 143.441406 114.621094 143.308594 115.816406 143.113281 117 C 142.917969 118.1875 142.65625 119.359375 142.328125 120.515625 C 142 121.671875 141.613281 122.808594 141.160156 123.921875 C 140.707031 125.035156 140.191406 126.121094 139.621094 127.179688 C 139.046875 128.234375 138.414062 129.257812 137.730469 130.246094 C 136.226562 132.398438 134.492188 134.34375 132.519531 136.078125 C 130.546875 137.8125 128.398438 139.285156 126.066406 140.5 C 123.738281 141.714844 121.296875 142.636719 118.746094 143.265625 C 116.195312 143.890625 113.601562 144.207031 110.976562 144.207031 Z M 110.976562 80.636719 C 109.5625 80.636719 108.152344 80.730469 106.75 80.921875 C 105.351562 81.113281 103.96875 81.398438 102.605469 81.78125 C 101.242188 82.160156 99.914062 82.628906 98.617188 83.1875 C 97.316406 83.75 96.0625 84.394531 94.851562 85.125 C 93.644531 85.859375 92.488281 86.667969 91.390625 87.554688 C 90.289062 88.445312 89.257812 89.402344 88.289062 90.429688 C 87.320312 91.460938 86.425781 92.550781 85.605469 93.699219 C 84.785156 94.851562 84.050781 96.050781 83.394531 97.300781 C 82.738281 98.554688 82.171875 99.84375 81.691406 101.171875 C 81.210938 102.5 80.824219 103.851562 80.53125 105.234375 C 80.234375 106.613281 80.035156 108.007812 79.933594 109.417969 C 79.828125 110.824219 79.820312 112.234375 79.910156 113.640625 C 79.996094 115.050781 80.179688 116.445312 80.460938 117.832031 C 80.738281 119.214844 81.113281 120.574219 81.578125 121.90625 C 82.042969 123.238281 82.59375 124.535156 83.234375 125.792969 C 83.878906 127.050781 84.601562 128.257812 85.410156 129.417969 C 85.789062 129.964844 86.183594 130.496094 86.597656 131.019531 C 87.011719 131.539062 87.445312 132.042969 87.890625 132.539062 C 88.335938 133.03125 88.800781 133.507812 89.277344 133.972656 C 89.753906 134.433594 90.246094 134.882812 90.75 135.3125 C 91.257812 135.746094 91.777344 136.160156 92.308594 136.558594 C 92.84375 136.957031 93.386719 137.339844 93.945312 137.703125 C 94.503906 138.066406 95.070312 138.410156 95.648438 138.738281 C 96.230469 139.066406 96.820312 139.375 97.417969 139.664062 C 98.015625 139.953125 98.625 140.222656 99.242188 140.472656 C 99.859375 140.722656 100.484375 140.953125 101.113281 141.164062 C 101.746094 141.375 102.382812 141.5625 103.027344 141.734375 C 103.671875 141.902344 104.320312 142.050781 104.972656 142.179688 C 105.625 142.308594 106.28125 142.414062 106.941406 142.5 C 107.601562 142.585938 108.265625 142.652344 108.929688 142.695312 C 109.59375 142.738281 110.257812 142.761719 110.925781 142.761719 C 111.589844 142.765625 112.253906 142.742188 112.917969 142.703125 C 113.585938 142.660156 114.246094 142.597656 114.90625 142.515625 C 115.566406 142.429688 116.222656 142.324219 116.878906 142.199219 C 117.53125 142.074219 118.179688 141.925781 118.824219 141.757812 C 119.46875 141.589844 120.105469 141.402344 120.738281 141.195312 C 121.371094 140.988281 121.996094 140.757812 122.613281 140.507812 C 123.230469 140.261719 123.839844 139.992188 124.441406 139.707031 C 125.039062 139.417969 125.628906 139.113281 126.210938 138.785156 C 126.792969 138.460938 127.359375 138.117188 127.917969 137.757812 C 128.476562 137.394531 129.023438 137.015625 129.558594 136.617188 C 130.09375 136.222656 130.613281 135.808594 131.121094 135.378906 C 131.628906 134.949219 132.121094 134.503906 132.601562 134.039062 C 133.078125 133.578125 133.542969 133.101562 133.992188 132.609375 C 134.4375 132.121094 134.871094 131.613281 135.285156 131.09375 C 135.703125 130.578125 136.101562 130.042969 136.480469 129.5 C 136.863281 128.957031 137.226562 128.398438 137.574219 127.832031 C 137.917969 127.265625 138.246094 126.683594 138.554688 126.097656 C 138.863281 125.507812 139.152344 124.910156 139.421875 124.300781 C 139.691406 123.695312 139.941406 123.078125 140.171875 122.457031 C 140.402344 121.832031 140.613281 121.203125 140.804688 120.566406 C 140.996094 119.929688 141.164062 119.289062 141.3125 118.640625 C 141.460938 117.992188 141.589844 117.339844 141.695312 116.683594 C 141.800781 116.027344 141.886719 115.371094 141.953125 114.707031 C 142.015625 114.046875 142.058594 113.382812 142.082031 112.71875 C 142.105469 112.054688 142.105469 111.390625 142.082031 110.726562 C 142.0625 110.0625 142.019531 109.402344 141.957031 108.738281 C 141.894531 108.078125 141.808594 107.417969 141.703125 106.765625 C 141.597656 106.109375 141.472656 105.457031 141.324219 104.808594 C 141.175781 104.160156 141.007812 103.515625 140.820312 102.878906 C 140.628906 102.242188 140.421875 101.613281 140.191406 100.988281 C 139.960938 100.367188 139.710938 99.75 139.441406 99.140625 C 139.171875 98.535156 138.886719 97.9375 138.578125 97.347656 C 138.269531 96.757812 137.945312 96.179688 137.597656 95.609375 C 137.253906 95.042969 136.890625 94.484375 136.511719 93.941406 C 136.128906 93.394531 135.734375 92.863281 135.316406 92.34375 C 134.902344 91.824219 134.472656 91.316406 134.023438 90.824219 C 133.578125 90.332031 133.113281 89.855469 132.636719 89.394531 C 132.160156 88.929688 131.664062 88.484375 131.160156 88.054688 C 130.652344 87.621094 130.132812 87.207031 129.597656 86.8125 C 129.066406 86.414062 128.519531 86.03125 127.960938 85.671875 C 127.402344 85.308594 126.835938 84.964844 126.253906 84.636719 C 125.675781 84.3125 125.085938 84.003906 124.484375 83.714844 C 123.886719 83.425781 123.277344 83.15625 122.660156 82.90625 C 122.042969 82.660156 121.417969 82.429688 120.789062 82.21875 C 120.15625 82.011719 119.519531 81.820312 118.875 81.652344 C 118.230469 81.484375 117.582031 81.335938 116.929688 81.210938 C 116.273438 81.082031 115.617188 80.976562 114.957031 80.890625 C 114.296875 80.804688 113.632812 80.742188 112.96875 80.699219 C 112.304688 80.65625 111.640625 80.636719 110.976562 80.636719 Z M 110.976562 80.636719 " fill-opacity="1" fill-rule="nonzero"></path><path fill="#9333ea" d="M 85.640625 129.761719 L 84.191406 129.761719 L 84.191406 102.308594 C 84.191406 102.019531 84.246094 101.746094 84.359375 101.480469 C 84.46875 101.214844 84.625 100.980469 84.828125 100.777344 C 85.03125 100.574219 85.265625 100.414062 85.535156 100.304688 C 85.800781 100.195312 86.078125 100.140625 86.363281 100.140625 L 98.667969 100.140625 L 98.667969 101.585938 L 86.363281 101.585938 C 86.164062 101.585938 85.992188 101.65625 85.851562 101.796875 C 85.710938 101.9375 85.640625 102.109375 85.640625 102.308594 Z M 85.640625 129.761719 " fill-opacity="1" fill-rule="nonzero"></path><path fill="#9333ea" d="M 137.757812 129.761719 L 136.308594 129.761719 L 136.308594 102.308594 C 136.308594 102.109375 136.238281 101.9375 136.097656 101.796875 C 135.957031 101.65625 135.785156 101.585938 135.585938 101.585938 L 123.28125 101.585938 L 123.28125 100.140625 L 135.585938 100.140625 C 135.875 100.140625 136.152344 100.195312 136.417969 100.304688 C 136.683594 100.414062 136.917969 100.574219 137.121094 100.777344 C 137.324219 100.980469 137.480469 101.214844 137.59375 101.480469 C 137.703125 101.746094 137.757812 102.019531 137.757812 102.308594 Z M 137.757812 129.761719 " fill-opacity="1" fill-rule="nonzero"></path><path fill="#9333ea" d="M 89.257812 107.363281 C 88.972656 107.363281 88.695312 107.308594 88.429688 107.199219 C 88.164062 107.089844 87.929688 106.933594 87.722656 106.730469 C 87.519531 106.527344 87.363281 106.292969 87.253906 106.027344 C 87.144531 105.761719 87.089844 105.484375 87.089844 105.199219 C 87.089844 104.910156 87.144531 104.632812 87.253906 104.367188 C 87.363281 104.101562 87.519531 103.867188 87.722656 103.664062 C 87.929688 103.460938 88.164062 103.304688 88.429688 103.195312 C 88.695312 103.085938 88.972656 103.03125 89.257812 103.03125 C 89.546875 103.03125 89.824219 103.085938 90.089844 103.195312 C 90.355469 103.304688 90.589844 103.460938 90.796875 103.664062 C 91 103.867188 91.15625 104.101562 91.265625 104.367188 C 91.375 104.632812 91.429688 104.910156 91.429688 105.199219 C 91.429688 105.484375 91.375 105.761719 91.265625 106.027344 C 91.15625 106.292969 91 106.527344 90.796875 106.730469 C 90.589844 106.933594 90.355469 107.089844 90.089844 107.199219 C 89.824219 107.308594 89.546875 107.363281 89.257812 107.363281 Z M 89.257812 104.476562 C 89.058594 104.476562 88.890625 104.546875 88.746094 104.6875 C 88.605469 104.828125 88.535156 105 88.535156 105.199219 C 88.535156 105.398438 88.605469 105.566406 88.746094 105.707031 C 88.890625 105.851562 89.058594 105.921875 89.257812 105.921875 C 89.460938 105.921875 89.628906 105.851562 89.773438 105.707031 C 89.914062 105.566406 89.984375 105.398438 89.984375 105.199219 C 89.984375 105 89.914062 104.828125 89.773438 104.6875 C 89.628906 104.546875 89.460938 104.476562 89.257812 104.476562 Z M 89.257812 104.476562 " fill-opacity="1" fill-rule="nonzero"></path><path fill="#9333ea" d="M 95.050781 107.363281 C 94.761719 107.363281 94.484375 107.308594 94.21875 107.199219 C 93.953125 107.089844 93.71875 106.933594 93.515625 106.730469 C 93.3125 106.527344 93.15625 106.292969 93.042969 106.027344 C 92.933594 105.761719 92.878906 105.484375 92.878906 105.199219 C 92.878906 104.910156 92.933594 104.632812 93.042969 104.367188 C 93.15625 104.101562 93.3125 103.867188 93.515625 103.664062 C 93.71875 103.460938 93.953125 103.304688 94.21875 103.195312 C 94.484375 103.085938 94.761719 103.03125 95.050781 103.03125 C 95.339844 103.03125 95.617188 103.085938 95.882812 103.195312 C 96.148438 103.304688 96.382812 103.460938 96.585938 103.664062 C 96.789062 103.867188 96.945312 104.101562 97.058594 104.367188 C 97.167969 104.632812 97.222656 104.910156 97.222656 105.199219 C 97.222656 105.484375 97.167969 105.761719 97.058594 106.027344 C 96.945312 106.292969 96.789062 106.527344 96.585938 106.730469 C 96.382812 106.933594 96.148438 107.089844 95.882812 107.199219 C 95.617188 107.308594 95.339844 107.363281 95.050781 107.363281 Z M 95.050781 104.476562 C 94.851562 104.476562 94.679688 104.546875 94.539062 104.6875 C 94.398438 104.828125 94.328125 105 94.328125 105.199219 C 94.328125 105.398438 94.398438 105.566406 94.539062 105.707031 C 94.679688 105.851562 94.851562 105.921875 95.050781 105.921875 C 95.25 105.921875 95.421875 105.851562 95.5625 105.707031 C 95.703125 105.566406 95.773438 105.398438 95.773438 105.199219 C 95.773438 105 95.703125 104.828125 95.5625 104.6875 C 95.421875 104.546875 95.25 104.476562 95.050781 104.476562 Z M 95.050781 104.476562 " fill-opacity="1" fill-rule="nonzero"></path><path fill="#9333ea" d="M 84.917969 108.808594 L 103.738281 108.808594 L 103.738281 110.253906 L 84.917969 110.253906 Z M 84.917969 108.808594 " fill-opacity="1" fill-rule="nonzero"></path><path fill="#9333ea" d="M 130.519531 103.03125 L 134.136719 103.03125 L 134.136719 104.476562 L 130.519531 104.476562 Z M 130.519531 103.03125 " fill-opacity="1" fill-rule="nonzero"></path><path fill="#9333ea" d="M 130.519531 105.921875 L 134.136719 105.921875 L 134.136719 107.363281 L 130.519531 107.363281 Z M 130.519531 105.921875 " fill-opacity="1" fill-rule="nonzero"></path><path fill="#9333ea" d="M 126.898438 100.863281 L 128.347656 100.863281 L 128.347656 109.53125 L 126.898438 109.53125 Z M 126.898438 100.863281 " fill-opacity="1" fill-rule="nonzero"></path><path fill="#9333ea" d="M 112.421875 113.144531 L 109.527344 113.144531 C 109.359375 113.144531 109.210938 113.09375 109.078125 112.988281 C 108.945312 112.882812 108.863281 112.75 108.824219 112.589844 L 107.984375 109.039062 C 107.570312 108.902344 107.167969 108.738281 106.777344 108.542969 L 103.675781 110.457031 C 103.53125 110.546875 103.378906 110.578125 103.210938 110.5625 C 103.042969 110.542969 102.902344 110.472656 102.785156 110.355469 L 100.734375 108.316406 C 100.617188 108.199219 100.546875 108.054688 100.527344 107.890625 C 100.507812 107.722656 100.542969 107.566406 100.632812 107.425781 L 102.554688 104.332031 C 102.359375 103.941406 102.195312 103.539062 102.058594 103.125 L 98.503906 102.289062 C 98.339844 102.25 98.207031 102.164062 98.101562 102.035156 C 97.996094 101.902344 97.945312 101.753906 97.945312 101.585938 L 97.945312 98.695312 C 97.945312 98.527344 97.996094 98.378906 98.101562 98.246094 C 98.207031 98.117188 98.339844 98.03125 98.503906 97.992188 L 102.058594 97.15625 C 102.195312 96.742188 102.359375 96.339844 102.554688 95.949219 L 100.632812 92.855469 C 100.542969 92.714844 100.507812 92.558594 100.527344 92.394531 C 100.546875 92.226562 100.617188 92.082031 100.734375 91.964844 L 102.785156 89.921875 C 102.902344 89.800781 103.046875 89.734375 103.210938 89.714844 C 103.378906 89.695312 103.535156 89.730469 103.675781 89.816406 L 106.777344 91.738281 C 107.167969 91.542969 107.570312 91.378906 107.984375 91.242188 L 108.824219 87.695312 C 108.863281 87.53125 108.945312 87.398438 109.078125 87.292969 C 109.210938 87.1875 109.359375 87.136719 109.527344 87.136719 L 112.421875 87.136719 C 112.589844 87.136719 112.742188 87.1875 112.871094 87.292969 C 113.003906 87.398438 113.089844 87.53125 113.128906 87.695312 L 113.964844 91.242188 C 114.378906 91.378906 114.78125 91.542969 115.171875 91.738281 L 118.273438 89.816406 C 118.414062 89.730469 118.570312 89.695312 118.738281 89.714844 C 118.90625 89.734375 119.046875 89.800781 119.167969 89.921875 L 121.214844 91.964844 C 121.335938 92.082031 121.402344 92.226562 121.421875 92.394531 C 121.441406 92.558594 121.40625 92.714844 121.320312 92.855469 L 119.394531 95.949219 C 119.589844 96.339844 119.753906 96.742188 119.890625 97.15625 L 123.445312 97.992188 C 123.609375 98.03125 123.742188 98.117188 123.847656 98.246094 C 123.953125 98.378906 124.003906 98.527344 124.003906 98.695312 L 124.003906 101.585938 C 124.003906 101.753906 123.953125 101.902344 123.847656 102.035156 C 123.742188 102.164062 123.609375 102.25 123.445312 102.289062 L 119.890625 103.125 C 119.753906 103.539062 119.589844 103.941406 119.394531 104.332031 L 121.320312 107.425781 C 121.40625 107.566406 121.441406 107.722656 121.421875 107.890625 C 121.402344 108.054688 121.332031 108.199219 121.214844 108.316406 L 119.167969 110.355469 C 119.046875 110.472656 118.90625 110.542969 118.738281 110.5625 C 118.570312 110.578125 118.417969 110.546875 118.273438 110.457031 L 115.171875 108.542969 C 114.78125 108.738281 114.378906 108.902344 113.964844 109.039062 L 113.128906 112.589844 C 113.089844 112.75 113.003906 112.882812 112.871094 112.988281 C 112.742188 113.09375 112.589844 113.144531 112.421875 113.144531 Z M 110.101562 111.699219 L 111.847656 111.699219 L 112.652344 108.304688 C 112.71875 108.027344 112.886719 107.851562 113.160156 107.773438 C 113.75 107.609375 114.3125 107.378906 114.84375 107.082031 C 115.09375 106.941406 115.339844 106.949219 115.582031 107.097656 L 118.550781 108.929688 L 119.785156 107.699219 L 117.945312 104.738281 C 117.796875 104.496094 117.789062 104.25 117.929688 104.003906 C 118.230469 103.46875 118.460938 102.910156 118.625 102.320312 C 118.703125 102.046875 118.878906 101.878906 119.15625 101.816406 L 122.558594 101.011719 L 122.558594 99.269531 L 119.15625 98.46875 C 118.878906 98.402344 118.703125 98.234375 118.625 97.960938 C 118.460938 97.371094 118.230469 96.8125 117.929688 96.277344 C 117.789062 96.03125 117.796875 95.785156 117.945312 95.542969 L 119.785156 92.582031 L 118.546875 91.347656 L 115.582031 93.183594 C 115.339844 93.332031 115.09375 93.339844 114.84375 93.199219 C 114.308594 92.902344 113.746094 92.667969 113.15625 92.507812 C 112.882812 92.429688 112.714844 92.253906 112.652344 91.976562 L 111.847656 88.582031 L 110.101562 88.582031 L 109.296875 91.976562 C 109.234375 92.253906 109.0625 92.429688 108.792969 92.507812 C 108.203125 92.671875 107.640625 92.902344 107.105469 93.199219 C 106.855469 93.339844 106.609375 93.335938 106.367188 93.183594 L 103.402344 91.347656 L 102.164062 92.582031 L 104.003906 95.542969 C 104.15625 95.785156 104.160156 96.03125 104.019531 96.28125 C 103.722656 96.8125 103.488281 97.375 103.324219 97.960938 C 103.246094 98.234375 103.070312 98.402344 102.796875 98.46875 L 99.394531 99.269531 L 99.394531 101.011719 L 102.796875 101.816406 C 103.070312 101.878906 103.25 102.046875 103.328125 102.320312 C 103.488281 102.910156 103.722656 103.46875 104.019531 104.003906 C 104.160156 104.25 104.15625 104.496094 104.003906 104.738281 L 102.164062 107.699219 L 103.402344 108.929688 L 106.371094 107.097656 C 106.613281 106.949219 106.855469 106.945312 107.105469 107.082031 C 107.640625 107.378906 108.203125 107.609375 108.792969 107.773438 C 109.0625 107.851562 109.234375 108.027344 109.296875 108.304688 Z M 110.101562 111.699219 " fill-opacity="1" fill-rule="nonzero"></path><path fill="#9333ea" d="M 110.976562 105.199219 C 110.640625 105.199219 110.3125 105.164062 109.988281 105.101562 C 109.660156 105.035156 109.34375 104.941406 109.035156 104.8125 C 108.730469 104.6875 108.4375 104.53125 108.160156 104.34375 C 107.882812 104.160156 107.628906 103.953125 107.390625 103.714844 C 107.15625 103.480469 106.945312 103.226562 106.761719 102.949219 C 106.578125 102.675781 106.421875 102.382812 106.292969 102.074219 C 106.167969 101.769531 106.070312 101.453125 106.003906 101.128906 C 105.941406 100.800781 105.910156 100.472656 105.910156 100.140625 C 105.910156 99.808594 105.941406 99.480469 106.003906 99.15625 C 106.070312 98.828125 106.167969 98.511719 106.292969 98.207031 C 106.421875 97.898438 106.578125 97.609375 106.761719 97.332031 C 106.945312 97.054688 107.15625 96.800781 107.390625 96.566406 C 107.628906 96.332031 107.882812 96.121094 108.160156 95.9375 C 108.4375 95.75 108.730469 95.597656 109.035156 95.46875 C 109.34375 95.34375 109.660156 95.246094 109.988281 95.179688 C 110.3125 95.117188 110.640625 95.082031 110.976562 95.082031 C 111.308594 95.082031 111.636719 95.117188 111.964844 95.179688 C 112.289062 95.246094 112.605469 95.34375 112.914062 95.46875 C 113.222656 95.597656 113.511719 95.75 113.789062 95.9375 C 114.066406 96.121094 114.324219 96.332031 114.558594 96.566406 C 114.792969 96.800781 115.003906 97.054688 115.1875 97.332031 C 115.371094 97.609375 115.527344 97.898438 115.65625 98.207031 C 115.785156 98.511719 115.878906 98.828125 115.945312 99.15625 C 116.007812 99.480469 116.042969 99.808594 116.042969 100.140625 C 116.042969 100.472656 116.007812 100.800781 115.945312 101.128906 C 115.878906 101.453125 115.78125 101.769531 115.65625 102.074219 C 115.527344 102.382812 115.371094 102.671875 115.1875 102.949219 C 115 103.226562 114.792969 103.480469 114.554688 103.714844 C 114.320312 103.949219 114.066406 104.160156 113.789062 104.34375 C 113.511719 104.527344 113.21875 104.683594 112.914062 104.8125 C 112.605469 104.9375 112.289062 105.035156 111.964844 105.101562 C 111.636719 105.164062 111.308594 105.199219 110.976562 105.199219 Z M 110.976562 96.527344 C 110.496094 96.527344 110.035156 96.621094 109.589844 96.804688 C 109.148438 96.988281 108.753906 97.25 108.414062 97.585938 C 108.078125 97.925781 107.816406 98.316406 107.632812 98.757812 C 107.449219 99.199219 107.355469 99.660156 107.355469 100.140625 C 107.355469 100.621094 107.449219 101.082031 107.632812 101.523438 C 107.816406 101.964844 108.078125 102.355469 108.414062 102.695312 C 108.753906 103.035156 109.148438 103.292969 109.589844 103.476562 C 110.035156 103.660156 110.496094 103.753906 110.976562 103.753906 C 111.457031 103.753906 111.917969 103.660156 112.359375 103.476562 C 112.804688 103.292969 113.195312 103.035156 113.535156 102.695312 C 113.875 102.355469 114.136719 101.964844 114.320312 101.523438 C 114.503906 101.082031 114.59375 100.621094 114.59375 100.140625 C 114.59375 99.660156 114.5 99.203125 114.316406 98.757812 C 114.132812 98.316406 113.871094 97.925781 113.53125 97.589844 C 113.195312 97.25 112.800781 96.988281 112.359375 96.804688 C 111.917969 96.621094 111.453125 96.53125 110.976562 96.527344 Z M 110.976562 96.527344 " fill-opacity="1" fill-rule="nonzero"></path><path fill="#9333ea" d="M 137.035156 110.253906 L 118.964844 110.253906 L 118.9375 108.808594 L 137.035156 108.808594 Z M 137.035156 110.253906 " fill-opacity="1" fill-rule="nonzero"></path><path fill="#9333ea" d="M 97.945312 113.144531 L 99.394531 113.144531 L 99.394531 137.707031 L 97.945312 137.707031 Z M 97.945312 113.144531 " fill-opacity="1" fill-rule="nonzero"></path><path fill="#9333ea" d="M 109.738281 130.269531 L 104.671875 125.214844 C 104.53125 125.074219 104.460938 124.902344 104.460938 124.703125 C 104.460938 124.503906 104.53125 124.332031 104.671875 124.191406 L 109.738281 119.136719 L 110.761719 120.15625 L 106.207031 124.703125 L 110.761719 129.25 Z M 109.738281 130.269531 " fill-opacity="1" fill-rule="nonzero"></path><path fill="#9333ea" d="M 112.464844 130.964844 L 116.808594 118.683594 L 118.171875 119.164062 L 113.828125 131.445312 Z M 112.464844 130.964844 " fill-opacity="1" fill-rule="nonzero"></path><path fill="#9333ea" d="M 122.34375 130.269531 L 121.320312 129.25 L 125.875 124.703125 L 121.320312 120.15625 L 122.34375 119.136719 L 127.410156 124.191406 C 127.554688 124.332031 127.625 124.503906 127.625 124.703125 C 127.625 124.902344 127.554688 125.074219 127.410156 125.214844 Z M 122.34375 130.269531 " fill-opacity="1" fill-rule="nonzero"></path><path fill="#9333ea" d="M 87.8125 113.144531 L 89.984375 113.144531 L 89.984375 114.589844 L 87.8125 114.589844 Z M 87.8125 113.144531 " fill-opacity="1" fill-rule="nonzero"></path><path fill="#9333ea" d="M 91.429688 113.144531 L 95.773438 113.144531 L 95.773438 114.589844 L 91.429688 114.589844 Z M 91.429688 113.144531 " fill-opacity="1" fill-rule="nonzero"></path><path fill="#9333ea" d="M 87.8125 116.757812 L 89.984375 116.757812 L 89.984375 118.203125 L 87.8125 118.203125 Z M 87.8125 116.757812 " fill-opacity="1" fill-rule="nonzero"></path><path fill="#9333ea" d="M 91.429688 116.757812 L 95.773438 116.757812 L 95.773438 118.203125 L 91.429688 118.203125 Z M 91.429688 116.757812 " fill-opacity="1" fill-rule="nonzero"></path><path fill="#9333ea" d="M 87.8125 120.367188 L 89.984375 120.367188 L 89.984375 121.8125 L 87.8125 121.8125 Z M 87.8125 120.367188 " fill-opacity="1" fill-rule="nonzero"></path><path fill="#9333ea" d="M 91.429688 120.367188 L 95.773438 120.367188 L 95.773438 121.8125 L 91.429688 121.8125 Z M 91.429688 120.367188 " fill-opacity="1" fill-rule="nonzero"></path><path fill="#9333ea" d="M 87.8125 123.980469 L 89.984375 123.980469 L 89.984375 125.425781 L 87.8125 125.425781 Z M 87.8125 123.980469 " fill-opacity="1" fill-rule="nonzero"></path><path fill="#9333ea" d="M 91.429688 123.980469 L 95.773438 123.980469 L 95.773438 125.425781 L 91.429688 125.425781 Z M 91.429688 123.980469 " fill-opacity="1" fill-rule="nonzero"></path><path fill="#9333ea" d="M 87.8125 127.59375 L 89.984375 127.59375 L 89.984375 129.039062 L 87.8125 129.039062 Z M 87.8125 127.59375 " fill-opacity="1" fill-rule="nonzero"></path><path fill="#9333ea" d="M 91.429688 127.59375 L 95.773438 127.59375 L 95.773438 129.039062 L 91.429688 129.039062 Z M 91.429688 127.59375 " fill-opacity="1" fill-rule="nonzero"></path><path fill="#9333ea" d="M 91.429688 131.203125 L 95.773438 131.203125 L 95.773438 132.648438 L 91.429688 132.648438 Z M 91.429688 131.203125 " fill-opacity="1" fill-rule="nonzero"></path><path fill="#9333ea" d="M 110.886719 144.992188 C 109.660156 144.992188 108.433594 144.925781 107.214844 144.789062 C 105.992188 144.652344 104.785156 144.449219 103.585938 144.179688 C 102.386719 143.910156 101.207031 143.574219 100.046875 143.171875 C 98.886719 142.769531 97.753906 142.304688 96.644531 141.777344 C 95.535156 141.25 94.457031 140.664062 93.414062 140.015625 C 92.367188 139.371094 91.363281 138.667969 90.398438 137.910156 C 89.429688 137.148438 88.507812 136.339844 87.632812 135.480469 C 86.757812 134.617188 85.929688 133.710938 85.152344 132.757812 C 84.378906 131.804688 83.65625 130.8125 82.988281 129.78125 C 82.324219 128.746094 81.71875 127.679688 81.167969 126.582031 C 80.621094 125.480469 80.136719 124.351562 79.710938 123.199219 C 79.289062 122.042969 78.929688 120.871094 78.636719 119.675781 C 78.34375 118.484375 78.121094 117.277344 77.960938 116.058594 C 77.800781 114.835938 77.710938 113.613281 77.6875 112.382812 C 77.660156 111.15625 77.707031 109.929688 77.820312 108.703125 C 77.929688 107.480469 78.109375 106.265625 78.355469 105.0625 C 78.605469 103.855469 78.917969 102.667969 79.296875 101.5 C 79.671875 100.328125 80.113281 99.183594 80.621094 98.0625 C 81.125 96.945312 81.691406 95.855469 82.316406 94.796875 C 82.941406 93.738281 83.625 92.71875 84.363281 91.738281 C 85.101562 90.753906 85.894531 89.816406 86.738281 88.921875 C 87.578125 88.027344 88.46875 87.183594 89.40625 86.386719 C 90.34375 85.59375 91.320312 84.851562 92.339844 84.164062 C 93.355469 83.476562 94.410156 82.851562 95.5 82.28125 C 96.585938 81.710938 97.703125 81.203125 98.847656 80.757812 C 99.992188 80.3125 101.15625 79.929688 102.34375 79.613281 C 103.53125 79.296875 104.730469 79.046875 105.945312 78.863281 C 107.160156 78.683594 108.378906 78.566406 109.609375 78.519531 C 110.835938 78.472656 112.058594 78.492188 113.285156 78.582031 C 114.511719 78.671875 115.726562 78.828125 116.933594 79.050781 C 118.140625 79.273438 119.332031 79.566406 120.507812 79.921875 C 121.683594 80.277344 122.835938 80.695312 123.964844 81.179688 C 125.09375 81.664062 126.191406 82.210938 127.257812 82.816406 C 128.328125 83.421875 129.359375 84.085938 130.355469 84.808594 C 131.347656 85.527344 132.300781 86.300781 133.210938 87.128906 C 134.121094 87.953125 134.980469 88.828125 135.792969 89.75 C 136.605469 90.671875 137.363281 91.636719 138.070312 92.644531 C 138.773438 93.648438 139.421875 94.691406 140.011719 95.769531 C 140.601562 96.847656 141.128906 97.957031 141.597656 99.09375 C 142.066406 100.230469 142.46875 101.390625 142.804688 102.570312 C 143.144531 103.753906 143.417969 104.949219 143.625 106.164062 C 143.828125 107.375 143.96875 108.59375 144.039062 109.820312 C 144.109375 111.050781 144.113281 112.277344 144.046875 113.503906 C 143.984375 114.734375 143.851562 115.953125 143.648438 117.167969 C 143.449219 118.378906 143.183594 119.578125 142.851562 120.761719 C 142.515625 121.945312 142.121094 123.105469 141.660156 124.246094 C 141.195312 125.382812 140.671875 126.496094 140.089844 127.574219 C 139.503906 128.65625 138.863281 129.703125 138.160156 130.710938 C 137.398438 131.808594 136.574219 132.855469 135.683594 133.855469 C 134.796875 134.851562 133.851562 135.792969 132.851562 136.675781 C 131.847656 137.558594 130.796875 138.378906 129.695312 139.136719 C 128.597656 139.894531 127.457031 140.582031 126.273438 141.203125 C 125.089844 141.820312 123.875 142.367188 122.625 142.839844 C 121.375 143.3125 120.105469 143.707031 118.808594 144.027344 C 117.511719 144.347656 116.203125 144.585938 114.875 144.75 C 113.550781 144.910156 112.222656 144.992188 110.886719 144.992188 Z M 110.886719 79.972656 C 109.445312 79.972656 108.007812 80.070312 106.582031 80.265625 C 105.152344 80.460938 103.742188 80.753906 102.355469 81.140625 C 100.964844 81.53125 99.609375 82.011719 98.285156 82.585938 C 96.960938 83.15625 95.683594 83.816406 94.449219 84.566406 C 93.21875 85.3125 92.039062 86.140625 90.917969 87.050781 C 89.796875 87.957031 88.746094 88.9375 87.757812 89.992188 C 86.769531 91.042969 85.859375 92.15625 85.023438 93.335938 C 84.1875 94.511719 83.433594 95.738281 82.765625 97.019531 C 82.097656 98.296875 81.519531 99.617188 81.03125 100.976562 C 80.542969 102.332031 80.148438 103.71875 79.847656 105.128906 C 79.546875 106.542969 79.34375 107.96875 79.238281 109.410156 C 79.132812 110.847656 79.125 112.289062 79.214844 113.730469 C 79.304688 115.171875 79.492188 116.597656 79.777344 118.015625 C 80.0625 119.429688 80.441406 120.820312 80.914062 122.183594 C 81.386719 123.546875 81.953125 124.871094 82.605469 126.15625 C 83.261719 127.445312 84 128.679688 84.820312 129.867188 C 85.210938 130.425781 85.613281 130.96875 86.035156 131.503906 C 86.457031 132.035156 86.898438 132.550781 87.351562 133.054688 C 87.808594 133.558594 88.277344 134.050781 88.765625 134.523438 C 89.25 134.996094 89.753906 135.453125 90.269531 135.894531 C 90.785156 136.335938 91.3125 136.761719 91.855469 137.167969 C 92.402344 137.578125 92.957031 137.964844 93.523438 138.339844 C 94.09375 138.710938 94.671875 139.0625 95.261719 139.398438 C 95.851562 139.734375 96.453125 140.046875 97.066406 140.34375 C 97.675781 140.640625 98.296875 140.914062 98.925781 141.171875 C 99.554688 141.429688 100.191406 141.664062 100.832031 141.878906 C 101.476562 142.09375 102.128906 142.289062 102.785156 142.460938 C 103.441406 142.636719 104.101562 142.789062 104.765625 142.917969 C 105.433594 143.050781 106.101562 143.160156 106.773438 143.246094 C 107.449219 143.335938 108.125 143.402344 108.800781 143.445312 C 109.476562 143.492188 110.15625 143.515625 110.835938 143.515625 C 111.511719 143.515625 112.191406 143.496094 112.867188 143.453125 C 113.546875 143.410156 114.222656 143.347656 114.894531 143.261719 C 115.566406 143.175781 116.238281 143.066406 116.902344 142.9375 C 117.570312 142.808594 118.230469 142.660156 118.890625 142.488281 C 119.546875 142.316406 120.195312 142.125 120.839844 141.910156 C 121.484375 141.699219 122.121094 141.464844 122.75 141.210938 C 123.382812 140.957031 124 140.683594 124.613281 140.386719 C 125.226562 140.09375 125.828125 139.78125 126.417969 139.449219 C 127.011719 139.113281 127.589844 138.761719 128.160156 138.394531 C 128.730469 138.023438 129.289062 137.636719 129.832031 137.230469 C 130.375 136.824219 130.90625 136.402344 131.425781 135.960938 C 131.941406 135.523438 132.445312 135.066406 132.933594 134.59375 C 133.421875 134.121094 133.894531 133.632812 134.351562 133.132812 C 134.808594 132.628906 135.246094 132.113281 135.671875 131.582031 C 136.09375 131.050781 136.5 130.507812 136.890625 129.949219 C 137.277344 129.394531 137.648438 128.824219 138.003906 128.242188 C 138.355469 127.664062 138.6875 127.070312 139.003906 126.46875 C 139.316406 125.867188 139.613281 125.253906 139.886719 124.632812 C 140.164062 124.011719 140.417969 123.382812 140.652344 122.746094 C 140.886719 122.109375 141.101562 121.464844 141.296875 120.8125 C 141.488281 120.160156 141.664062 119.503906 141.8125 118.84375 C 141.964844 118.179688 142.097656 117.511719 142.207031 116.84375 C 142.3125 116.171875 142.402344 115.496094 142.46875 114.820312 C 142.53125 114.144531 142.578125 113.46875 142.597656 112.789062 C 142.621094 112.109375 142.621094 111.429688 142.601562 110.75 C 142.578125 110.070312 142.535156 109.394531 142.472656 108.71875 C 142.40625 108.039062 142.320312 107.367188 142.214844 106.695312 C 142.105469 106.023438 141.976562 105.359375 141.824219 104.695312 C 141.675781 104.03125 141.503906 103.375 141.3125 102.722656 C 141.117188 102.074219 140.90625 101.425781 140.671875 100.789062 C 140.4375 100.152344 140.183594 99.523438 139.910156 98.902344 C 139.632812 98.277344 139.339844 97.667969 139.027344 97.0625 C 138.710938 96.460938 138.378906 95.871094 138.027344 95.289062 C 137.675781 94.707031 137.308594 94.136719 136.917969 93.578125 C 136.53125 93.023438 136.125 92.476562 135.703125 91.945312 C 135.28125 91.414062 134.839844 90.898438 134.382812 90.394531 C 133.929688 89.890625 133.457031 89.402344 132.96875 88.929688 C 132.480469 88.457031 131.980469 88 131.464844 87.558594 C 130.945312 87.117188 130.417969 86.695312 129.871094 86.289062 C 129.328125 85.882812 128.773438 85.492188 128.203125 85.121094 C 127.636719 84.75 127.054688 84.398438 126.464844 84.066406 C 125.871094 83.730469 125.269531 83.417969 124.660156 83.121094 C 124.046875 82.828125 123.429688 82.550781 122.800781 82.296875 C 122.171875 82.042969 121.535156 81.808594 120.890625 81.59375 C 120.246094 81.378906 119.59375 81.183594 118.9375 81.011719 C 118.28125 80.839844 117.621094 80.6875 116.953125 80.558594 C 116.289062 80.429688 115.617188 80.320312 114.945312 80.234375 C 114.273438 80.148438 113.597656 80.082031 112.921875 80.039062 C 112.242188 79.996094 111.566406 79.972656 110.886719 79.972656 Z M 110.886719 79.972656 " fill-opacity="1" fill-rule="nonzero"></path><path fill="#9333ea" d="M 85.058594 130.214844 L 83.582031 130.214844 L 83.582031 102.136719 C 83.582031 101.84375 83.636719 101.5625 83.75 101.289062 C 83.863281 101.019531 84.023438 100.777344 84.230469 100.570312 C 84.4375 100.363281 84.675781 100.203125 84.949219 100.089844 C 85.21875 99.976562 85.503906 99.921875 85.796875 99.921875 L 98.339844 99.921875 L 98.339844 101.398438 L 85.796875 101.398438 C 85.59375 101.398438 85.417969 101.472656 85.273438 101.617188 C 85.128906 101.761719 85.058594 101.933594 85.058594 102.136719 Z M 85.058594 130.214844 " fill-opacity="1" fill-rule="nonzero"></path><path fill="#9333ea" d="M 138.191406 130.214844 L 136.714844 130.214844 L 136.714844 102.136719 C 136.714844 101.933594 136.640625 101.761719 136.5 101.617188 C 136.355469 101.472656 136.179688 101.398438 135.976562 101.398438 L 123.429688 101.398438 L 123.429688 99.921875 L 135.976562 99.921875 C 136.269531 99.921875 136.550781 99.976562 136.824219 100.089844 C 137.09375 100.203125 137.335938 100.363281 137.542969 100.570312 C 137.75 100.777344 137.910156 101.019531 138.023438 101.289062 C 138.132812 101.5625 138.191406 101.84375 138.191406 102.136719 Z M 138.191406 130.214844 " fill-opacity="1" fill-rule="nonzero"></path><path fill="#9333ea" d="M 88.746094 107.3125 C 88.453125 107.3125 88.171875 107.253906 87.902344 107.140625 C 87.628906 107.03125 87.390625 106.871094 87.183594 106.660156 C 86.976562 106.453125 86.816406 106.214844 86.703125 105.941406 C 86.589844 105.671875 86.535156 105.386719 86.535156 105.09375 C 86.535156 104.800781 86.589844 104.515625 86.703125 104.246094 C 86.816406 103.972656 86.976562 103.734375 87.183594 103.527344 C 87.390625 103.320312 87.628906 103.160156 87.902344 103.046875 C 88.171875 102.933594 88.453125 102.878906 88.746094 102.878906 C 89.042969 102.878906 89.324219 102.933594 89.59375 103.046875 C 89.867188 103.160156 90.105469 103.320312 90.3125 103.527344 C 90.519531 103.734375 90.679688 103.972656 90.792969 104.246094 C 90.90625 104.515625 90.960938 104.800781 90.960938 105.09375 C 90.960938 105.386719 90.90625 105.671875 90.792969 105.941406 C 90.679688 106.214844 90.519531 106.453125 90.3125 106.660156 C 90.105469 106.871094 89.867188 107.03125 89.59375 107.140625 C 89.324219 107.253906 89.042969 107.3125 88.746094 107.3125 Z M 88.746094 104.355469 C 88.542969 104.355469 88.371094 104.425781 88.226562 104.570312 C 88.082031 104.714844 88.011719 104.890625 88.011719 105.09375 C 88.011719 105.296875 88.082031 105.472656 88.226562 105.617188 C 88.371094 105.761719 88.542969 105.832031 88.746094 105.832031 C 88.953125 105.832031 89.125 105.761719 89.269531 105.617188 C 89.414062 105.472656 89.484375 105.296875 89.484375 105.09375 C 89.484375 104.890625 89.414062 104.714844 89.269531 104.570312 C 89.125 104.425781 88.953125 104.355469 88.746094 104.355469 Z M 88.746094 104.355469 " fill-opacity="1" fill-rule="nonzero"></path><path fill="#9333ea" d="M 94.652344 107.3125 C 94.359375 107.3125 94.074219 107.253906 93.804688 107.140625 C 93.53125 107.03125 93.292969 106.871094 93.085938 106.660156 C 92.878906 106.453125 92.71875 106.214844 92.605469 105.941406 C 92.492188 105.671875 92.4375 105.386719 92.4375 105.09375 C 92.4375 104.800781 92.492188 104.515625 92.605469 104.246094 C 92.71875 103.972656 92.878906 103.734375 93.085938 103.527344 C 93.292969 103.320312 93.53125 103.160156 93.804688 103.046875 C 94.074219 102.933594 94.359375 102.878906 94.652344 102.878906 C 94.945312 102.878906 95.226562 102.933594 95.5 103.046875 C 95.769531 103.160156 96.007812 103.320312 96.21875 103.527344 C 96.425781 103.734375 96.585938 103.972656 96.695312 104.246094 C 96.808594 104.515625 96.863281 104.800781 96.863281 105.09375 C 96.863281 105.386719 96.808594 105.671875 96.695312 105.941406 C 96.585938 106.214844 96.425781 106.453125 96.21875 106.660156 C 96.007812 106.871094 95.769531 107.03125 95.5 107.140625 C 95.226562 107.253906 94.945312 107.3125 94.652344 107.3125 Z M 94.652344 104.355469 C 94.449219 104.355469 94.273438 104.425781 94.128906 104.570312 C 93.984375 104.714844 93.914062 104.890625 93.914062 105.09375 C 93.914062 105.296875 93.984375 105.472656 94.128906 105.617188 C 94.273438 105.761719 94.449219 105.832031 94.652344 105.832031 C 94.855469 105.832031 95.027344 105.761719 95.171875 105.617188 C 95.316406 105.472656 95.390625 105.296875 95.390625 105.09375 C 95.390625 104.890625 95.316406 104.714844 95.171875 104.570312 C 95.027344 104.425781 94.855469 104.355469 94.652344 104.355469 Z M 94.652344 104.355469 " fill-opacity="1" fill-rule="nonzero"></path><path fill="#9333ea" d="M 84.320312 108.789062 L 103.507812 108.789062 L 103.507812 110.265625 L 84.320312 110.265625 Z M 84.320312 108.789062 " fill-opacity="1" fill-rule="nonzero"></path><path fill="#9333ea" d="M 130.8125 102.878906 L 134.5 102.878906 L 134.5 104.355469 L 130.8125 104.355469 Z M 130.8125 102.878906 " fill-opacity="1" fill-rule="nonzero"></path><path fill="#9333ea" d="M 130.8125 105.832031 L 134.5 105.832031 L 134.5 107.3125 L 130.8125 107.3125 Z M 130.8125 105.832031 " fill-opacity="1" fill-rule="nonzero"></path><path fill="#9333ea" d="M 127.121094 100.660156 L 128.597656 100.660156 L 128.597656 109.527344 L 127.121094 109.527344 Z M 127.121094 100.660156 " fill-opacity="1" fill-rule="nonzero"></path><path fill="#9333ea" d="M 112.363281 113.222656 L 109.410156 113.222656 C 109.238281 113.222656 109.085938 113.167969 108.953125 113.0625 C 108.820312 112.957031 108.730469 112.820312 108.691406 112.652344 L 107.835938 109.023438 C 107.414062 108.882812 107.003906 108.714844 106.605469 108.515625 L 103.445312 110.472656 C 103.300781 110.5625 103.140625 110.597656 102.972656 110.578125 C 102.800781 110.558594 102.65625 110.488281 102.535156 110.367188 L 100.445312 108.285156 C 100.324219 108.164062 100.253906 108.015625 100.234375 107.847656 C 100.214844 107.675781 100.25 107.519531 100.339844 107.371094 L 102.300781 104.207031 C 102.105469 103.808594 101.933594 103.398438 101.796875 102.972656 L 98.171875 102.117188 C 98.003906 102.078125 97.867188 101.992188 97.761719 101.859375 C 97.65625 101.722656 97.601562 101.570312 97.601562 101.398438 L 97.601562 98.445312 C 97.601562 98.273438 97.65625 98.121094 97.761719 97.984375 C 97.867188 97.851562 98.003906 97.765625 98.171875 97.726562 L 101.796875 96.871094 C 101.933594 96.445312 102.105469 96.035156 102.300781 95.636719 L 100.339844 92.472656 C 100.25 92.328125 100.214844 92.167969 100.234375 91.996094 C 100.253906 91.828125 100.324219 91.679688 100.445312 91.558594 L 102.535156 89.46875 C 102.65625 89.347656 102.800781 89.277344 102.972656 89.257812 C 103.140625 89.238281 103.300781 89.273438 103.445312 89.363281 L 106.605469 91.328125 C 107.003906 91.128906 107.414062 90.960938 107.835938 90.820312 L 108.691406 87.191406 C 108.730469 87.023438 108.820312 86.886719 108.953125 86.78125 C 109.085938 86.675781 109.238281 86.621094 109.410156 86.621094 L 112.363281 86.621094 C 112.535156 86.621094 112.6875 86.675781 112.820312 86.78125 C 112.953125 86.886719 113.039062 87.023438 113.082031 87.191406 L 113.933594 90.820312 C 114.359375 90.960938 114.769531 91.128906 115.167969 91.328125 L 118.328125 89.363281 C 118.472656 89.273438 118.628906 89.238281 118.800781 89.257812 C 118.96875 89.277344 119.117188 89.347656 119.238281 89.46875 L 121.324219 91.558594 C 121.445312 91.679688 121.519531 91.828125 121.539062 91.996094 C 121.558594 92.167969 121.523438 92.328125 121.429688 92.472656 L 119.46875 95.636719 C 119.667969 96.035156 119.835938 96.445312 119.976562 96.871094 L 123.601562 97.726562 C 123.765625 97.765625 123.902344 97.851562 124.007812 97.984375 C 124.117188 98.121094 124.167969 98.273438 124.167969 98.445312 L 124.167969 101.398438 C 124.167969 101.570312 124.117188 101.722656 124.007812 101.859375 C 123.902344 101.992188 123.765625 102.078125 123.601562 102.117188 L 119.976562 102.972656 C 119.835938 103.398438 119.667969 103.808594 119.46875 104.207031 L 121.429688 107.371094 C 121.523438 107.519531 121.558594 107.675781 121.535156 107.847656 C 121.515625 108.015625 121.445312 108.164062 121.324219 108.285156 L 119.238281 110.367188 C 119.117188 110.488281 118.972656 110.558594 118.800781 110.578125 C 118.632812 110.597656 118.472656 110.5625 118.328125 110.472656 L 115.167969 108.515625 C 114.769531 108.714844 114.355469 108.882812 113.933594 109.023438 L 113.082031 112.652344 C 113.039062 112.820312 112.953125 112.957031 112.820312 113.0625 C 112.6875 113.167969 112.53125 113.222656 112.363281 113.222656 Z M 109.992188 111.742188 L 111.777344 111.742188 L 112.597656 108.269531 C 112.664062 107.988281 112.835938 107.808594 113.113281 107.730469 C 113.714844 107.5625 114.289062 107.328125 114.832031 107.019531 C 115.085938 106.878906 115.335938 106.882812 115.582031 107.035156 L 118.609375 108.910156 L 119.867188 107.652344 L 117.992188 104.625 C 117.839844 104.375 117.835938 104.125 117.976562 103.871094 C 118.28125 103.328125 118.519531 102.753906 118.683594 102.152344 C 118.765625 101.871094 118.945312 101.699219 119.226562 101.632812 L 122.695312 100.816406 L 122.695312 99.03125 L 119.226562 98.210938 C 118.945312 98.144531 118.761719 97.972656 118.683594 97.691406 C 118.515625 97.089844 118.28125 96.515625 117.976562 95.972656 C 117.832031 95.71875 117.839844 95.46875 117.992188 95.21875 L 119.867188 92.191406 L 118.605469 90.929688 L 115.582031 92.804688 C 115.335938 92.960938 115.085938 92.964844 114.832031 92.820312 C 114.285156 92.515625 113.710938 92.28125 113.109375 92.113281 C 112.832031 92.035156 112.660156 91.855469 112.59375 91.570312 L 111.777344 88.101562 L 109.992188 88.101562 L 109.175781 91.574219 C 109.109375 91.855469 108.9375 92.035156 108.660156 92.113281 C 108.058594 92.28125 107.484375 92.519531 106.941406 92.824219 C 106.6875 92.964844 106.4375 92.960938 106.191406 92.808594 L 103.164062 90.929688 L 101.902344 92.191406 L 103.777344 95.21875 C 103.933594 95.46875 103.9375 95.71875 103.796875 95.972656 C 103.492188 96.519531 103.253906 97.089844 103.085938 97.695312 C 103.007812 97.972656 102.828125 98.144531 102.546875 98.210938 L 99.078125 99.03125 L 99.078125 100.816406 L 102.546875 101.632812 C 102.828125 101.699219 103.007812 101.871094 103.089844 102.152344 C 103.253906 102.753906 103.492188 103.328125 103.796875 103.871094 C 103.9375 104.125 103.933594 104.375 103.78125 104.625 L 101.90625 107.652344 L 103.164062 108.910156 L 106.191406 107.035156 C 106.4375 106.882812 106.6875 106.878906 106.941406 107.019531 C 107.484375 107.324219 108.058594 107.5625 108.660156 107.730469 C 108.9375 107.808594 109.109375 107.988281 109.175781 108.269531 Z M 109.992188 111.742188 " fill-opacity="1" fill-rule="nonzero"></path><path fill="#9333ea" d="M 110.886719 105.09375 C 110.546875 105.09375 110.210938 105.0625 109.878906 104.996094 C 109.546875 104.929688 109.222656 104.832031 108.910156 104.699219 C 108.597656 104.570312 108.296875 104.410156 108.015625 104.222656 C 107.734375 104.035156 107.472656 103.820312 107.234375 103.578125 C 106.992188 103.339844 106.78125 103.078125 106.589844 102.796875 C 106.402344 102.511719 106.242188 102.214844 106.113281 101.902344 C 105.984375 101.585938 105.886719 101.265625 105.820312 100.929688 C 105.753906 100.597656 105.71875 100.261719 105.71875 99.921875 C 105.71875 99.582031 105.753906 99.246094 105.820312 98.914062 C 105.886719 98.578125 105.984375 98.257812 106.113281 97.941406 C 106.242188 97.628906 106.402344 97.332031 106.589844 97.046875 C 106.78125 96.765625 106.992188 96.503906 107.234375 96.265625 C 107.472656 96.023438 107.734375 95.808594 108.015625 95.621094 C 108.296875 95.433594 108.597656 95.273438 108.910156 95.144531 C 109.222656 95.015625 109.546875 94.914062 109.878906 94.847656 C 110.210938 94.78125 110.546875 94.75 110.886719 94.75 C 111.226562 94.75 111.5625 94.78125 111.894531 94.847656 C 112.226562 94.914062 112.550781 95.015625 112.863281 95.144531 C 113.175781 95.273438 113.472656 95.433594 113.757812 95.621094 C 114.039062 95.808594 114.300781 96.023438 114.539062 96.265625 C 114.777344 96.503906 114.992188 96.765625 115.179688 97.046875 C 115.371094 97.332031 115.527344 97.628906 115.660156 97.941406 C 115.789062 98.257812 115.886719 98.578125 115.953125 98.914062 C 116.019531 99.246094 116.050781 99.582031 116.050781 99.921875 C 116.050781 100.261719 116.019531 100.597656 115.953125 100.929688 C 115.886719 101.261719 115.785156 101.585938 115.65625 101.898438 C 115.527344 102.214844 115.367188 102.511719 115.179688 102.792969 C 114.992188 103.078125 114.777344 103.335938 114.539062 103.578125 C 114.296875 103.816406 114.035156 104.03125 113.753906 104.21875 C 113.472656 104.410156 113.175781 104.570312 112.863281 104.699219 C 112.550781 104.828125 112.226562 104.925781 111.894531 104.992188 C 111.5625 105.058594 111.226562 105.09375 110.886719 105.09375 Z M 110.886719 96.226562 C 110.398438 96.226562 109.925781 96.320312 109.472656 96.507812 C 109.023438 96.695312 108.625 96.964844 108.277344 97.308594 C 107.929688 97.65625 107.664062 98.054688 107.476562 98.507812 C 107.289062 98.960938 107.195312 99.433594 107.195312 99.921875 C 107.195312 100.410156 107.289062 100.882812 107.476562 101.335938 C 107.664062 101.789062 107.929688 102.1875 108.277344 102.535156 C 108.625 102.878906 109.023438 103.148438 109.472656 103.335938 C 109.925781 103.523438 110.398438 103.617188 110.886719 103.617188 C 111.375 103.617188 111.847656 103.523438 112.296875 103.335938 C 112.75 103.148438 113.148438 102.878906 113.496094 102.535156 C 113.839844 102.1875 114.109375 101.789062 114.296875 101.335938 C 114.480469 100.882812 114.574219 100.410156 114.574219 99.921875 C 114.574219 99.433594 114.480469 98.960938 114.292969 98.507812 C 114.105469 98.054688 113.839844 97.65625 113.492188 97.3125 C 113.148438 96.964844 112.75 96.699219 112.296875 96.511719 C 111.847656 96.324219 111.375 96.226562 110.886719 96.226562 Z M 110.886719 96.226562 " fill-opacity="1" fill-rule="nonzero"></path><path fill="#9333ea" d="M 137.453125 110.265625 L 119.03125 110.265625 L 119.003906 108.789062 L 137.453125 108.789062 Z M 137.453125 110.265625 " fill-opacity="1" fill-rule="nonzero"></path><path fill="#9333ea" d="M 97.601562 113.222656 L 99.078125 113.222656 L 99.078125 138.34375 L 97.601562 138.34375 Z M 97.601562 113.222656 " fill-opacity="1" fill-rule="nonzero"></path><path fill="#9333ea" d="M 109.625 130.738281 L 104.460938 125.566406 C 104.316406 125.421875 104.246094 125.246094 104.246094 125.042969 C 104.246094 124.839844 104.316406 124.664062 104.460938 124.519531 L 109.625 119.347656 L 110.671875 120.394531 L 106.027344 125.042969 L 110.671875 129.691406 Z M 109.625 130.738281 " fill-opacity="1" fill-rule="nonzero"></path><path fill="#9333ea" d="M 112.402344 131.445312 L 116.832031 118.886719 L 118.226562 119.378906 L 113.792969 131.9375 Z M 112.402344 131.445312 " fill-opacity="1" fill-rule="nonzero"></path><path fill="#9333ea" d="M 122.476562 130.738281 L 121.433594 129.691406 L 126.078125 125.042969 L 121.433594 120.394531 L 122.476562 119.347656 L 127.644531 124.519531 C 127.785156 124.664062 127.859375 124.839844 127.859375 125.042969 C 127.859375 125.246094 127.785156 125.421875 127.644531 125.566406 Z M 122.476562 130.738281 " fill-opacity="1" fill-rule="nonzero"></path><path fill="#9333ea" d="M 87.273438 113.222656 L 89.484375 113.222656 L 89.484375 114.699219 L 87.273438 114.699219 Z M 87.273438 113.222656 " fill-opacity="1" fill-rule="nonzero"></path><path fill="#9333ea" d="M 90.960938 113.222656 L 95.390625 113.222656 L 95.390625 114.699219 L 90.960938 114.699219 Z M 90.960938 113.222656 " fill-opacity="1" fill-rule="nonzero"></path><path fill="#9333ea" d="M 87.273438 116.914062 L 89.484375 116.914062 L 89.484375 118.394531 L 87.273438 118.394531 Z M 87.273438 116.914062 " fill-opacity="1" fill-rule="nonzero"></path><path fill="#9333ea" d="M 90.960938 116.914062 L 95.390625 116.914062 L 95.390625 118.394531 L 90.960938 118.394531 Z M 90.960938 116.914062 " fill-opacity="1" fill-rule="nonzero"></path><path fill="#9333ea" d="M 87.273438 120.609375 L 89.484375 120.609375 L 89.484375 122.089844 L 87.273438 122.089844 Z M 87.273438 120.609375 " fill-opacity="1" fill-rule="nonzero"></path><path fill="#9333ea" d="M 90.960938 120.609375 L 95.390625 120.609375 L 95.390625 122.089844 L 90.960938 122.089844 Z M 90.960938 120.609375 " fill-opacity="1" fill-rule="nonzero"></path><path fill="#9333ea" d="M 87.273438 124.304688 L 89.484375 124.304688 L 89.484375 125.78125 L 87.273438 125.78125 Z M 87.273438 124.304688 " fill-opacity="1" fill-rule="nonzero"></path><path fill="#9333ea" d="M 90.960938 124.304688 L 95.390625 124.304688 L 95.390625 125.78125 L 90.960938 125.78125 Z M 90.960938 124.304688 " fill-opacity="1" fill-rule="nonzero"></path><path fill="#9333ea" d="M 87.273438 128 L 89.484375 128 L 89.484375 129.476562 L 87.273438 129.476562 Z M 87.273438 128 " fill-opacity="1" fill-rule="nonzero"></path><path fill="#9333ea" d="M 90.960938 128 L 95.390625 128 L 95.390625 129.476562 L 90.960938 129.476562 Z M 90.960938 128 " fill-opacity="1" fill-rule="nonzero"></path><path fill="#9333ea" d="M 90.960938 131.691406 L 95.390625 131.691406 L 95.390625 133.171875 L 90.960938 133.171875 Z M 90.960938 131.691406 " fill-opacity="1" fill-rule="nonzero"></path></svg>