<svg width="218" height="28" viewBox="0 0 218 28" fill="none" xmlns="http://www.w3.org/2000/svg">
<path fill-rule="evenodd" clip-rule="evenodd" d="M41.2854 27.7051H39.2409C38.872 27.7051 38.6875 27.5205 38.6875 27.15V11.5994C38.6875 11.2289 38.872 11.043 39.2409 11.043H41.2854C41.6505 11.043 41.8337 11.2289 41.8337 11.5994V12.8396H41.9639C42.1794 12.2962 42.5973 11.8594 43.2126 11.5331C43.8305 11.2068 44.5142 11.043 45.2688 11.043H46.471C46.8361 11.043 47.0218 11.2289 47.0218 11.5994V13.2972C47.0218 13.7119 46.8361 13.8848 46.471 13.8198H44.5258C42.7328 13.8198 41.8337 14.8117 41.8337 16.7929V27.15C41.8337 27.5205 41.6505 27.7051 41.2854 27.7051Z" fill="#2E3035"/>
<path fill-rule="evenodd" clip-rule="evenodd" d="M52.6936 18.6225H58.4983C58.7137 18.6225 58.8208 18.5133 58.8208 18.2962V16.2045C58.8208 15.3777 58.6376 14.7719 58.2713 14.3923C57.9024 14.0114 57.309 13.8203 56.486 13.8203H54.7059C53.8829 13.8203 53.2895 14.0114 52.9206 14.3923C52.5543 14.7719 52.3711 15.3777 52.3711 16.2045V18.2962C52.3711 18.5133 52.4782 18.6225 52.6936 18.6225ZM61.2553 27.7051H54.2522C52.6501 27.7051 51.413 27.2605 50.5384 26.3661C49.6626 25.4743 49.2266 24.2315 49.2266 22.6416V16.1078C49.2266 14.4958 49.6626 13.2478 50.5384 12.3664C51.413 11.4837 52.6501 11.043 54.2522 11.043H56.9095C58.5077 11.043 59.7525 11.4837 60.6374 12.3664C61.521 13.2478 61.966 14.4958 61.966 16.1078V20.2574C61.966 20.6487 61.7712 20.845 61.3817 20.845H52.6939C52.454 20.845 52.3405 20.9542 52.3405 21.1713V22.5766C52.3405 24.1665 53.1273 24.9621 54.7062 24.9621H61.2553C61.641 24.9621 61.8357 25.1571 61.8357 25.5497V27.1825C61.8357 27.5322 61.641 27.7051 61.2553 27.7051Z" fill="#2E3035"/>
<path fill-rule="evenodd" clip-rule="evenodd" d="M70.5257 11.0446H73.2488C73.6383 11.0446 73.8331 11.2188 73.8331 11.5672V13.2663C73.8331 13.6368 73.6383 13.8214 73.2488 13.8214H70.5257C70.3103 13.8214 70.2032 13.9306 70.2032 14.1477V27.1516C70.2032 27.5221 70.0084 27.7067 69.6189 27.7067H67.5795C67.2093 27.7067 67.0261 27.5221 67.0261 27.1516V14.1477C67.0261 13.9306 66.9061 13.8214 66.6688 13.8214H64.9506C64.5855 13.8214 64.4023 13.6368 64.4023 13.2663V11.5672C64.4023 11.3709 64.4372 11.2357 64.5133 11.1577C64.5881 11.0823 64.7364 11.0446 64.9506 11.0446H66.6688C66.9061 11.0446 67.0261 10.9367 67.0261 10.7183V9.77058C67.0261 8.15858 67.435 6.91708 68.258 6.04608C69.0784 5.17378 70.2793 4.73828 71.8569 4.73828H73.281C73.6512 4.73828 73.8331 4.91378 73.8331 5.26218V6.96128C73.8331 7.33178 73.6512 7.51638 73.281 7.51638H72.311C71.5306 7.51638 70.9862 7.70748 70.6715 8.08838C70.358 8.46928 70.2032 9.08418 70.2032 9.93308V10.7183C70.2032 10.9367 70.3103 11.0446 70.5257 11.0446Z" fill="#2E3035"/>
<path fill-rule="evenodd" clip-rule="evenodd" d="M76.5586 27.1519V11.6013C76.5586 11.2295 76.7302 11.0449 77.0759 11.0449H79.1514C79.5177 11.0449 79.7009 11.2295 79.7009 11.6013V27.1519C79.7009 27.369 79.6635 27.5172 79.5887 27.5926C79.5126 27.668 79.3784 27.707 79.1823 27.707H77.1081C76.7418 27.707 76.5586 27.5224 76.5586 27.1519ZM76.5586 8.26718V5.29278C76.5586 4.94568 76.7302 4.77148 77.0759 4.77148H79.1823C79.5293 4.77148 79.7009 4.94568 79.7009 5.29278V8.26718C79.7009 8.63768 79.5293 8.82228 79.1823 8.82228H77.0759C76.7302 8.82228 76.5586 8.63768 76.5586 8.26718Z" fill="#2E3035"/>
<path fill-rule="evenodd" clip-rule="evenodd" d="M86.542 27.7051H84.4987C84.1285 27.7051 83.9453 27.5205 83.9453 27.15V11.5994C83.9453 11.2289 84.1285 11.043 84.4987 11.043H86.542C86.9083 11.043 87.0915 11.2289 87.0915 11.5994V12.7746H87.2218C87.739 11.6202 88.8316 11.043 90.4943 11.043H91.9223C93.5012 11.043 94.7099 11.4785 95.5522 12.3495C96.3958 13.2205 96.8176 14.4737 96.8176 16.1078V27.15C96.8176 27.5205 96.6216 27.7051 96.2333 27.7051H94.1926C93.8237 27.7051 93.6405 27.5205 93.6405 27.15V16.2378C93.6405 14.6258 92.8536 13.8198 91.2748 13.8198H89.7513C87.9777 13.8198 87.0915 14.7454 87.0915 16.5979V27.15C87.0915 27.5205 86.9083 27.7051 86.542 27.7051Z" fill="#2E3035"/>
<path fill-rule="evenodd" clip-rule="evenodd" d="M103.85 18.6225H109.655C109.87 18.6225 109.977 18.5133 109.977 18.2962V16.2045C109.977 15.3777 109.794 14.7719 109.428 14.3923C109.059 14.0114 108.465 13.8203 107.642 13.8203H105.862C105.039 13.8203 104.446 14.0114 104.077 14.3923C103.711 14.7719 103.527 15.3777 103.527 16.2045V18.2962C103.527 18.5133 103.634 18.6225 103.85 18.6225ZM112.412 27.7051H105.408C103.806 27.7051 102.569 27.2605 101.695 26.3661C100.819 25.4743 100.383 24.2315 100.383 22.6416V16.1078C100.383 14.4958 100.819 13.2478 101.695 12.3664C102.569 11.4837 103.806 11.043 105.408 11.043H108.066C109.664 11.043 110.909 11.4837 111.795 12.3664C112.677 13.2478 113.122 14.4958 113.122 16.1078V20.2574C113.122 20.6487 112.927 20.845 112.538 20.845H103.85C103.61 20.845 103.497 20.9542 103.497 21.1713V22.5766C103.497 24.1665 104.284 24.9621 105.862 24.9621H112.412C112.797 24.9621 112.992 25.1571 112.992 25.5497V27.1825C112.992 27.5322 112.797 27.7051 112.412 27.7051Z" fill="#2E3035"/>
<path fill-rule="evenodd" clip-rule="evenodd" d="M119.507 23.1652V27.151C119.507 27.5228 119.335 27.7061 118.991 27.7061H116.784C116.418 27.7061 116.234 27.5228 116.234 27.151V23.1652C116.234 22.8168 116.418 22.6426 116.784 22.6426H118.991C119.335 22.6426 119.507 22.8168 119.507 23.1652Z" fill="#2E3035"/>
<path fill-rule="evenodd" clip-rule="evenodd" d="M128.135 11.0446H130.858C131.248 11.0446 131.442 11.2188 131.442 11.5672V13.2663C131.442 13.6368 131.248 13.8214 130.858 13.8214H128.135C127.92 13.8214 127.809 13.9306 127.809 14.1477V27.1516C127.809 27.5221 127.614 27.7067 127.228 27.7067H125.185C124.819 27.7067 124.632 27.5221 124.632 27.1516V14.1477C124.632 13.9306 124.512 13.8214 124.278 13.8214H122.56C122.191 13.8214 122.008 13.6368 122.008 13.2663V11.5672C122.008 11.3709 122.043 11.2357 122.123 11.1577C122.197 11.0823 122.342 11.0446 122.56 11.0446H124.278C124.512 11.0446 124.632 10.9367 124.632 10.7183V9.77058C124.632 8.15858 125.044 6.91708 125.863 6.04608C126.688 5.17378 127.885 4.73828 129.462 4.73828H130.89C131.257 4.73828 131.442 4.91378 131.442 5.26218V6.96128C131.442 7.33178 131.257 7.51638 130.89 7.51638H129.916C129.14 7.51638 128.592 7.70748 128.282 8.08838C127.967 8.46928 127.809 9.08418 127.809 9.93308V10.7183C127.809 10.9367 127.92 11.0446 128.135 11.0446Z" fill="#2E3035"/>
<path fill-rule="evenodd" clip-rule="evenodd" d="M134.16 27.1519V11.6013C134.16 11.2295 134.336 11.0449 134.681 11.0449H136.753C137.123 11.0449 137.305 11.2295 137.305 11.6013V27.1519C137.305 27.369 137.265 27.5172 137.19 27.5926C137.114 27.668 136.98 27.707 136.789 27.707H134.714C134.343 27.707 134.16 27.5224 134.16 27.1519ZM134.16 8.26718V5.29278C134.16 4.94568 134.336 4.77148 134.681 4.77148H136.789C137.131 4.77148 137.305 4.94568 137.305 5.29278V8.26718C137.305 8.63768 137.131 8.82228 136.789 8.82228H134.681C134.336 8.82228 134.16 8.63768 134.16 8.26718Z" fill="#2E3035"/>
<path fill-rule="evenodd" clip-rule="evenodd" d="M144.147 27.7051H142.104C141.738 27.7051 141.555 27.5205 141.555 27.15V11.5994C141.555 11.2289 141.738 11.043 142.104 11.043H144.147C144.514 11.043 144.701 11.2289 144.701 11.5994V12.7746H144.827C145.348 11.6202 146.437 11.043 148.104 11.043H149.528C151.107 11.043 152.319 11.4785 153.162 12.3495C154.005 13.2205 154.427 14.4737 154.427 16.1078V27.15C154.427 27.5205 154.231 27.7051 153.843 27.7051H151.798C151.432 27.7051 151.25 27.5205 151.25 27.15V16.2378C151.25 14.6258 150.459 13.8198 148.879 13.8198H147.357C145.587 13.8198 144.701 14.7454 144.701 16.5979V27.15C144.701 27.5205 144.514 27.7051 144.147 27.7051Z" fill="#2E3035"/>
<path fill-rule="evenodd" clip-rule="evenodd" d="M167.682 22.1527V14.1486C167.682 13.9315 167.562 13.8223 167.325 13.8223H163.466C161.912 13.8223 161.133 14.6283 161.133 16.239V22.5128C161.133 24.1248 161.912 24.9295 163.466 24.9295H165.025C166.796 24.9295 167.682 24.0039 167.682 22.1527ZM164.279 27.7057H163.015C161.417 27.7057 160.18 27.2611 159.305 26.3667C158.426 25.4749 157.988 24.2321 157.988 22.6422V16.1084C157.988 14.4964 158.426 13.2484 159.305 12.367C160.18 11.4843 161.417 11.0449 163.015 11.0449H170.276C170.666 11.0449 170.861 11.2295 170.861 11.6V27.1519C170.861 27.5224 170.666 27.7057 170.276 27.7057H168.237C167.867 27.7057 167.683 27.5224 167.683 27.1519V25.9754H167.552C167.035 27.1298 165.941 27.7057 164.279 27.7057Z" fill="#2E3035"/>
<path fill-rule="evenodd" clip-rule="evenodd" d="M177.503 27.7051H175.46C175.095 27.7051 174.91 27.5205 174.91 27.15V11.5994C174.91 11.2289 175.095 11.043 175.46 11.043H177.503C177.869 11.043 178.056 11.2289 178.056 11.5994V12.7746H178.183C178.705 11.6202 179.794 11.043 181.459 11.043H182.883C184.462 11.043 185.675 11.4785 186.517 12.3495C187.362 13.2205 187.782 14.4737 187.782 16.1078V27.15C187.782 27.5205 187.588 27.7051 187.198 27.7051H185.155C184.787 27.7051 184.605 27.5205 184.605 27.15V16.2378C184.605 14.6258 183.815 13.8198 182.236 13.8198H180.712C178.943 13.8198 178.056 14.7454 178.056 16.5979V27.15C178.056 27.5205 177.869 27.7051 177.503 27.7051Z" fill="#2E3035"/>
<path fill-rule="evenodd" clip-rule="evenodd" d="M201.719 25.4834V27.1825C201.719 27.5309 201.524 27.7051 201.138 27.7051H196.371C194.771 27.7051 193.535 27.2592 192.661 26.3661C191.782 25.473 191.344 24.2315 191.344 22.6403V16.1078C191.344 14.4945 191.782 13.2478 192.661 12.3664C193.535 11.4837 194.771 11.043 196.371 11.043H201.138C201.524 11.043 201.719 11.2289 201.719 11.5994V13.2972C201.719 13.6456 201.524 13.8198 201.138 13.8198H196.823C195.269 13.8198 194.49 14.6258 194.49 16.2378V22.5103C194.49 24.1236 195.269 24.9283 196.823 24.9283H201.138C201.524 24.9283 201.719 25.1129 201.719 25.4834Z" fill="#2E3035"/>
<mask id="mask0_1_9" style="mask-type:alpha" maskUnits="userSpaceOnUse" x="204" y="11" width="14" height="17">
<path fill-rule="evenodd" clip-rule="evenodd" d="M204.477 11.043H217.217V27.7051H204.477V11.043Z" fill="white"/>
</mask>
<g mask="url(#mask0_1_9)">
<path fill-rule="evenodd" clip-rule="evenodd" d="M207.947 18.6225H213.748C213.964 18.6225 214.075 18.5133 214.075 18.2962V16.2045C214.075 15.3777 213.888 14.7719 213.523 14.3923C213.156 14.0114 212.56 13.8203 211.74 13.8203H209.956C209.137 13.8203 208.54 14.0114 208.174 14.3923C207.804 14.7719 207.621 15.3777 207.621 16.2045V18.2962C207.621 18.5133 207.728 18.6225 207.947 18.6225ZM216.505 27.7051H209.502C207.904 27.7051 206.668 27.2605 205.792 26.3661C204.914 25.4743 204.477 24.2315 204.477 22.6416V16.1078C204.477 14.4958 204.914 13.2478 205.792 12.3664C206.668 11.4837 207.904 11.043 209.502 11.043H212.163C213.762 11.043 215.002 11.4837 215.889 12.3664C216.776 13.2478 217.217 14.4958 217.217 16.1078V20.2574C217.217 20.6487 217.025 20.845 216.636 20.845H207.948C207.709 20.845 207.59 20.9542 207.59 21.1713V22.5766C207.59 24.1665 208.377 24.9621 209.956 24.9621H216.505C216.895 24.9621 217.09 25.1571 217.09 25.5497V27.1825C217.09 27.5322 216.895 27.7051 216.505 27.7051Z" fill="#2E3035"/>
</g>
<mask id="mask1_1_9" style="mask-type:alpha" maskUnits="userSpaceOnUse" x="0" y="18" width="11" height="9">
<path fill-rule="evenodd" clip-rule="evenodd" d="M0 18.8711H10.1035V26.847H0V18.8711Z" fill="white"/>
</mask>
<g mask="url(#mask1_1_9)">
<path fill-rule="evenodd" clip-rule="evenodd" d="M8.32237 18.8711L4.75697 23.5433L3.52637 22.4864C3.5096 22.4708 3.48896 22.4591 3.46961 22.4448C3.45155 22.4292 3.43607 22.4123 3.41543 22.398C3.4064 22.3915 3.39608 22.3889 3.38705 22.3824C3.35352 22.3616 3.32256 22.3447 3.29031 22.3291C3.25935 22.3135 3.22968 22.2979 3.19872 22.2862C3.16776 22.2745 3.13552 22.2654 3.10327 22.2563C3.06973 22.2472 3.03619 22.2368 3.00136 22.2303C2.97169 22.2264 2.93816 22.2238 2.9072 22.2212C2.87108 22.2186 2.83754 22.2147 2.80142 22.216C2.76917 22.216 2.73692 22.2199 2.70597 22.2238C2.67114 22.2277 2.6376 22.2303 2.60277 22.2381C2.57052 22.2446 2.53956 22.255 2.50731 22.2641C2.47507 22.2745 2.44282 22.2836 2.41186 22.2979C2.3809 22.3109 2.35123 22.3265 2.32156 22.3421C2.2906 22.359 2.26094 22.3746 2.23127 22.3941C2.20418 22.4136 2.17838 22.4344 2.15258 22.4565C2.1242 22.4786 2.09711 22.502 2.07132 22.528C2.06229 22.5358 2.05326 22.5423 2.04552 22.5514C2.02746 22.5696 2.01585 22.5904 2.00037 22.6099C1.98618 22.6281 1.96812 22.6424 1.95522 22.6632L0.189291 25.2112C-0.142224 25.6844 -0.0274188 26.3344 0.448569 26.662C0.674309 26.818 0.940037 26.8726 1.19416 26.8362C1.47278 26.7972 1.73593 26.6464 1.90878 26.3981L2.98717 24.8316L4.20101 25.8248C4.36999 25.9769 4.57509 26.0432 4.78535 26.0679C4.86146 26.0783 4.93498 26.0913 5.01238 26.0835C5.02786 26.0822 5.04334 26.09 5.05882 26.0874C5.1246 26.0783 5.18394 26.0484 5.24715 26.0276C5.28714 26.0133 5.32971 26.0081 5.36969 25.9886C5.4845 25.9327 5.59285 25.8586 5.68315 25.7598C5.6896 25.7533 5.69089 25.7442 5.69734 25.7377L10.1038 20.1087L8.32237 18.8711Z" fill="#00DA7D"/>
</g>
<path fill-rule="evenodd" clip-rule="evenodd" d="M32.8995 4.3248C32.8892 4.5523 32.8066 4.7785 32.6454 4.9644L28.2235 10.0734C27.8481 10.5063 27.1941 10.5518 26.7645 10.1735C26.3337 9.7952 26.2898 9.1361 26.6652 8.7032L31.0871 3.5942C31.4625 3.16 32.1152 3.1145 32.546 3.4928C32.7924 3.7099 32.9124 4.0193 32.8995 4.3248Z" fill="#0F95FC"/>
<mask id="mask2_1_9" style="mask-type:alpha" maskUnits="userSpaceOnUse" x="6" y="6" width="25" height="17">
<path fill-rule="evenodd" clip-rule="evenodd" d="M21.0683 14.667L14.6177 11.8803C13.7623 11.5115 12.7665 11.7561 12.1802 12.4818L6.02344 20.0743L9.25394 22.725L14.4175 16.3578L20.9214 19.1681C21.8015 19.5486 22.8246 19.2766 23.4044 18.5077L30.8573 8.62546L27.5358 6.08984L21.0683 14.667Z" fill="white"/>
</mask>
<g mask="url(#mask2_1_9)">
<path fill-rule="evenodd" clip-rule="evenodd" d="M21.0449 14.5772L14.5943 11.7905C13.7389 11.4217 12.7431 11.6662 12.1568 12.392L6 19.9845L9.2305 22.6352L14.3941 16.268L20.898 19.0782C21.7781 19.4588 22.8012 19.1868 23.381 18.4178L30.8339 8.53562L27.5124 6L21.0449 14.5772Z" fill="url(#paint0_linear_1_9)"/>
</g>
<path fill-rule="evenodd" clip-rule="evenodd" d="M19.3407 25.208C16.3466 25.5655 13.3918 24.7352 11.0213 22.8692C8.65089 21.0046 7.14877 18.3274 6.79257 15.3333C6.43384 12.3379 7.26539 9.38306 9.13005 7.01261C11.6691 3.78652 15.6278 2.31862 19.432 2.79778C21.3968 3.04496 23.3223 3.81187 24.9866 5.12259C29.8796 8.97235 30.7277 16.0862 26.8766 20.9792C25.0133 23.3497 22.3361 24.8505 19.3407 25.208ZM31.527 25.3844L28.9284 22.749C28.955 22.7173 28.9816 22.6869 29.007 22.6552C33.7821 16.5884 32.7299 7.767 26.6619 2.99315C20.5963 -1.78197 11.775 -0.729847 7.00118 5.33698C4.68651 8.27658 3.65721 11.94 4.10088 15.6541C4.54327 19.3682 6.4054 22.6869 9.345 24.999C11.3694 26.5937 13.7385 27.5773 16.2307 27.8904C17.3563 28.0324 18.506 28.0375 19.6621 27.8993C22.4242 27.5697 24.9671 26.4542 27.0409 24.6948L29.5964 27.2871C29.8195 27.5114 30.0996 27.6433 30.3925 27.68C30.7892 27.7295 31.205 27.604 31.5143 27.2997C32.0454 26.7749 32.0518 25.9168 31.527 25.3844Z" fill="#2E3035"/>
<defs>
<linearGradient id="paint0_linear_1_9" x1="4.58578" y1="16.2334" x2="16.7296" y2="28.1606" gradientUnits="userSpaceOnUse">
<stop stop-color="#0093FB"/>
<stop offset="1" stop-color="#00E26E"/>
</linearGradient>
</defs>
</svg>
